SplineFontDB: 3.2
FontName: KiwiMonoRegular
FullName: Kiwi Mono Regular
FamilyName: Kiwi Mono
Weight: Regular
Copyright: Copyright 2017 IBM Corp and Information Architects GmbH. Includes glyphs from Powerline Symbols. Combined by Yamagi. All rights reserved.
Version: 1.0
ItalicAngle: 0
UnderlinePosition: -170
UnderlineWidth: 60
Ascent: 780
Descent: 220
InvalidEm: 0
sfntRevision: 0x00020000
LayerCount: 2
Layer: 0 1 "Hinten" 1
Layer: 1 1 "Vorne" 0
XUID: [1021 807 -1602172241 4675409]
StyleMap: 0x0040
FSType: 0
OS2Version: 4
OS2_WeightWidthSlopeOnly: 1
OS2_UseTypoMetrics: 0
CreationTime: 1628853119
ModificationTime: 1664947011
PfmFamily: 17
TTFWeight: 400
TTFWidth: 5
LineGap: 0
VLineGap: 0
Panose: 2 11 5 9 5 2 3 0 2 3
OS2TypoAscent: 780
OS2TypoAOffset: 0
OS2TypoDescent: -220
OS2TypoDOffset: 0
OS2TypoLinegap: 300
OS2WinAscent: 1025
OS2WinAOffset: 0
OS2WinDescent: 275
OS2WinDOffset: 0
HheadAscent: 1025
HheadAOffset: 0
HheadDescent: -275
HheadDOffset: 0
OS2SubXSize: 650
OS2SubYSize: 600
OS2SubXOff: 0
OS2SubYOff: 75
OS2SupXSize: 650
OS2SupYSize: 600
OS2SupXOff: 0
OS2SupYOff: 350
OS2StrikeYSize: 60
OS2StrikeYPos: 309
OS2CapHeight: 698
OS2XHeight: 516
OS2FamilyClass: 2057
OS2Vendor: 'IBM '
OS2CodePages: 60000197.00000000
OS2UnicodeRanges: a000026f.4000383b.00000000.00000000
Lookup: 1 0 0 "'aalt' Access All Alternates lookup 0" { "'aalt' Access All Alternates lookup 0 subtable"  } ['aalt' ('DFLT' <'dflt' > 'cyrl' <'dflt' > 'latn' <'dflt' > ) ]
Lookup: 3 0 0 "'aalt' Access All Alternates lookup 1" { "'aalt' Access All Alternates lookup 1 subtable"  } ['aalt' ('DFLT' <'dflt' > 'cyrl' <'dflt' > 'latn' <'dflt' > ) ]
Lookup: 4 0 0 "'ccmp' Glyph Composition/Decomposition lookup 2" { "'ccmp' Glyph Composition/Decomposition lookup 2 subtable"  } ['ccmp' ('DFLT' <'dflt' > 'cyrl' <'dflt' > 'latn' <'dflt' > ) ]

StartChar: .notdef
Encoding: 65536 -1 0
Width: 600
GlyphClass: 1
Flags: W
LayerCount: 2
Fore
SplineSet
32 0 m 1,0,-1
 32 780 l 1,1,-1
 568 780 l 1,2,-1
 568 0 l 1,3,-1
 32 0 l 1,0,-1
92 60 m 1,4,-1
 508 60 l 1,5,-1
 508 720 l 1,6,-1
 92 720 l 1,7,-1
 92 60 l 1,4,-1
EndSplineSet
EndChar

StartChar: a
Encoding: 97 97 1
Width: 600
GlyphClass: 2
Flags: W
AnchorPoint: "Anchor-2" 283 516 basechar 0
AnchorPoint: "Anchor-1" 550 0 basechar 0
AnchorPoint: "Anchor-0" 283 0 basechar 0
LayerCount: 2
Fore
SplineSet
495 0 m 2,0,1
 448 0 448 0 428 24 c 128,-1,2
 408 48 408 48 403 84 c 1,3,-1
 398 84 l 1,4,5
 381 39 381 39 343.5 13.5 c 128,-1,6
 306 -12 306 -12 243 -12 c 0,7,8
 162 -12 162 -12 114 30 c 128,-1,9
 66 72 66 72 66 145 c 0,10,11
 66 217 66 217 118.5 256 c 128,-1,12
 171 295 171 295 288 295 c 2,13,-1
 398 295 l 1,14,-1
 398 346 l 2,15,16
 398 403 398 403 366 431.5 c 128,-1,17
 334 460 334 460 275 460 c 0,18,19
 223 460 223 460 190 439.5 c 128,-1,20
 157 419 157 419 137 384 c 1,21,-1
 83 424 l 1,22,23
 93 444 93 444 110 463 c 128,-1,24
 127 482 127 482 152 496.5 c 128,-1,25
 177 511 177 511 209 519.5 c 128,-1,26
 241 528 241 528 280 528 c 0,27,28
 371 528 371 528 424.5 482 c 128,-1,29
 478 436 478 436 478 354 c 2,30,-1
 478 70 l 1,31,-1
 550 70 l 1,32,-1
 550 0 l 1,33,-1
 495 0 l 2,0,1
257 55 m 0,34,35
 288 55 288 55 313.5 62.5 c 128,-1,36
 339 70 339 70 358 82.5 c 128,-1,37
 377 95 377 95 387.5 112.5 c 128,-1,38
 398 130 398 130 398 150 c 2,39,-1
 398 235 l 1,40,-1
 288 235 l 2,41,42
 216 235 216 235 183 215 c 128,-1,43
 150 195 150 195 150 157 c 2,44,-1
 150 136 l 2,45,46
 150 96 150 96 178.5 75.5 c 128,-1,47
 207 55 207 55 257 55 c 0,34,35
EndSplineSet
Substitution2: "'salt' Stylistic Alternatives lookup 16 subtable" a.alt01
Substitution2: "'ss01' Style Set 1 lookup 11 subtable" a.alt01
Substitution2: "'ordn' Ordinals lookup 4 subtable" ordfeminine
Substitution2: "'aalt' Access All Alternates lookup 0 subtable" a.alt01
EndChar

StartChar: a.alt01
Encoding: 65537 -1 2
Width: 600
GlyphClass: 2
Flags: W
AnchorPoint: "Anchor-2" 287 516 basechar 0
AnchorPoint: "Anchor-1" 505 0 basechar 0
AnchorPoint: "Anchor-0" 287 0 basechar 0
LayerCount: 2
Fore
SplineSet
425 84 m 1,0,-1
 421 84 l 1,1,2
 371 -12 371 -12 262 -12 c 0,3,4
 167 -12 167 -12 113.5 59 c 128,-1,5
 60 130 60 130 60 258 c 256,6,7
 60 386 60 386 113.5 457 c 128,-1,8
 167 528 167 528 262 528 c 0,9,10
 371 528 371 528 421 432 c 1,11,-1
 425 432 l 1,12,-1
 425 516 l 1,13,-1
 505 516 l 1,14,-1
 505 0 l 1,15,-1
 425 0 l 1,16,-1
 425 84 l 1,0,-1
293 59 m 0,17,18
 320 59 320 59 344 66 c 128,-1,19
 368 73 368 73 386 86.5 c 128,-1,20
 404 100 404 100 414.5 119.5 c 128,-1,21
 425 139 425 139 425 165 c 2,22,-1
 425 351 l 2,23,24
 425 377 425 377 414.5 396.5 c 128,-1,25
 404 416 404 416 386 429.5 c 128,-1,26
 368 443 368 443 344 450 c 128,-1,27
 320 457 320 457 293 457 c 0,28,29
 223 457 223 457 184.5 414.5 c 128,-1,30
 146 372 146 372 146 302 c 2,31,-1
 146 214 l 2,32,33
 146 144 146 144 184.5 101.5 c 128,-1,34
 223 59 223 59 293 59 c 0,17,18
EndSplineSet
EndChar

StartChar: b
Encoding: 98 98 3
Width: 600
GlyphClass: 2
Flags: W
AnchorPoint: "Anchor-0" 317 0 basechar 0
LayerCount: 2
Fore
SplineSet
95 740 m 1,0,-1
 175 740 l 1,1,-1
 175 432 l 1,2,-1
 179 432 l 1,3,4
 229 528 229 528 338 528 c 0,5,6
 433 528 433 528 486.5 457 c 128,-1,7
 540 386 540 386 540 258 c 256,8,9
 540 130 540 130 486.5 59 c 128,-1,10
 433 -12 433 -12 338 -12 c 0,11,12
 229 -12 229 -12 179 84 c 1,13,-1
 175 84 l 1,14,-1
 175 0 l 1,15,-1
 95 0 l 1,16,-1
 95 740 l 1,0,-1
307 59 m 0,17,18
 377 59 377 59 415.5 101.5 c 128,-1,19
 454 144 454 144 454 214 c 2,20,-1
 454 302 l 2,21,22
 454 372 454 372 415.5 414.5 c 128,-1,23
 377 457 377 457 307 457 c 0,24,25
 280 457 280 457 256 450 c 128,-1,26
 232 443 232 443 214 429.5 c 128,-1,27
 196 416 196 416 185.5 396.5 c 128,-1,28
 175 377 175 377 175 351 c 2,29,-1
 175 165 l 2,30,31
 175 139 175 139 185.5 119.5 c 128,-1,32
 196 100 196 100 214 86.5 c 128,-1,33
 232 73 232 73 256 66 c 128,-1,34
 280 59 280 59 307 59 c 0,17,18
EndSplineSet
EndChar

StartChar: c
Encoding: 99 99 4
Width: 600
GlyphClass: 2
Flags: W
AnchorPoint: "Anchor-2" 313 516 basechar 0
AnchorPoint: "Anchor-0" 303 0 basechar 0
LayerCount: 2
Fore
SplineSet
318 -12 m 0,0,1
 262 -12 262 -12 218.5 7.5 c 128,-1,2
 175 27 175 27 145 62 c 128,-1,3
 115 97 115 97 99.5 147 c 128,-1,4
 84 197 84 197 84 258 c 256,5,6
 84 319 84 319 100 369 c 128,-1,7
 116 419 116 419 146 454.5 c 128,-1,8
 176 490 176 490 219 509 c 128,-1,9
 262 528 262 528 317 528 c 0,10,11
 392 528 392 528 439 495 c 128,-1,12
 486 462 486 462 508 409 c 1,13,-1
 444 375 l 1,14,15
 430 415 430 415 397.5 437 c 128,-1,16
 365 459 365 459 317 459 c 0,17,18
 282 459 282 459 254.5 447.5 c 128,-1,19
 227 436 227 436 208 415 c 128,-1,20
 189 394 189 394 179.5 365 c 128,-1,21
 170 336 170 336 170 302 c 2,22,-1
 170 214 l 2,23,24
 170 180 170 180 179.5 151 c 128,-1,25
 189 122 189 122 208 101 c 128,-1,26
 227 80 227 80 255 68.5 c 128,-1,27
 283 57 283 57 319 57 c 0,28,29
 371 57 371 57 405 81 c 128,-1,30
 439 105 439 105 459 147 c 1,31,-1
 516 108 l 1,32,33
 493 56 493 56 444.5 22 c 128,-1,34
 396 -12 396 -12 318 -12 c 0,0,1
EndSplineSet
EndChar

StartChar: d
Encoding: 100 100 5
Width: 600
GlyphClass: 2
Flags: W
AnchorPoint: "Anchor-3" 567 740 basechar 0
AnchorPoint: "Anchor-0" 282 0 basechar 0
LayerCount: 2
Fore
SplineSet
425 84 m 1,0,-1
 421 84 l 1,1,2
 371 -12 371 -12 262 -12 c 0,3,4
 167 -12 167 -12 113.5 59 c 128,-1,5
 60 130 60 130 60 258 c 256,6,7
 60 386 60 386 113.5 457 c 128,-1,8
 167 528 167 528 262 528 c 0,9,10
 371 528 371 528 421 432 c 1,11,-1
 425 432 l 1,12,-1
 425 740 l 1,13,-1
 505 740 l 1,14,-1
 505 0 l 1,15,-1
 425 0 l 1,16,-1
 425 84 l 1,0,-1
293 59 m 0,17,18
 320 59 320 59 344 66 c 128,-1,19
 368 73 368 73 386 86.5 c 128,-1,20
 404 100 404 100 414.5 119.5 c 128,-1,21
 425 139 425 139 425 165 c 2,22,-1
 425 351 l 2,23,24
 425 377 425 377 414.5 396.5 c 128,-1,25
 404 416 404 416 386 429.5 c 128,-1,26
 368 443 368 443 344 450 c 128,-1,27
 320 457 320 457 293 457 c 0,28,29
 223 457 223 457 184.5 414.5 c 128,-1,30
 146 372 146 372 146 302 c 2,31,-1
 146 214 l 2,32,33
 146 144 146 144 184.5 101.5 c 128,-1,34
 223 59 223 59 293 59 c 0,17,18
EndSplineSet
EndChar

StartChar: e
Encoding: 101 101 6
Width: 600
GlyphClass: 2
Flags: W
AnchorPoint: "Anchor-2" 302 516 basechar 0
AnchorPoint: "Anchor-1" 391 0 basechar 0
AnchorPoint: "Anchor-0" 309 0 basechar 0
LayerCount: 2
Fore
SplineSet
309 -12 m 0,0,1
 253 -12 253 -12 208.5 7 c 128,-1,2
 164 26 164 26 132.5 61.5 c 128,-1,3
 101 97 101 97 84 146.5 c 128,-1,4
 67 196 67 196 67 257 c 0,5,6
 67 319 67 319 84.5 369 c 128,-1,7
 102 419 102 419 133 454.5 c 128,-1,8
 164 490 164 490 207.5 509 c 128,-1,9
 251 528 251 528 304 528 c 0,10,11
 356 528 356 528 398.5 509 c 128,-1,12
 441 490 441 490 471 456.5 c 128,-1,13
 501 423 501 423 517 377 c 128,-1,14
 533 331 533 331 533 276 c 2,15,-1
 533 238 l 1,16,-1
 151 238 l 1,17,-1
 151 214 l 2,18,19
 151 180 151 180 162 151 c 128,-1,20
 173 122 173 122 193.5 101 c 128,-1,21
 214 80 214 80 243.5 68.5 c 128,-1,22
 273 57 273 57 309 57 c 0,23,24
 361 57 361 57 399 81 c 128,-1,25
 437 105 437 105 457 147 c 1,26,-1
 516 107 l 1,27,28
 493 55 493 55 439.5 21.5 c 128,-1,29
 386 -12 386 -12 309 -12 c 0,0,1
304 462 m 0,30,31
 271 462 271 462 243 450 c 128,-1,32
 215 438 215 438 194.5 417 c 128,-1,33
 174 396 174 396 162.5 367.5 c 128,-1,34
 151 339 151 339 151 305 c 2,35,-1
 151 298 l 1,36,-1
 447 298 l 1,37,-1
 447 309 l 2,38,39
 447 343 447 343 436.5 371 c 128,-1,40
 426 399 426 399 407.5 419.5 c 128,-1,41
 389 440 389 440 362.5 451 c 128,-1,42
 336 462 336 462 304 462 c 0,30,31
EndSplineSet
EndChar

StartChar: f
Encoding: 102 102 7
Width: 600
GlyphClass: 2
Flags: W
AnchorPoint: "Anchor-0" 308 0 basechar 0
LayerCount: 2
Fore
SplineSet
83 68 m 1,0,-1
 257 68 l 1,1,-1
 257 448 l 1,2,-1
 73 448 l 1,3,-1
 73 516 l 1,4,-1
 257 516 l 1,5,-1
 257 622 l 2,6,7
 257 674 257 674 284.5 707 c 128,-1,8
 312 740 312 740 371 740 c 2,9,-1
 544 740 l 1,10,-1
 544 672 l 1,11,-1
 337 672 l 1,12,-1
 337 516 l 1,13,-1
 544 516 l 1,14,-1
 544 448 l 1,15,-1
 337 448 l 1,16,-1
 337 68 l 1,17,-1
 521 68 l 1,18,-1
 521 0 l 1,19,-1
 83 0 l 1,20,-1
 83 68 l 1,0,-1
EndSplineSet
EndChar

StartChar: g
Encoding: 103 103 8
Width: 600
GlyphClass: 2
Flags: W
AnchorPoint: "Anchor-2" 297 516 basechar 0
LayerCount: 2
Fore
SplineSet
561 -59 m 0,0,1
 561 -137 561 -137 496 -174.5 c 128,-1,2
 431 -212 431 -212 301 -212 c 0,3,4
 176 -212 176 -212 121.5 -179 c 128,-1,5
 67 -146 67 -146 67 -84 c 0,6,7
 67 -42 67 -42 89 -19 c 128,-1,8
 111 4 111 4 151 15 c 1,9,-1
 151 27 l 1,10,11
 129 38 129 38 117 55 c 128,-1,12
 105 72 105 72 105 98 c 0,13,14
 105 138 105 138 131.5 158 c 128,-1,15
 158 178 158 178 198 188 c 1,16,-1
 198 192 l 1,17,18
 150 213 150 213 123.5 254 c 128,-1,19
 97 295 97 295 97 350 c 0,20,21
 97 389 97 389 111 422 c 128,-1,22
 125 455 125 455 151.5 478.5 c 128,-1,23
 178 502 178 502 215 515 c 128,-1,24
 252 528 252 528 297 528 c 0,25,26
 355 528 355 528 399 507 c 1,27,-1
 399 516 l 2,28,29
 399 546 399 546 413 566 c 128,-1,30
 427 586 427 586 461 586 c 2,31,-1
 556 586 l 1,32,-1
 556 516 l 1,33,-1
 440 516 l 1,34,-1
 440 481 l 1,35,36
 468 457 468 457 483 424 c 128,-1,37
 498 391 498 391 498 350 c 0,38,39
 498 311 498 311 483.5 278 c 128,-1,40
 469 245 469 245 443 221.5 c 128,-1,41
 417 198 417 198 379.5 185 c 128,-1,42
 342 172 342 172 297 172 c 0,43,44
 284 172 284 172 272 173 c 128,-1,45
 260 174 260 174 248 176 c 0,46,47
 236 174 236 174 223 169.5 c 128,-1,48
 210 165 210 165 199 157.5 c 128,-1,49
 188 150 188 150 181 140 c 128,-1,50
 174 130 174 130 174 117 c 0,51,52
 174 94 174 94 197 86.5 c 128,-1,53
 220 79 220 79 257 79 c 2,54,-1
 371 79 l 2,55,56
 471 79 471 79 516 41.5 c 128,-1,57
 561 4 561 4 561 -59 c 0,0,1
486 -63 m 0,58,59
 486 -32 486 -32 461 -13.5 c 128,-1,60
 436 5 436 5 374 5 c 2,61,-1
 195 5 l 1,62,63
 143 -16 143 -16 143 -65 c 0,64,65
 143 -99 143 -99 170 -123.5 c 128,-1,66
 197 -148 197 -148 260 -148 c 2,67,-1
 338 -148 l 2,68,69
 408 -148 408 -148 447 -126.5 c 128,-1,70
 486 -105 486 -105 486 -63 c 0,58,59
297 234 m 256,71,72
 357 234 357 234 385.5 262 c 128,-1,73
 414 290 414 290 414 336 c 2,74,-1
 414 365 l 2,75,76
 414 411 414 411 385.5 438.5 c 128,-1,77
 357 466 357 466 297 466 c 256,78,79
 237 466 237 466 209 438.5 c 128,-1,80
 181 411 181 411 181 365 c 2,81,-1
 181 336 l 2,82,83
 181 290 181 290 209 262 c 128,-1,84
 237 234 237 234 297 234 c 256,71,72
EndSplineSet
Substitution2: "'salt' Stylistic Alternatives lookup 16 subtable" g.alt01
Substitution2: "'ss02' Style Set 2 lookup 12 subtable" g.alt01
AlternateSubs2: "'aalt' Access All Alternates lookup 1 subtable" g.alt01 g.alt02
EndChar

StartChar: g.alt01
Encoding: 65538 -1 9
Width: 600
GlyphClass: 2
Flags: W
AnchorPoint: "Anchor-2" 287 516 basechar 0
LayerCount: 2
Fore
SplineSet
505 17 m 2,0,1
 505 -90 505 -90 446 -151 c 128,-1,2
 387 -212 387 -212 278 -212 c 0,3,4
 215 -212 215 -212 169.5 -192.5 c 128,-1,5
 124 -173 124 -173 93 -141 c 1,6,-1
 140 -86 l 1,7,8
 166 -113 166 -113 200 -127.5 c 128,-1,9
 234 -142 234 -142 279 -142 c 0,10,11
 425 -142 425 -142 425 12 c 2,12,-1
 425 98 l 1,13,-1
 421 98 l 1,14,15
 371 2 371 2 262 2 c 0,16,17
 215 2 215 2 177.5 20.5 c 128,-1,18
 140 39 140 39 114 73 c 128,-1,19
 88 107 88 107 74 155.5 c 128,-1,20
 60 204 60 204 60 265 c 256,21,22
 60 326 60 326 74 374.5 c 128,-1,23
 88 423 88 423 114 457 c 128,-1,24
 140 491 140 491 177.5 509.5 c 128,-1,25
 215 528 215 528 262 528 c 0,26,27
 371 528 371 528 421 432 c 1,28,-1
 425 432 l 1,29,-1
 425 516 l 1,30,-1
 505 516 l 1,31,-1
 505 17 l 2,0,1
293 73 m 0,32,33
 320 73 320 73 344 80 c 128,-1,34
 368 87 368 87 386 100.5 c 128,-1,35
 404 114 404 114 414.5 133.5 c 128,-1,36
 425 153 425 153 425 179 c 2,37,-1
 425 351 l 2,38,39
 425 377 425 377 414.5 396.5 c 128,-1,40
 404 416 404 416 386 429.5 c 128,-1,41
 368 443 368 443 344 450 c 128,-1,42
 320 457 320 457 293 457 c 0,43,44
 223 457 223 457 184.5 414.5 c 128,-1,45
 146 372 146 372 146 302 c 2,46,-1
 146 228 l 2,47,48
 146 158 146 158 184.5 115.5 c 128,-1,49
 223 73 223 73 293 73 c 0,32,33
EndSplineSet
EndChar

StartChar: g.alt02
Encoding: 65539 -1 10
Width: 600
GlyphClass: 2
Flags: W
AnchorPoint: "Anchor-2" 300 516 basechar 0
LayerCount: 2
Fore
SplineSet
301 -212 m 0,0,1
 176 -212 176 -212 121.5 -179 c 128,-1,2
 67 -146 67 -146 67 -84 c 0,3,4
 67 -42 67 -42 89 -19 c 128,-1,5
 111 4 111 4 151 15 c 1,6,-1
 151 27 l 1,7,8
 129 38 129 38 117 55 c 128,-1,9
 105 72 105 72 105 98 c 0,10,11
 105 138 105 138 131.5 158 c 128,-1,12
 158 178 158 178 198 188 c 1,13,-1
 198 192 l 1,14,15
 150 213 150 213 123.5 254 c 128,-1,16
 97 295 97 295 97 350 c 0,17,18
 97 389 97 389 111 422 c 128,-1,19
 125 455 125 455 151.5 478.5 c 128,-1,20
 178 502 178 502 215 515 c 128,-1,21
 252 528 252 528 297 528 c 0,22,23
 340 528 340 528 375 516 c 1,24,-1
 556 516 l 1,25,-1
 556 452 l 1,26,-1
 462 452 l 1,27,28
 481 432 481 432 489.5 405.5 c 128,-1,29
 498 379 498 379 498 350 c 0,30,31
 498 311 498 311 483.5 278 c 128,-1,32
 469 245 469 245 443 221.5 c 128,-1,33
 417 198 417 198 379.5 185 c 128,-1,34
 342 172 342 172 297 172 c 0,35,36
 284 172 284 172 272 173 c 128,-1,37
 260 174 260 174 248 176 c 0,38,39
 236 174 236 174 223 169.5 c 128,-1,40
 210 165 210 165 199 157.5 c 128,-1,41
 188 150 188 150 181 140 c 128,-1,42
 174 130 174 130 174 117 c 0,43,44
 174 94 174 94 197 86.5 c 128,-1,45
 220 79 220 79 257 79 c 2,46,-1
 371 79 l 2,47,48
 471 79 471 79 516 41.5 c 128,-1,49
 561 4 561 4 561 -59 c 0,50,51
 561 -137 561 -137 496 -174.5 c 128,-1,52
 431 -212 431 -212 301 -212 c 0,0,1
297 234 m 256,53,54
 357 234 357 234 385.5 262 c 128,-1,55
 414 290 414 290 414 336 c 2,56,-1
 414 365 l 2,57,58
 414 411 414 411 385.5 438.5 c 128,-1,59
 357 466 357 466 297 466 c 256,60,61
 237 466 237 466 209 438.5 c 128,-1,62
 181 411 181 411 181 365 c 2,63,-1
 181 336 l 2,64,65
 181 290 181 290 209 262 c 128,-1,66
 237 234 237 234 297 234 c 256,53,54
486 -63 m 0,67,68
 486 -32 486 -32 461 -13.5 c 128,-1,69
 436 5 436 5 374 5 c 2,70,-1
 195 5 l 1,71,72
 143 -16 143 -16 143 -65 c 0,73,74
 143 -99 143 -99 170 -123.5 c 128,-1,75
 197 -148 197 -148 260 -148 c 2,76,-1
 338 -148 l 2,77,78
 408 -148 408 -148 447 -126.5 c 128,-1,79
 486 -105 486 -105 486 -63 c 0,67,68
EndSplineSet
EndChar

StartChar: h
Encoding: 104 104 11
Width: 600
GlyphClass: 2
Flags: W
AnchorPoint: "Anchor-2" 138 698 basechar 0
AnchorPoint: "Anchor-0" 303 0 basechar 0
LayerCount: 2
Fore
SplineSet
98 740 m 1,0,-1
 178 740 l 1,1,-1
 178 432 l 1,2,-1
 182 432 l 1,3,4
 190 451 190 451 202 468.5 c 128,-1,5
 214 486 214 486 231.5 499 c 128,-1,6
 249 512 249 512 273 520 c 128,-1,7
 297 528 297 528 329 528 c 0,8,9
 410 528 410 528 459 476.5 c 128,-1,10
 508 425 508 425 508 331 c 2,11,-1
 508 0 l 1,12,-1
 428 0 l 1,13,-1
 428 317 l 2,14,15
 428 388 428 388 397 422.5 c 128,-1,16
 366 457 366 457 306 457 c 0,17,18
 282 457 282 457 259 451 c 128,-1,19
 236 445 236 445 218 433 c 128,-1,20
 200 421 200 421 189 402 c 128,-1,21
 178 383 178 383 178 358 c 2,22,-1
 178 0 l 1,23,-1
 98 0 l 1,24,-1
 98 740 l 1,0,-1
EndSplineSet
EndChar

StartChar: i
Encoding: 105 105 12
Width: 600
GlyphClass: 2
Flags: W
AnchorPoint: "Anchor-1" 546 0 basechar 0
AnchorPoint: "Anchor-0" 332 0 basechar 0
LayerCount: 2
Fore
SplineSet
332 630 m 256,0,1
 297 630 297 630 283 644.5 c 128,-1,2
 269 659 269 659 269 681 c 2,3,-1
 269 697 l 2,4,5
 269 719 269 719 283 733.5 c 128,-1,6
 297 748 297 748 332 748 c 256,7,8
 367 748 367 748 381 733.5 c 128,-1,9
 395 719 395 719 395 697 c 2,10,-1
 395 681 l 2,11,12
 395 659 395 659 381 644.5 c 128,-1,13
 367 630 367 630 332 630 c 256,0,1
106 68 m 1,14,-1
 292 68 l 1,15,-1
 292 448 l 1,16,-1
 106 448 l 1,17,-1
 106 516 l 1,18,-1
 372 516 l 1,19,-1
 372 68 l 1,20,-1
 546 68 l 1,21,-1
 546 0 l 1,22,-1
 106 0 l 1,23,-1
 106 68 l 1,14,-1
EndSplineSet
Substitution2: "Single Substitution lookup 17 subtable" dotlessi
EndChar

StartChar: j
Encoding: 106 106 13
Width: 600
GlyphClass: 1
Flags: W
LayerCount: 2
Fore
SplineSet
102 -132 m 1,0,-1
 352 -132 l 1,1,-1
 352 448 l 1,2,-1
 93 448 l 1,3,-1
 93 516 l 1,4,-1
 432 516 l 1,5,-1
 432 -82 l 2,6,7
 432 -134 432 -134 404.5 -167 c 128,-1,8
 377 -200 377 -200 318 -200 c 2,9,-1
 102 -200 l 1,10,-1
 102 -132 l 1,0,-1
392 630 m 256,11,12
 357 630 357 630 343 644.5 c 128,-1,13
 329 659 329 659 329 681 c 2,14,-1
 329 697 l 2,15,16
 329 719 329 719 343 733.5 c 128,-1,17
 357 748 357 748 392 748 c 256,18,19
 427 748 427 748 441 733.5 c 128,-1,20
 455 719 455 719 455 697 c 2,21,-1
 455 681 l 2,22,23
 455 659 455 659 441 644.5 c 128,-1,24
 427 630 427 630 392 630 c 256,11,12
EndSplineSet
Substitution2: "Single Substitution lookup 17 subtable" uni0237
EndChar

StartChar: k
Encoding: 107 107 14
Width: 600
GlyphClass: 2
Flags: W
AnchorPoint: "Anchor-0" 323 0 basechar 0
LayerCount: 2
Fore
SplineSet
105 740 m 1,0,-1
 185 740 l 1,1,-1
 185 273 l 1,2,-1
 189 273 l 1,3,-1
 279 358 l 1,4,-1
 451 516 l 1,5,-1
 549 516 l 1,6,-1
 335 314 l 1,7,-1
 574 0 l 1,8,-1
 475 0 l 1,9,-1
 274 268 l 1,10,-1
 185 187 l 1,11,-1
 185 0 l 1,12,-1
 105 0 l 1,13,-1
 105 740 l 1,0,-1
EndSplineSet
EndChar

StartChar: l
Encoding: 108 108 15
Width: 600
GlyphClass: 2
Flags: W
AnchorPoint: "Anchor-3" 426 740 basechar 0
AnchorPoint: "Anchor-2" 300 698 basechar 0
AnchorPoint: "Anchor-0" 300 0 basechar 0
LayerCount: 2
Fore
SplineSet
80 68 m 1,0,-1
 260 68 l 1,1,-1
 260 672 l 1,2,-1
 80 672 l 1,3,-1
 80 740 l 1,4,-1
 340 740 l 1,5,-1
 340 68 l 1,6,-1
 520 68 l 1,7,-1
 520 0 l 1,8,-1
 80 0 l 1,9,-1
 80 68 l 1,0,-1
EndSplineSet
EndChar

StartChar: m
Encoding: 109 109 16
Width: 600
GlyphClass: 2
Flags: W
AnchorPoint: "Anchor-2" 300 516 basechar 0
AnchorPoint: "Anchor-0" 300 0 basechar 0
LayerCount: 2
Fore
SplineSet
54 0 m 1,0,-1
 54 516 l 1,1,-1
 128 516 l 1,2,-1
 128 456 l 1,3,-1
 132 456 l 1,4,5
 144 486 144 486 166 507 c 128,-1,6
 188 528 188 528 231 528 c 0,7,8
 276 528 276 528 298 505.5 c 128,-1,9
 320 483 320 483 325 447 c 1,10,-1
 328 447 l 1,11,12
 342 482 342 482 368 505 c 128,-1,13
 394 528 394 528 440 528 c 0,14,15
 503 528 503 528 524.5 484 c 128,-1,16
 546 440 546 440 546 358 c 2,17,-1
 546 0 l 1,18,-1
 472 0 l 1,19,-1
 472 345 l 2,20,21
 472 411 472 411 458.5 436.5 c 128,-1,22
 445 462 445 462 409 462 c 0,23,24
 377 462 377 462 357 441.5 c 128,-1,25
 337 421 337 421 337 379 c 2,26,-1
 337 0 l 1,27,-1
 263 0 l 1,28,-1
 263 345 l 2,29,30
 263 411 263 411 249.5 436.5 c 128,-1,31
 236 462 236 462 201 462 c 0,32,33
 169 462 169 462 148.5 441.5 c 128,-1,34
 128 421 128 421 128 379 c 2,35,-1
 128 0 l 1,36,-1
 54 0 l 1,0,-1
EndSplineSet
EndChar

StartChar: n
Encoding: 110 110 17
Width: 600
GlyphClass: 2
Flags: W
AnchorPoint: "Anchor-2" 303 516 basechar 0
AnchorPoint: "Anchor-0" 303 0 basechar 0
LayerCount: 2
Fore
SplineSet
98 0 m 1,0,-1
 98 516 l 1,1,-1
 178 516 l 1,2,-1
 178 432 l 1,3,-1
 182 432 l 1,4,5
 190 451 190 451 202 468.5 c 128,-1,6
 214 486 214 486 231.5 499 c 128,-1,7
 249 512 249 512 273 520 c 128,-1,8
 297 528 297 528 329 528 c 0,9,10
 410 528 410 528 459 476.5 c 128,-1,11
 508 425 508 425 508 331 c 2,12,-1
 508 0 l 1,13,-1
 428 0 l 1,14,-1
 428 317 l 2,15,16
 428 388 428 388 397 422.5 c 128,-1,17
 366 457 366 457 306 457 c 0,18,19
 282 457 282 457 259 451 c 128,-1,20
 236 445 236 445 218 433 c 128,-1,21
 200 421 200 421 189 402 c 128,-1,22
 178 383 178 383 178 358 c 2,23,-1
 178 0 l 1,24,-1
 98 0 l 1,0,-1
EndSplineSet
EndChar

StartChar: o
Encoding: 111 111 18
Width: 600
GlyphClass: 2
Flags: W
AnchorPoint: "Anchor-2" 300 516 basechar 0
AnchorPoint: "Anchor-0" 300 0 basechar 0
LayerCount: 2
Fore
SplineSet
300 -12 m 256,0,1
 246 -12 246 -12 202.5 7 c 128,-1,2
 159 26 159 26 128.5 61.5 c 128,-1,3
 98 97 98 97 82 146.5 c 128,-1,4
 66 196 66 196 66 258 c 0,5,6
 66 319 66 319 82 369 c 128,-1,7
 98 419 98 419 128.5 454.5 c 128,-1,8
 159 490 159 490 202.5 509 c 128,-1,9
 246 528 246 528 300 528 c 256,10,11
 354 528 354 528 397.5 509 c 128,-1,12
 441 490 441 490 471.5 454.5 c 128,-1,13
 502 419 502 419 518 369 c 128,-1,14
 534 319 534 319 534 258 c 0,15,16
 534 196 534 196 518 146.5 c 128,-1,17
 502 97 502 97 471.5 61.5 c 128,-1,18
 441 26 441 26 397.5 7 c 128,-1,19
 354 -12 354 -12 300 -12 c 256,0,1
300 57 m 256,20,21
 367 57 367 57 408 97 c 128,-1,22
 449 137 449 137 449 221 c 2,23,-1
 449 295 l 2,24,25
 449 379 449 379 408 419 c 128,-1,26
 367 459 367 459 300 459 c 256,27,28
 233 459 233 459 192 419 c 128,-1,29
 151 379 151 379 151 295 c 2,30,-1
 151 221 l 2,31,32
 151 137 151 137 192 97 c 128,-1,33
 233 57 233 57 300 57 c 256,20,21
EndSplineSet
Substitution2: "'ordn' Ordinals lookup 4 subtable" ordmasculine
EndChar

StartChar: p
Encoding: 112 112 19
Width: 600
GlyphClass: 2
Flags: W
AnchorPoint: "Anchor-2" 317 516 basechar 0
LayerCount: 2
Fore
SplineSet
95 516 m 1,0,-1
 175 516 l 1,1,-1
 175 432 l 1,2,-1
 179 432 l 1,3,4
 229 528 229 528 338 528 c 0,5,6
 433 528 433 528 486.5 457 c 128,-1,7
 540 386 540 386 540 258 c 256,8,9
 540 130 540 130 486.5 59 c 128,-1,10
 433 -12 433 -12 338 -12 c 0,11,12
 229 -12 229 -12 179 84 c 1,13,-1
 175 84 l 1,14,-1
 175 -200 l 1,15,-1
 95 -200 l 1,16,-1
 95 516 l 1,0,-1
307 59 m 0,17,18
 377 59 377 59 415.5 101.5 c 128,-1,19
 454 144 454 144 454 214 c 2,20,-1
 454 302 l 2,21,22
 454 372 454 372 415.5 414.5 c 128,-1,23
 377 457 377 457 307 457 c 0,24,25
 280 457 280 457 256 450 c 128,-1,26
 232 443 232 443 214 429.5 c 128,-1,27
 196 416 196 416 185.5 396.5 c 128,-1,28
 175 377 175 377 175 351 c 2,29,-1
 175 165 l 2,30,31
 175 139 175 139 185.5 119.5 c 128,-1,32
 196 100 196 100 214 86.5 c 128,-1,33
 232 73 232 73 256 66 c 128,-1,34
 280 59 280 59 307 59 c 0,17,18
EndSplineSet
EndChar

StartChar: q
Encoding: 113 113 20
Width: 600
GlyphClass: 2
Flags: W
AnchorPoint: "Anchor-2" 282 516 basechar 0
LayerCount: 2
Fore
SplineSet
425 84 m 1,0,-1
 421 84 l 1,1,2
 371 -12 371 -12 262 -12 c 0,3,4
 167 -12 167 -12 113.5 59 c 128,-1,5
 60 130 60 130 60 258 c 256,6,7
 60 386 60 386 113.5 457 c 128,-1,8
 167 528 167 528 262 528 c 0,9,10
 371 528 371 528 421 432 c 1,11,-1
 425 432 l 1,12,-1
 425 516 l 1,13,-1
 505 516 l 1,14,-1
 505 -200 l 1,15,-1
 425 -200 l 1,16,-1
 425 84 l 1,0,-1
293 59 m 0,17,18
 320 59 320 59 344 66 c 128,-1,19
 368 73 368 73 386 86.5 c 128,-1,20
 404 100 404 100 414.5 119.5 c 128,-1,21
 425 139 425 139 425 165 c 2,22,-1
 425 351 l 2,23,24
 425 377 425 377 414.5 396.5 c 128,-1,25
 404 416 404 416 386 429.5 c 128,-1,26
 368 443 368 443 344 450 c 128,-1,27
 320 457 320 457 293 457 c 0,28,29
 223 457 223 457 184.5 414.5 c 128,-1,30
 146 372 146 372 146 302 c 2,31,-1
 146 214 l 2,32,33
 146 144 146 144 184.5 101.5 c 128,-1,34
 223 59 223 59 293 59 c 0,17,18
EndSplineSet
EndChar

StartChar: r
Encoding: 114 114 21
Width: 600
GlyphClass: 2
Flags: W
AnchorPoint: "Anchor-2" 353 516 basechar 0
AnchorPoint: "Anchor-0" 268 0 basechar 0
LayerCount: 2
Fore
SplineSet
77 68 m 1,0,-1
 228 68 l 1,1,-1
 228 448 l 1,2,-1
 77 448 l 1,3,-1
 77 516 l 1,4,-1
 308 516 l 1,5,-1
 308 386 l 1,6,-1
 313 386 l 1,7,8
 329 447 329 447 373.5 481.5 c 128,-1,9
 418 516 418 516 487 516 c 2,10,-1
 559 516 l 1,11,-1
 559 436 l 1,12,-1
 462 436 l 2,13,14
 393 436 393 436 350.5 396 c 128,-1,15
 308 356 308 356 308 291 c 2,16,-1
 308 68 l 1,17,-1
 508 68 l 1,18,-1
 508 0 l 1,19,-1
 77 0 l 1,20,-1
 77 68 l 1,0,-1
EndSplineSet
EndChar

StartChar: s
Encoding: 115 115 22
Width: 600
GlyphClass: 2
Flags: W
AnchorPoint: "Anchor-2" 298 516 basechar 0
AnchorPoint: "Anchor-0" 294 0 basechar 0
LayerCount: 2
Fore
SplineSet
306 -12 m 0,0,1
 225 -12 225 -12 166.5 15.5 c 128,-1,2
 108 43 108 43 67 89 c 1,3,-1
 121 136 l 1,4,5
 158 97 158 97 202 76 c 128,-1,6
 246 55 246 55 308 55 c 0,7,8
 368 55 368 55 406.5 76.5 c 128,-1,9
 445 98 445 98 445 144 c 0,10,11
 445 164 445 164 437.5 177.5 c 128,-1,12
 430 191 430 191 417 199 c 128,-1,13
 404 207 404 207 388 211.5 c 128,-1,14
 372 216 372 216 354 219 c 2,15,-1
 273 231 l 2,16,17
 246 235 246 235 214.5 242 c 128,-1,18
 183 249 183 249 157 264.5 c 128,-1,19
 131 280 131 280 113.5 306 c 128,-1,20
 96 332 96 332 96 374 c 0,21,22
 96 413 96 413 111.5 441.5 c 128,-1,23
 127 470 127 470 155 489.5 c 128,-1,24
 183 509 183 509 221 518.5 c 128,-1,25
 259 528 259 528 304 528 c 0,26,27
 374 528 374 528 425.5 506 c 128,-1,28
 477 484 477 484 514 445 c 1,29,-1
 462 396 l 1,30,31
 453 407 453 407 439.5 418.5 c 128,-1,32
 426 430 426 430 406.5 439.5 c 128,-1,33
 387 449 387 449 361 455 c 128,-1,34
 335 461 335 461 301 461 c 0,35,36
 240 461 240 461 207.5 440 c 128,-1,37
 175 419 175 419 175 379 c 0,38,39
 175 359 175 359 182.5 345.5 c 128,-1,40
 190 332 190 332 203 324 c 128,-1,41
 216 316 216 316 232.5 311.5 c 128,-1,42
 249 307 249 307 266 304 c 2,43,-1
 347 292 l 2,44,45
 375 288 375 288 406 281 c 128,-1,46
 437 274 437 274 463 258.5 c 128,-1,47
 489 243 489 243 506.5 217 c 128,-1,48
 524 191 524 191 524 149 c 0,49,50
 524 72 524 72 464.5 30 c 128,-1,51
 405 -12 405 -12 306 -12 c 0,0,1
EndSplineSet
EndChar

StartChar: t
Encoding: 116 116 23
Width: 600
GlyphClass: 2
Flags: W
AnchorPoint: "Anchor-3" 387 760 basechar 0
AnchorPoint: "Anchor-0" 375 0 basechar 0
LayerCount: 2
Fore
SplineSet
325 0 m 2,0,1
 266 0 266 0 238.5 33 c 128,-1,2
 211 66 211 66 211 118 c 2,3,-1
 211 448 l 1,4,-1
 39 448 l 1,5,-1
 39 516 l 1,6,-1
 167 516 l 2,7,8
 193 516 193 516 203.5 526.5 c 128,-1,9
 214 537 214 537 214 563 c 2,10,-1
 214 698 l 1,11,-1
 291 698 l 1,12,-1
 291 516 l 1,13,-1
 526 516 l 1,14,-1
 526 448 l 1,15,-1
 291 448 l 1,16,-1
 291 68 l 1,17,-1
 526 68 l 1,18,-1
 526 0 l 1,19,-1
 325 0 l 2,0,1
EndSplineSet
EndChar

StartChar: u
Encoding: 117 117 24
Width: 600
GlyphClass: 2
Flags: W
AnchorPoint: "Anchor-2" 297 516 basechar 0
AnchorPoint: "Anchor-1" 502 0 basechar 0
AnchorPoint: "Anchor-0" 297 0 basechar 0
LayerCount: 2
Fore
SplineSet
422 84 m 1,0,-1
 418 84 l 1,1,2
 410 65 410 65 398 47.5 c 128,-1,3
 386 30 386 30 368.5 17 c 128,-1,4
 351 4 351 4 327 -4 c 128,-1,5
 303 -12 303 -12 271 -12 c 0,6,7
 190 -12 190 -12 141 39.5 c 128,-1,8
 92 91 92 91 92 185 c 2,9,-1
 92 516 l 1,10,-1
 172 516 l 1,11,-1
 172 199 l 2,12,13
 172 128 172 128 203 93.5 c 128,-1,14
 234 59 234 59 294 59 c 0,15,16
 318 59 318 59 341 65 c 128,-1,17
 364 71 364 71 382 83 c 128,-1,18
 400 95 400 95 411 113.5 c 128,-1,19
 422 132 422 132 422 158 c 2,20,-1
 422 516 l 1,21,-1
 502 516 l 1,22,-1
 502 0 l 1,23,-1
 422 0 l 1,24,-1
 422 84 l 1,0,-1
EndSplineSet
EndChar

StartChar: v
Encoding: 118 118 25
Width: 600
GlyphClass: 2
Flags: W
AnchorPoint: "Anchor-2" 300 516 basechar 0
AnchorPoint: "Anchor-0" 300 0 basechar 0
LayerCount: 2
Fore
SplineSet
249 0 m 1,0,-1
 64 516 l 1,1,-1
 145 516 l 1,2,-1
 219 300 l 1,3,-1
 299 67 l 1,4,-1
 303 67 l 1,5,-1
 383 300 l 1,6,-1
 457 516 l 1,7,-1
 536 516 l 1,8,-1
 351 0 l 1,9,-1
 249 0 l 1,0,-1
EndSplineSet
EndChar

StartChar: w
Encoding: 119 119 26
Width: 600
GlyphClass: 2
Flags: W
AnchorPoint: "Anchor-2" 300 516 basechar 0
AnchorPoint: "Anchor-0" 300 0 basechar 0
LayerCount: 2
Fore
SplineSet
30 516 m 1,0,-1
 101 516 l 1,1,-1
 160 70 l 1,2,-1
 169 70 l 1,3,-1
 257 516 l 1,4,-1
 345 516 l 1,5,-1
 433 70 l 1,6,-1
 442 70 l 1,7,-1
 501 516 l 1,8,-1
 570 516 l 1,9,-1
 491 0 l 1,10,-1
 387 0 l 1,11,-1
 305 432 l 1,12,-1
 297 432 l 1,13,-1
 213 0 l 1,14,-1
 109 0 l 1,15,-1
 30 516 l 1,0,-1
EndSplineSet
EndChar

StartChar: x
Encoding: 120 120 27
Width: 600
GlyphClass: 2
Flags: W
AnchorPoint: "Anchor-2" 300 516 basechar 0
AnchorPoint: "Anchor-0" 300 0 basechar 0
LayerCount: 2
Fore
SplineSet
61 0 m 1,0,-1
 253 262 l 1,1,-1
 66 516 l 1,2,-1
 162 516 l 1,3,-1
 240 407 l 1,4,-1
 302 321 l 1,5,-1
 306 321 l 1,6,-1
 366 407 l 1,7,-1
 443 516 l 1,8,-1
 535 516 l 1,9,-1
 346 263 l 1,10,-1
 540 0 l 1,11,-1
 444 0 l 1,12,-1
 357 121 l 1,13,-1
 298 203 l 1,14,-1
 294 203 l 1,15,-1
 237 121 l 1,16,-1
 153 0 l 1,17,-1
 61 0 l 1,0,-1
EndSplineSet
EndChar

StartChar: y
Encoding: 121 121 28
Width: 600
GlyphClass: 2
Flags: W
AnchorPoint: "Anchor-2" 300 516 basechar 0
AnchorPoint: "Anchor-0" 460 0 basechar 0
LayerCount: 2
Fore
SplineSet
467 516 m 1,0,-1
 547 516 l 1,1,-1
 291 -113 l 2,2,3
 282 -135 282 -135 271 -151.5 c 128,-1,4
 260 -168 260 -168 245 -178.5 c 128,-1,5
 230 -189 230 -189 209 -194.5 c 128,-1,6
 188 -200 188 -200 159 -200 c 2,7,-1
 83 -200 l 1,8,-1
 83 -132 l 1,9,-1
 203 -132 l 1,10,-1
 261 10 l 1,11,-1
 53 516 l 1,12,-1
 135 516 l 1,13,-1
 222 300 l 1,14,-1
 299 104 l 1,15,-1
 303 104 l 1,16,-1
 380 300 l 1,17,-1
 467 516 l 1,0,-1
EndSplineSet
EndChar

StartChar: z
Encoding: 122 122 29
Width: 600
GlyphClass: 2
Flags: W
AnchorPoint: "Anchor-2" 300 516 basechar 0
AnchorPoint: "Anchor-0" 300 0 basechar 0
LayerCount: 2
Fore
SplineSet
85 0 m 1,0,-1
 85 77 l 1,1,-1
 418 448 l 1,2,-1
 96 448 l 1,3,-1
 96 516 l 1,4,-1
 505 516 l 1,5,-1
 505 439 l 1,6,-1
 172 68 l 1,7,-1
 515 68 l 1,8,-1
 515 0 l 1,9,-1
 85 0 l 1,0,-1
EndSplineSet
EndChar

StartChar: A
Encoding: 65 65 30
Width: 600
GlyphClass: 2
Flags: W
AnchorPoint: "Anchor-2" 300 698 basechar 0
AnchorPoint: "Anchor-1" 570 0 basechar 0
AnchorPoint: "Anchor-0" 300 0 basechar 0
LayerCount: 2
Fore
SplineSet
481 0 m 1,0,-1
 422 199 l 1,1,-1
 177 199 l 1,2,-1
 118 0 l 1,3,-1
 31 0 l 1,4,-1
 245 698 l 1,5,-1
 356 698 l 1,6,-1
 570 0 l 1,7,-1
 481 0 l 1,0,-1
304 609 m 1,8,-1
 295 609 l 1,9,-1
 197 272 l 1,10,-1
 402 272 l 1,11,-1
 304 609 l 1,8,-1
EndSplineSet
EndChar

StartChar: B
Encoding: 66 66 31
Width: 600
GlyphClass: 2
Flags: W
AnchorPoint: "Anchor-2" 295 698 basechar 0
AnchorPoint: "Anchor-0" 315 0 basechar 0
LayerCount: 2
Fore
SplineSet
88 698 m 1,0,-1
 325 698 l 2,1,2
 415 698 415 698 466 649 c 128,-1,3
 517 600 517 600 517 518 c 0,4,5
 517 455 517 455 486.5 419 c 128,-1,6
 456 383 456 383 408 368 c 1,7,-1
 408 365 l 1,8,9
 467 351 467 351 505 312.5 c 128,-1,10
 543 274 543 274 543 201 c 0,11,12
 543 159 543 159 529 122 c 128,-1,13
 515 85 515 85 489.5 58 c 128,-1,14
 464 31 464 31 429.5 15.5 c 128,-1,15
 395 0 395 0 355 0 c 2,16,-1
 88 0 l 1,17,-1
 88 698 l 1,0,-1
330 73 m 2,18,19
 388 73 388 73 421 99 c 128,-1,20
 454 125 454 125 454 179 c 2,21,-1
 454 220 l 2,22,23
 454 273 454 273 421 299.5 c 128,-1,24
 388 326 388 326 330 326 c 2,25,-1
 172 326 l 1,26,-1
 172 73 l 1,27,-1
 330 73 l 2,18,19
316 395 m 2,28,29
 369 395 369 395 399 418.5 c 128,-1,30
 429 442 429 442 429 490 c 2,31,-1
 429 529 l 2,32,33
 429 577 429 577 399 601 c 128,-1,34
 369 625 369 625 316 625 c 2,35,-1
 172 625 l 1,36,-1
 172 395 l 1,37,-1
 316 395 l 2,28,29
EndSplineSet
EndChar

StartChar: C
Encoding: 67 67 32
Width: 600
GlyphClass: 2
Flags: W
AnchorPoint: "Anchor-2" 328 698 basechar 0
AnchorPoint: "Anchor-0" 308 0 basechar 0
LayerCount: 2
Fore
SplineSet
323 -12 m 0,0,1
 195 -12 195 -12 132.5 81 c 128,-1,2
 70 174 70 174 70 349 c 256,3,4
 70 524 70 524 132.5 617 c 128,-1,5
 195 710 195 710 323 710 c 0,6,7
 371 710 371 710 406 697 c 128,-1,8
 441 684 441 684 466 662 c 128,-1,9
 491 640 491 640 508 612.5 c 128,-1,10
 525 585 525 585 538 557 c 1,11,-1
 466 524 l 1,12,13
 457 547 457 547 445 567.5 c 128,-1,14
 433 588 433 588 416.5 603.5 c 128,-1,15
 400 619 400 619 377.5 628 c 128,-1,16
 355 637 355 637 323 637 c 0,17,18
 240 637 240 637 199.5 574 c 128,-1,19
 159 511 159 511 159 406 c 2,20,-1
 159 292 l 2,21,22
 159 187 159 187 199.5 124 c 128,-1,23
 240 61 240 61 323 61 c 0,24,25
 355 61 355 61 377.5 70 c 128,-1,26
 400 79 400 79 416.5 94.5 c 128,-1,27
 433 110 433 110 445 130.5 c 128,-1,28
 457 151 457 151 466 174 c 1,29,-1
 538 141 l 1,30,31
 525 112 525 112 508 85 c 128,-1,32
 491 58 491 58 466 36 c 128,-1,33
 441 14 441 14 406 1 c 128,-1,34
 371 -12 371 -12 323 -12 c 0,0,1
EndSplineSet
EndChar

StartChar: D
Encoding: 68 68 33
Width: 600
GlyphClass: 2
Flags: W
AnchorPoint: "Anchor-2" 277 698 basechar 0
AnchorPoint: "Anchor-0" 277 0 basechar 0
LayerCount: 2
Fore
SplineSet
95 698 m 1,0,-1
 290 698 l 2,1,2
 418 698 418 698 481 610 c 128,-1,3
 544 522 544 522 544 349 c 256,4,5
 544 176 544 176 481 88 c 128,-1,6
 418 0 418 0 290 0 c 2,7,-1
 95 0 l 1,8,-1
 95 698 l 1,0,-1
286 73 m 2,9,10
 370 73 370 73 412.5 131 c 128,-1,11
 455 189 455 189 455 295 c 2,12,-1
 455 403 l 2,13,14
 455 509 455 509 412.5 567 c 128,-1,15
 370 625 370 625 286 625 c 2,16,-1
 179 625 l 1,17,-1
 179 73 l 1,18,-1
 286 73 l 2,9,10
EndSplineSet
EndChar

StartChar: E
Encoding: 69 69 34
Width: 600
GlyphClass: 2
Flags: W
AnchorPoint: "Anchor-2" 305 698 basechar 0
AnchorPoint: "Anchor-1" 520 0 basechar 0
AnchorPoint: "Anchor-0" 305 0 basechar 0
LayerCount: 2
Fore
SplineSet
90 0 m 1,0,-1
 90 698 l 1,1,-1
 520 698 l 1,2,-1
 520 625 l 1,3,-1
 174 625 l 1,4,-1
 174 390 l 1,5,-1
 508 390 l 1,6,-1
 508 317 l 1,7,-1
 174 317 l 1,8,-1
 174 73 l 1,9,-1
 520 73 l 1,10,-1
 520 0 l 1,11,-1
 90 0 l 1,0,-1
EndSplineSet
EndChar

StartChar: F
Encoding: 70 70 35
Width: 600
GlyphClass: 2
Flags: W
AnchorPoint: "Anchor-2" 310 698 basechar 0
AnchorPoint: "Anchor-0" 132 0 basechar 0
LayerCount: 2
Fore
SplineSet
90 0 m 1,0,-1
 90 698 l 1,1,-1
 530 698 l 1,2,-1
 530 625 l 1,3,-1
 174 625 l 1,4,-1
 174 390 l 1,5,-1
 500 390 l 1,6,-1
 500 317 l 1,7,-1
 174 317 l 1,8,-1
 174 0 l 1,9,-1
 90 0 l 1,0,-1
EndSplineSet
EndChar

StartChar: G
Encoding: 71 71 36
Width: 600
GlyphClass: 2
Flags: W
AnchorPoint: "Anchor-2" 306 698 basechar 0
AnchorPoint: "Anchor-0" 300 0 basechar 0
LayerCount: 2
Fore
SplineSet
444 93 m 1,0,-1
 439 93 l 1,1,2
 430 73 430 73 418 54 c 128,-1,3
 406 35 406 35 387.5 20.5 c 128,-1,4
 369 6 369 6 343 -3 c 128,-1,5
 317 -12 317 -12 281 -12 c 0,6,7
 167 -12 167 -12 111.5 80 c 128,-1,8
 56 172 56 172 56 344 c 0,9,10
 56 524 56 524 117 617 c 128,-1,11
 178 710 178 710 305 710 c 0,12,13
 354 710 354 710 390 697 c 128,-1,14
 426 684 426 684 451.5 662 c 128,-1,15
 477 640 477 640 494 612.5 c 128,-1,16
 511 585 511 585 522 557 c 1,17,-1
 450 524 l 1,18,19
 441 547 441 547 429.5 567.5 c 128,-1,20
 418 588 418 588 401.5 603.5 c 128,-1,21
 385 619 385 619 362 628 c 128,-1,22
 339 637 339 637 308 637 c 0,23,24
 224 637 224 637 184.5 574 c 128,-1,25
 145 511 145 511 145 406 c 2,26,-1
 145 298 l 2,27,28
 145 245 145 245 153 201.5 c 128,-1,29
 161 158 161 158 179.5 126 c 128,-1,30
 198 94 198 94 227.5 76.5 c 128,-1,31
 257 59 257 59 300 59 c 0,32,33
 368 59 368 59 406 100 c 128,-1,34
 444 141 444 141 444 206 c 2,35,-1
 444 278 l 1,36,-1
 297 278 l 1,37,-1
 297 345 l 1,38,-1
 522 345 l 1,39,-1
 522 0 l 1,40,-1
 444 0 l 1,41,-1
 444 93 l 1,0,-1
EndSplineSet
EndChar

StartChar: H
Encoding: 72 72 37
Width: 600
GlyphClass: 2
Flags: W
AnchorPoint: "Anchor-2" 300 698 basechar 0
AnchorPoint: "Anchor-0" 300 0 basechar 0
LayerCount: 2
Fore
SplineSet
436 317 m 1,0,-1
 164 317 l 1,1,-1
 164 0 l 1,2,-1
 80 0 l 1,3,-1
 80 698 l 1,4,-1
 164 698 l 1,5,-1
 164 390 l 1,6,-1
 436 390 l 1,7,-1
 436 698 l 1,8,-1
 520 698 l 1,9,-1
 520 0 l 1,10,-1
 436 0 l 1,11,-1
 436 317 l 1,0,-1
EndSplineSet
EndChar

StartChar: I
Encoding: 73 73 38
Width: 600
GlyphClass: 2
Flags: W
AnchorPoint: "Anchor-2" 300 698 basechar 0
AnchorPoint: "Anchor-1" 516 0 basechar 0
AnchorPoint: "Anchor-0" 300 0 basechar 0
LayerCount: 2
Fore
SplineSet
84 0 m 1,0,-1
 84 67 l 1,1,-1
 258 67 l 1,2,-1
 258 631 l 1,3,-1
 84 631 l 1,4,-1
 84 698 l 1,5,-1
 516 698 l 1,6,-1
 516 631 l 1,7,-1
 342 631 l 1,8,-1
 342 67 l 1,9,-1
 516 67 l 1,10,-1
 516 0 l 1,11,-1
 84 0 l 1,0,-1
EndSplineSet
EndChar

StartChar: J
Encoding: 74 74 39
Width: 600
GlyphClass: 2
Flags: W
AnchorPoint: "Anchor-2" 313 698 basechar 0
AnchorPoint: "Anchor-0" 277 0 basechar 0
LayerCount: 2
Fore
SplineSet
480 698 m 1,0,-1
 480 181 l 2,1,2
 480 137 480 137 465 101 c 128,-1,3
 450 65 450 65 422.5 40 c 128,-1,4
 395 15 395 15 357 1.5 c 128,-1,5
 319 -12 319 -12 274 -12 c 0,6,7
 194 -12 194 -12 142 29.5 c 128,-1,8
 90 71 90 71 74 146 c 1,9,-1
 154 163 l 1,10,11
 159 142 159 142 167.5 123.5 c 128,-1,12
 176 105 176 105 190.5 91.5 c 128,-1,13
 205 78 205 78 226 70 c 128,-1,14
 247 62 247 62 276 62 c 0,15,16
 333 62 333 62 364.5 94.5 c 128,-1,17
 396 127 396 127 396 196 c 2,18,-1
 396 625 l 1,19,-1
 144 625 l 1,20,-1
 144 698 l 1,21,-1
 480 698 l 1,0,-1
EndSplineSet
EndChar

StartChar: K
Encoding: 75 75 40
Width: 600
GlyphClass: 2
Flags: W
AnchorPoint: "Anchor-2" 313 698 basechar 0
AnchorPoint: "Anchor-0" 322 0 basechar 0
LayerCount: 2
Fore
SplineSet
269 342 m 1,0,-1
 169 224 l 1,1,-1
 169 0 l 1,2,-1
 85 0 l 1,3,-1
 85 698 l 1,4,-1
 169 698 l 1,5,-1
 169 334 l 1,6,-1
 172 334 l 1,7,-1
 264 450 l 1,8,-1
 470 698 l 1,9,-1
 571 698 l 1,10,-1
 326 404 l 1,11,-1
 578 0 l 1,12,-1
 480 0 l 1,13,-1
 269 342 l 1,0,-1
EndSplineSet
EndChar

StartChar: L
Encoding: 76 76 41
Width: 600
GlyphClass: 2
Flags: W
AnchorPoint: "Anchor-3" 290 740 basechar 0
AnchorPoint: "Anchor-2" 162 698 basechar 0
AnchorPoint: "Anchor-0" 327 0 basechar 0
LayerCount: 2
Fore
SplineSet
120 0 m 1,0,-1
 120 698 l 1,1,-1
 204 698 l 1,2,-1
 204 73 l 1,3,-1
 535 73 l 1,4,-1
 535 0 l 1,5,-1
 120 0 l 1,0,-1
EndSplineSet
EndChar

StartChar: M
Encoding: 77 77 42
Width: 600
GlyphClass: 2
Flags: W
AnchorPoint: "Anchor-2" 300 698 basechar 0
AnchorPoint: "Anchor-0" 300 0 basechar 0
LayerCount: 2
Fore
SplineSet
455 350 m 1,0,-1
 455 571 l 1,1,-1
 447 571 l 1,2,-1
 300 212 l 1,3,-1
 153 571 l 1,4,-1
 145 571 l 1,5,-1
 145 350 l 1,6,-1
 145 0 l 1,7,-1
 68 0 l 1,8,-1
 68 698 l 1,9,-1
 176 698 l 1,10,-1
 299 390 l 1,11,-1
 305 390 l 1,12,-1
 428 698 l 1,13,-1
 532 698 l 1,14,-1
 532 0 l 1,15,-1
 455 0 l 1,16,-1
 455 350 l 1,0,-1
EndSplineSet
EndChar

StartChar: N
Encoding: 78 78 43
Width: 600
GlyphClass: 2
Flags: W
AnchorPoint: "Anchor-2" 300 698 basechar 0
AnchorPoint: "Anchor-0" 300 0 basechar 0
LayerCount: 2
Fore
SplineSet
163 588 m 1,0,-1
 156 588 l 1,1,-1
 156 0 l 1,2,-1
 80 0 l 1,3,-1
 80 698 l 1,4,-1
 199 698 l 1,5,-1
 437 110 l 1,6,-1
 444 110 l 1,7,-1
 444 698 l 1,8,-1
 520 698 l 1,9,-1
 520 0 l 1,10,-1
 401 0 l 1,11,-1
 163 588 l 1,0,-1
EndSplineSet
EndChar

StartChar: O
Encoding: 79 79 44
Width: 600
GlyphClass: 2
Flags: W
AnchorPoint: "Anchor-2" 300 698 basechar 0
AnchorPoint: "Anchor-0" 300 0 basechar 0
LayerCount: 2
Fore
SplineSet
300 -12 m 256,0,1
 236 -12 236 -12 190 12.5 c 128,-1,2
 144 37 144 37 114 83 c 128,-1,3
 84 129 84 129 70 196 c 128,-1,4
 56 263 56 263 56 349 c 0,5,6
 56 434 56 434 70 501.5 c 128,-1,7
 84 569 84 569 114 615 c 128,-1,8
 144 661 144 661 190 685.5 c 128,-1,9
 236 710 236 710 300 710 c 256,10,11
 364 710 364 710 410 685.5 c 128,-1,12
 456 661 456 661 486 615 c 128,-1,13
 516 569 516 569 530 501.5 c 128,-1,14
 544 434 544 434 544 349 c 0,15,16
 544 263 544 263 530 196 c 128,-1,17
 516 129 516 129 486 83 c 128,-1,18
 456 37 456 37 410 12.5 c 128,-1,19
 364 -12 364 -12 300 -12 c 256,0,1
300 61 m 256,20,21
 342 61 342 61 371 77.5 c 128,-1,22
 400 94 400 94 419 124 c 128,-1,23
 438 154 438 154 446.5 196.5 c 128,-1,24
 455 239 455 239 455 292 c 2,25,-1
 455 406 l 2,26,27
 455 458 455 458 446.5 501 c 128,-1,28
 438 544 438 544 419 574 c 128,-1,29
 400 604 400 604 371 620.5 c 128,-1,30
 342 637 342 637 300 637 c 256,31,32
 258 637 258 637 229 620.5 c 128,-1,33
 200 604 200 604 181 574 c 128,-1,34
 162 544 162 544 153.5 501 c 128,-1,35
 145 458 145 458 145 406 c 2,36,-1
 145 292 l 2,37,38
 145 239 145 239 153.5 196.5 c 128,-1,39
 162 154 162 154 181 124 c 128,-1,40
 200 94 200 94 229 77.5 c 128,-1,41
 258 61 258 61 300 61 c 256,20,21
EndSplineSet
EndChar

StartChar: P
Encoding: 80 80 45
Width: 600
GlyphClass: 2
Flags: W
AnchorPoint: "Anchor-2" 300 698 basechar 0
AnchorPoint: "Anchor-0" 132 0 basechar 0
LayerCount: 2
Fore
SplineSet
90 0 m 1,0,-1
 90 698 l 1,1,-1
 344 698 l 2,2,3
 441 698 441 698 492 645 c 128,-1,4
 543 592 543 592 543 497 c 256,5,6
 543 402 543 402 492 349 c 128,-1,7
 441 296 441 296 344 296 c 2,8,-1
 174 296 l 1,9,-1
 174 0 l 1,10,-1
 90 0 l 1,0,-1
174 369 m 1,11,-1
 342 369 l 2,12,13
 395 369 395 369 424.5 395.5 c 128,-1,14
 454 422 454 422 454 471 c 2,15,-1
 454 523 l 2,16,17
 454 572 454 572 424.5 598.5 c 128,-1,18
 395 625 395 625 342 625 c 2,19,-1
 174 625 l 1,20,-1
 174 369 l 1,11,-1
EndSplineSet
EndChar

StartChar: Q
Encoding: 81 81 46
Width: 600
GlyphClass: 2
Flags: W
AnchorPoint: "Anchor-2" 300 698 basechar 0
LayerCount: 2
Fore
SplineSet
491 -164 m 1,0,-1
 374 -164 l 2,1,2
 315 -164 315 -164 287.5 -131 c 128,-1,3
 260 -98 260 -98 260 -46 c 2,4,-1
 260 -9 l 1,5,6
 207 -2 207 -2 168.5 25.5 c 128,-1,7
 130 53 130 53 105 98.5 c 128,-1,8
 80 144 80 144 68 207.5 c 128,-1,9
 56 271 56 271 56 349 c 0,10,11
 56 434 56 434 70 501.5 c 128,-1,12
 84 569 84 569 114 615 c 128,-1,13
 144 661 144 661 190 685.5 c 128,-1,14
 236 710 236 710 300 710 c 256,15,16
 364 710 364 710 410 685.5 c 128,-1,17
 456 661 456 661 486 615 c 128,-1,18
 516 569 516 569 530 501.5 c 128,-1,19
 544 434 544 434 544 349 c 0,20,21
 544 192 544 192 495 98.5 c 128,-1,22
 446 5 446 5 340 -9 c 1,23,-1
 340 -96 l 1,24,-1
 491 -96 l 1,25,-1
 491 -164 l 1,0,-1
300 61 m 256,26,27
 342 61 342 61 371 77.5 c 128,-1,28
 400 94 400 94 419 124 c 128,-1,29
 438 154 438 154 446.5 196.5 c 128,-1,30
 455 239 455 239 455 292 c 2,31,-1
 455 406 l 2,32,33
 455 458 455 458 446.5 501 c 128,-1,34
 438 544 438 544 419 574 c 128,-1,35
 400 604 400 604 371 620.5 c 128,-1,36
 342 637 342 637 300 637 c 256,37,38
 258 637 258 637 229 620.5 c 128,-1,39
 200 604 200 604 181 574 c 128,-1,40
 162 544 162 544 153.5 501 c 128,-1,41
 145 458 145 458 145 406 c 2,42,-1
 145 292 l 2,43,44
 145 239 145 239 153.5 196.5 c 128,-1,45
 162 154 162 154 181 124 c 128,-1,46
 200 94 200 94 229 77.5 c 128,-1,47
 258 61 258 61 300 61 c 256,26,27
EndSplineSet
EndChar

StartChar: R
Encoding: 82 82 47
Width: 600
GlyphClass: 2
Flags: W
AnchorPoint: "Anchor-2" 308 698 basechar 0
AnchorPoint: "Anchor-0" 308 0 basechar 0
LayerCount: 2
Fore
SplineSet
174 0 m 1,0,-1
 90 0 l 1,1,-1
 90 698 l 1,2,-1
 344 698 l 2,3,4
 441 698 441 698 492 645 c 128,-1,5
 543 592 543 592 543 497 c 0,6,7
 543 412 543 412 499 361 c 128,-1,8
 455 310 455 310 371 302 c 1,9,-1
 549 0 l 1,10,-1
 455 0 l 1,11,-1
 285 298 l 1,12,-1
 174 298 l 1,13,-1
 174 0 l 1,0,-1
342 369 m 2,14,15
 395 369 395 369 424.5 395.5 c 128,-1,16
 454 422 454 422 454 471 c 2,17,-1
 454 523 l 2,18,19
 454 572 454 572 424.5 598.5 c 128,-1,20
 395 625 395 625 342 625 c 2,21,-1
 174 625 l 1,22,-1
 174 369 l 1,23,-1
 342 369 l 2,14,15
EndSplineSet
EndChar

StartChar: S
Encoding: 83 83 48
Width: 600
GlyphClass: 2
Flags: W
AnchorPoint: "Anchor-2" 298 698 basechar 0
AnchorPoint: "Anchor-0" 297 0 basechar 0
LayerCount: 2
Fore
SplineSet
298 -12 m 0,0,1
 204 -12 204 -12 144 22.5 c 128,-1,2
 84 57 84 57 45 111 c 1,3,-1
 106 161 l 1,4,5
 147 110 147 110 192.5 85 c 128,-1,6
 238 60 238 60 301 60 c 0,7,8
 377 60 377 60 417 95 c 128,-1,9
 457 130 457 130 457 193 c 0,10,11
 457 244 457 244 428 272.5 c 128,-1,12
 399 301 399 301 327 313 c 2,13,-1
 249 326 l 2,14,15
 198 335 198 335 163.5 353 c 128,-1,16
 129 371 129 371 108 396.5 c 128,-1,17
 87 422 87 422 78 452.5 c 128,-1,18
 69 483 69 483 69 516 c 0,19,20
 69 612 69 612 132 661 c 128,-1,21
 195 710 195 710 302 710 c 0,22,23
 386 710 386 710 443.5 682 c 128,-1,24
 501 654 501 654 536 603 c 1,25,-1
 477 552 l 1,26,27
 448 590 448 590 407 614 c 128,-1,28
 366 638 366 638 301 638 c 0,29,30
 230 638 230 638 192 608 c 128,-1,31
 154 578 154 578 154 518 c 0,32,33
 154 471 154 471 182.5 441.5 c 128,-1,34
 211 412 211 412 285 399 c 2,35,-1
 360 386 l 2,36,37
 411 377 411 377 446 359 c 128,-1,38
 481 341 481 341 502.5 316 c 128,-1,39
 524 291 524 291 533 260 c 128,-1,40
 542 229 542 229 542 195 c 0,41,42
 542 98 542 98 478.5 43 c 128,-1,43
 415 -12 415 -12 298 -12 c 0,0,1
EndSplineSet
EndChar

StartChar: T
Encoding: 84 84 49
Width: 600
GlyphClass: 2
Flags: W
AnchorPoint: "Anchor-2" 300 698 basechar 0
AnchorPoint: "Anchor-0" 300 0 basechar 0
LayerCount: 2
Fore
SplineSet
342 625 m 1,0,-1
 342 0 l 1,1,-1
 258 0 l 1,2,-1
 258 625 l 1,3,-1
 25 625 l 1,4,-1
 25 698 l 1,5,-1
 575 698 l 1,6,-1
 575 625 l 1,7,-1
 342 625 l 1,0,-1
EndSplineSet
EndChar

StartChar: U
Encoding: 85 85 50
Width: 600
GlyphClass: 2
Flags: W
AnchorPoint: "Anchor-2" 300 698 basechar 0
AnchorPoint: "Anchor-1" 394 0 basechar 0
AnchorPoint: "Anchor-0" 300 0 basechar 0
LayerCount: 2
Fore
SplineSet
164 698 m 1,0,-1
 164 279 l 2,1,2
 164 228 164 228 167 188 c 128,-1,3
 170 148 170 148 183 119.5 c 128,-1,4
 196 91 196 91 223.5 76 c 128,-1,5
 251 61 251 61 300 61 c 256,6,7
 349 61 349 61 376.5 76 c 128,-1,8
 404 91 404 91 417 119.5 c 128,-1,9
 430 148 430 148 433 188 c 128,-1,10
 436 228 436 228 436 279 c 2,11,-1
 436 698 l 1,12,-1
 520 698 l 1,13,-1
 520 299 l 2,14,15
 520 221 520 221 512.5 163 c 128,-1,16
 505 105 505 105 481.5 66 c 128,-1,17
 458 27 458 27 414.5 7.5 c 128,-1,18
 371 -12 371 -12 300 -12 c 256,19,20
 229 -12 229 -12 185.5 7.5 c 128,-1,21
 142 27 142 27 118.5 66 c 128,-1,22
 95 105 95 105 87.5 163 c 128,-1,23
 80 221 80 221 80 299 c 2,24,-1
 80 698 l 1,25,-1
 164 698 l 1,0,-1
EndSplineSet
EndChar

StartChar: V
Encoding: 86 86 51
Width: 600
GlyphClass: 2
Flags: W
AnchorPoint: "Anchor-2" 300 698 basechar 0
AnchorPoint: "Anchor-0" 300 0 basechar 0
LayerCount: 2
Fore
SplineSet
243 0 m 1,0,-1
 36 698 l 1,1,-1
 125 698 l 1,2,-1
 224 349 l 1,3,-1
 299 85 l 1,4,-1
 304 85 l 1,5,-1
 379 349 l 1,6,-1
 478 698 l 1,7,-1
 564 698 l 1,8,-1
 357 0 l 1,9,-1
 243 0 l 1,0,-1
EndSplineSet
EndChar

StartChar: W
Encoding: 87 87 52
Width: 600
GlyphClass: 2
Flags: W
AnchorPoint: "Anchor-2" 300 698 basechar 0
AnchorPoint: "Anchor-0" 300 0 basechar 0
LayerCount: 2
Fore
SplineSet
90 0 m 1,0,-1
 35 698 l 1,1,-1
 110 698 l 1,2,-1
 139 298 l 1,3,-1
 154 87 l 1,4,-1
 162 87 l 1,5,-1
 254 516 l 1,6,-1
 348 516 l 1,7,-1
 440 87 l 1,8,-1
 448 87 l 1,9,-1
 463 298 l 1,10,-1
 492 698 l 1,11,-1
 565 698 l 1,12,-1
 510 0 l 1,13,-1
 389 0 l 1,14,-1
 304 417 l 1,15,-1
 296 417 l 1,16,-1
 211 0 l 1,17,-1
 90 0 l 1,0,-1
EndSplineSet
EndChar

StartChar: X
Encoding: 88 88 53
Width: 600
GlyphClass: 2
Flags: W
AnchorPoint: "Anchor-2" 300 698 basechar 0
AnchorPoint: "Anchor-0" 300 0 basechar 0
LayerCount: 2
Fore
SplineSet
575 0 m 1,0,-1
 480 0 l 1,1,-1
 397 139 l 1,2,-1
 305 291 l 1,3,-1
 301 291 l 1,4,-1
 206 139 l 1,5,-1
 118 0 l 1,6,-1
 26 0 l 1,7,-1
 254 356 l 1,8,-1
 39 698 l 1,9,-1
 134 698 l 1,10,-1
 215 563 l 1,11,-1
 302 422 l 1,12,-1
 306 422 l 1,13,-1
 392 563 l 1,14,-1
 476 698 l 1,15,-1
 568 698 l 1,16,-1
 352 357 l 1,17,-1
 575 0 l 1,0,-1
EndSplineSet
EndChar

StartChar: Y
Encoding: 89 89 54
Width: 600
GlyphClass: 2
Flags: W
AnchorPoint: "Anchor-2" 300 698 basechar 0
AnchorPoint: "Anchor-0" 300 0 basechar 0
LayerCount: 2
Fore
SplineSet
258 0 m 1,0,-1
 258 274 l 1,1,-1
 17 698 l 1,2,-1
 113 698 l 1,3,-1
 213 516 l 1,4,-1
 298 357 l 1,5,-1
 302 357 l 1,6,-1
 389 516 l 1,7,-1
 489 698 l 1,8,-1
 583 698 l 1,9,-1
 342 274 l 1,10,-1
 342 0 l 1,11,-1
 258 0 l 1,0,-1
EndSplineSet
EndChar

StartChar: Z
Encoding: 90 90 55
Width: 600
GlyphClass: 2
Flags: W
AnchorPoint: "Anchor-2" 300 698 basechar 0
AnchorPoint: "Anchor-0" 300 0 basechar 0
LayerCount: 2
Fore
SplineSet
552 0 m 1,0,-1
 48 0 l 1,1,-1
 48 75 l 1,2,-1
 443 625 l 1,3,-1
 65 625 l 1,4,-1
 65 698 l 1,5,-1
 535 698 l 1,6,-1
 535 623 l 1,7,-1
 139 73 l 1,8,-1
 552 73 l 1,9,-1
 552 0 l 1,0,-1
EndSplineSet
EndChar

StartChar: zero
Encoding: 48 48 56
Width: 600
GlyphClass: 1
Flags: W
LayerCount: 2
Fore
SplineSet
300 -12 m 256,0,1
 236 -12 236 -12 190 12.5 c 128,-1,2
 144 37 144 37 114 83 c 128,-1,3
 84 129 84 129 70 196 c 128,-1,4
 56 263 56 263 56 349 c 0,5,6
 56 434 56 434 70 501.5 c 128,-1,7
 84 569 84 569 114 615 c 128,-1,8
 144 661 144 661 190 685.5 c 128,-1,9
 236 710 236 710 300 710 c 256,10,11
 364 710 364 710 410 685.5 c 128,-1,12
 456 661 456 661 486 615 c 128,-1,13
 516 569 516 569 530 501.5 c 128,-1,14
 544 434 544 434 544 349 c 0,15,16
 544 263 544 263 530 196 c 128,-1,17
 516 129 516 129 486 83 c 128,-1,18
 456 37 456 37 410 12.5 c 128,-1,19
 364 -12 364 -12 300 -12 c 256,0,1
300 61 m 256,20,21
 342 61 342 61 372 77.5 c 128,-1,22
 402 94 402 94 420.5 124 c 128,-1,23
 439 154 439 154 448 196.5 c 128,-1,24
 457 239 457 239 457 292 c 2,25,-1
 457 406 l 2,26,27
 457 458 457 458 448 501 c 128,-1,28
 439 544 439 544 420.5 574 c 128,-1,29
 402 604 402 604 372 620.5 c 128,-1,30
 342 637 342 637 300 637 c 256,31,32
 258 637 258 637 228 620.5 c 128,-1,33
 198 604 198 604 179.5 574 c 128,-1,34
 161 544 161 544 152 501 c 128,-1,35
 143 458 143 458 143 406 c 2,36,-1
 143 292 l 2,37,38
 143 239 143 239 152 196.5 c 128,-1,39
 161 154 161 154 179.5 124 c 128,-1,40
 198 94 198 94 228 77.5 c 128,-1,41
 258 61 258 61 300 61 c 256,20,21
300 290 m 256,42,43
 265 290 265 290 251.5 304 c 128,-1,44
 238 318 238 318 238 338 c 2,45,-1
 238 360 l 2,46,47
 238 380 238 380 251.5 394 c 128,-1,48
 265 408 265 408 300 408 c 256,49,50
 335 408 335 408 348.5 394 c 128,-1,51
 362 380 362 380 362 360 c 2,52,-1
 362 338 l 2,53,54
 362 318 362 318 348.5 304 c 128,-1,55
 335 290 335 290 300 290 c 256,42,43
EndSplineSet
Substitution2: "'salt' Stylistic Alternatives lookup 16 subtable" zero.alt02
Substitution2: "'ss04' Style Set 4 lookup 14 subtable" zero.alt02
Substitution2: "'ss03' Style Set 3 lookup 13 subtable" zero.alt01
Substitution2: "'zero' Slashed Zero lookup 10 subtable" zero.alt01
Substitution2: "'sinf' Scientific Inferiors lookup 9 subtable" uni2080
Substitution2: "'sups' Superscript lookup 8 subtable" uni2070
Substitution2: "'dnom' Denominators lookup 7 subtable" zero.dnom
Substitution2: "'numr' Numerators lookup 6 subtable" zero.numr
AlternateSubs2: "'aalt' Access All Alternates lookup 1 subtable" zero.alt01 zero.alt02 zero.numr zero.dnom
EndChar

StartChar: zero.alt01
Encoding: 65540 -1 57
Width: 600
GlyphClass: 1
Flags: W
LayerCount: 2
Fore
SplineSet
300 -12 m 256,0,1
 236 -12 236 -12 190 12.5 c 128,-1,2
 144 37 144 37 114 83 c 128,-1,3
 84 129 84 129 70 196 c 128,-1,4
 56 263 56 263 56 349 c 0,5,6
 56 434 56 434 70 501.5 c 128,-1,7
 84 569 84 569 114 615 c 128,-1,8
 144 661 144 661 190 685.5 c 128,-1,9
 236 710 236 710 300 710 c 256,10,11
 364 710 364 710 410 685.5 c 128,-1,12
 456 661 456 661 486 615 c 128,-1,13
 516 569 516 569 530 501.5 c 128,-1,14
 544 434 544 434 544 349 c 0,15,16
 544 263 544 263 530 196 c 128,-1,17
 516 129 516 129 486 83 c 128,-1,18
 456 37 456 37 410 12.5 c 128,-1,19
 364 -12 364 -12 300 -12 c 256,0,1
300 637 m 0,20,21
 258 637 258 637 228 620.5 c 128,-1,22
 198 604 198 604 179.5 574 c 128,-1,23
 161 544 161 544 152 501 c 128,-1,24
 143 458 143 458 143 406 c 2,25,-1
 143 292 l 2,26,27
 143 275 143 275 144 258.5 c 128,-1,28
 145 242 145 242 147 227 c 1,29,-1
 436 543 l 1,30,31
 419 588 419 588 385.5 612.5 c 128,-1,32
 352 637 352 637 300 637 c 0,20,21
300 61 m 0,33,34
 342 61 342 61 372 77.5 c 128,-1,35
 402 94 402 94 420.5 124 c 128,-1,36
 439 154 439 154 448 196.5 c 128,-1,37
 457 239 457 239 457 292 c 2,38,-1
 457 406 l 2,39,40
 457 423 457 423 456 439.5 c 128,-1,41
 455 456 455 456 453 471 c 1,42,-1
 164 155 l 1,43,44
 181 110 181 110 214.5 85.5 c 128,-1,45
 248 61 248 61 300 61 c 0,33,34
EndSplineSet
EndChar

StartChar: one
Encoding: 49 49 59
Width: 600
GlyphClass: 1
Flags: W
LayerCount: 2
Fore
SplineSet
85 0 m 1,0,-1
 85 73 l 1,1,-1
 285 73 l 1,2,-1
 285 636 l 1,3,-1
 278 636 l 1,4,-1
 102 472 l 1,5,-1
 53 525 l 1,6,-1
 238 698 l 1,7,-1
 369 698 l 1,8,-1
 369 73 l 1,9,-1
 553 73 l 1,10,-1
 553 0 l 1,11,-1
 85 0 l 1,0,-1
EndSplineSet
Substitution2: "'sinf' Scientific Inferiors lookup 9 subtable" uni2081
Substitution2: "'sups' Superscript lookup 8 subtable" onesuperior
Substitution2: "'dnom' Denominators lookup 7 subtable" one.dnom
Substitution2: "'numr' Numerators lookup 6 subtable" one.numr
AlternateSubs2: "'aalt' Access All Alternates lookup 1 subtable" one.numr one.dnom
EndChar

StartChar: two
Encoding: 50 50 60
Width: 600
GlyphClass: 1
Flags: W
LayerCount: 2
Fore
SplineSet
537 0 m 1,0,-1
 71 0 l 1,1,-1
 71 86 l 1,2,-1
 304 296 l 2,3,4
 355 342 355 342 388 390.5 c 128,-1,5
 421 439 421 439 421 493 c 2,6,-1
 421 505 l 2,7,8
 421 568 421 568 388 602.5 c 128,-1,9
 355 637 355 637 290 637 c 0,10,11
 226 637 226 637 191.5 604.5 c 128,-1,12
 157 572 157 572 140 518 c 1,13,-1
 65 546 l 1,14,15
 75 577 75 577 92.5 606.5 c 128,-1,16
 110 636 110 636 137 659 c 128,-1,17
 164 682 164 682 202.5 696 c 128,-1,18
 241 710 241 710 292 710 c 0,19,20
 344 710 344 710 384.5 695 c 128,-1,21
 425 680 425 680 452.5 653 c 128,-1,22
 480 626 480 626 494.5 589 c 128,-1,23
 509 552 509 552 509 508 c 0,24,25
 509 468 509 468 497.5 433 c 128,-1,26
 486 398 486 398 465.5 366 c 128,-1,27
 445 334 445 334 416.5 303.5 c 128,-1,28
 388 273 388 273 353 243 c 2,29,-1
 158 73 l 1,30,-1
 537 73 l 1,31,-1
 537 0 l 1,0,-1
EndSplineSet
Substitution2: "'sinf' Scientific Inferiors lookup 9 subtable" uni2082
Substitution2: "'sups' Superscript lookup 8 subtable" twosuperior
Substitution2: "'dnom' Denominators lookup 7 subtable" two.dnom
Substitution2: "'numr' Numerators lookup 6 subtable" two.numr
AlternateSubs2: "'aalt' Access All Alternates lookup 1 subtable" two.numr two.dnom
EndChar

StartChar: three
Encoding: 51 51 61
Width: 600
GlyphClass: 1
Flags: W
LayerCount: 2
Fore
SplineSet
270 402 m 2,0,1
 343 402 343 402 379.5 434.5 c 128,-1,2
 416 467 416 467 416 518 c 2,3,-1
 416 525 l 2,4,5
 416 581 416 581 380.5 609 c 128,-1,6
 345 637 345 637 288 637 c 0,7,8
 232 637 232 637 197.5 612.5 c 128,-1,9
 163 588 163 588 141 548 c 1,10,-1
 78 596 l 1,11,12
 91 617 91 617 110 637.5 c 128,-1,13
 129 658 129 658 154.5 674 c 128,-1,14
 180 690 180 690 213.5 700 c 128,-1,15
 247 710 247 710 290 710 c 0,16,17
 335 710 335 710 374 698.5 c 128,-1,18
 413 687 413 687 442 664.5 c 128,-1,19
 471 642 471 642 487.5 609 c 128,-1,20
 504 576 504 576 504 534 c 0,21,22
 504 500 504 500 493.5 473 c 128,-1,23
 483 446 483 446 464.5 426 c 128,-1,24
 446 406 446 406 421 392 c 128,-1,25
 396 378 396 378 368 371 c 1,26,-1
 368 367 l 1,27,28
 397 361 397 361 424 347.5 c 128,-1,29
 451 334 451 334 472 312.5 c 128,-1,30
 493 291 493 291 505.5 260.5 c 128,-1,31
 518 230 518 230 518 191 c 0,32,33
 518 146 518 146 500.5 108.5 c 128,-1,34
 483 71 483 71 451.5 44.5 c 128,-1,35
 420 18 420 18 375.5 3 c 128,-1,36
 331 -12 331 -12 277 -12 c 0,37,38
 231 -12 231 -12 195.5 -2 c 128,-1,39
 160 8 160 8 132.5 25 c 128,-1,40
 105 42 105 42 84.5 63 c 128,-1,41
 64 84 64 84 48 107 c 1,42,-1
 111 155 l 1,43,44
 125 134 125 134 140 117 c 128,-1,45
 155 100 155 100 174.5 87.5 c 128,-1,46
 194 75 194 75 219 68 c 128,-1,47
 244 61 244 61 277 61 c 0,48,49
 351 61 351 61 390.5 95 c 128,-1,50
 430 129 430 129 430 192 c 2,51,-1
 430 200 l 2,52,53
 430 262 430 262 391.5 296 c 128,-1,54
 353 330 353 330 276 330 c 2,55,-1
 193 330 l 1,56,-1
 193 402 l 1,57,-1
 270 402 l 2,0,1
EndSplineSet
Substitution2: "'sinf' Scientific Inferiors lookup 9 subtable" uni2083
Substitution2: "'sups' Superscript lookup 8 subtable" threesuperior
Substitution2: "'dnom' Denominators lookup 7 subtable" three.dnom
Substitution2: "'numr' Numerators lookup 6 subtable" three.numr
AlternateSubs2: "'aalt' Access All Alternates lookup 1 subtable" three.numr three.dnom
EndChar

StartChar: four
Encoding: 52 52 62
Width: 600
GlyphClass: 1
Flags: W
LayerCount: 2
Fore
SplineSet
378 0 m 1,0,-1
 378 137 l 1,1,-1
 34 137 l 1,2,-1
 34 211 l 1,3,-1
 336 698 l 1,4,-1
 458 698 l 1,5,-1
 458 206 l 1,6,-1
 562 206 l 1,7,-1
 562 137 l 1,8,-1
 458 137 l 1,9,-1
 458 0 l 1,10,-1
 378 0 l 1,0,-1
109 206 m 1,11,-1
 378 206 l 1,12,-1
 378 633 l 1,13,-1
 374 633 l 1,14,-1
 109 206 l 1,11,-1
EndSplineSet
Substitution2: "'sinf' Scientific Inferiors lookup 9 subtable" uni2084
Substitution2: "'sups' Superscript lookup 8 subtable" uni2074
Substitution2: "'dnom' Denominators lookup 7 subtable" four.dnom
Substitution2: "'numr' Numerators lookup 6 subtable" four.numr
AlternateSubs2: "'aalt' Access All Alternates lookup 1 subtable" four.numr four.dnom
EndChar

StartChar: five
Encoding: 53 53 63
Width: 600
GlyphClass: 1
Flags: W
LayerCount: 2
Fore
SplineSet
501 625 m 1,0,-1
 189 625 l 1,1,-1
 169 358 l 1,2,-1
 176 358 l 1,3,4
 202 393 202 393 234 413.5 c 128,-1,5
 266 434 266 434 322 434 c 0,6,7
 368 434 368 434 406.5 419.5 c 128,-1,8
 445 405 445 405 473 377 c 128,-1,9
 501 349 501 349 517 309.5 c 128,-1,10
 533 270 533 270 533 219 c 256,11,12
 533 168 533 168 517 125.5 c 128,-1,13
 501 83 501 83 470 52.5 c 128,-1,14
 439 22 439 22 395 5 c 128,-1,15
 351 -12 351 -12 295 -12 c 0,16,17
 251 -12 251 -12 216.5 -2 c 128,-1,18
 182 8 182 8 155.5 25 c 128,-1,19
 129 42 129 42 109 63 c 128,-1,20
 89 84 89 84 73 107 c 1,21,-1
 136 155 l 1,22,23
 150 134 150 134 164.5 117 c 128,-1,24
 179 100 179 100 198 87.5 c 128,-1,25
 217 75 217 75 241 68 c 128,-1,26
 265 61 265 61 297 61 c 0,27,28
 369 61 369 61 407.5 100 c 128,-1,29
 446 139 446 139 446 208 c 2,30,-1
 446 216 l 2,31,32
 446 285 446 285 407 324 c 128,-1,33
 368 363 368 363 295 363 c 0,34,35
 245 363 245 363 217.5 346 c 128,-1,36
 190 329 190 329 167 304 c 1,37,-1
 96 314 l 1,38,-1
 121 698 l 1,39,-1
 501 698 l 1,40,-1
 501 625 l 1,0,-1
EndSplineSet
Substitution2: "'sinf' Scientific Inferiors lookup 9 subtable" uni2085
Substitution2: "'sups' Superscript lookup 8 subtable" uni2075
Substitution2: "'dnom' Denominators lookup 7 subtable" five.dnom
Substitution2: "'numr' Numerators lookup 6 subtable" five.numr
AlternateSubs2: "'aalt' Access All Alternates lookup 1 subtable" five.numr five.dnom
EndChar

StartChar: six
Encoding: 54 54 64
Width: 600
GlyphClass: 1
Flags: W
LayerCount: 2
Fore
SplineSet
301 -12 m 0,0,1
 246 -12 246 -12 202 6.5 c 128,-1,2
 158 25 158 25 127.5 59.5 c 128,-1,3
 97 94 97 94 80.5 144 c 128,-1,4
 64 194 64 194 64 256 c 0,5,6
 64 334 64 334 87.5 402.5 c 128,-1,7
 111 471 111 471 147.5 527.5 c 128,-1,8
 184 584 184 584 229 627.5 c 128,-1,9
 274 671 274 671 317 698 c 1,10,-1
 425 698 l 1,11,12
 368 657 368 657 323.5 618 c 128,-1,13
 279 579 279 579 245 536.5 c 128,-1,14
 211 494 211 494 188 445.5 c 128,-1,15
 165 397 165 397 150 336 c 1,16,-1
 155 334 l 1,17,18
 180 377 180 377 221 405.5 c 128,-1,19
 262 434 262 434 327 434 c 0,20,21
 373 434 373 434 411 419 c 128,-1,22
 449 404 449 404 477 376 c 128,-1,23
 505 348 505 348 520.5 308 c 128,-1,24
 536 268 536 268 536 219 c 0,25,26
 536 168 536 168 519 125.5 c 128,-1,27
 502 83 502 83 471.5 52.5 c 128,-1,28
 441 22 441 22 397.5 5 c 128,-1,29
 354 -12 354 -12 301 -12 c 0,0,1
300 59 m 256,30,31
 372 59 372 59 411.5 98 c 128,-1,32
 451 137 451 137 451 208 c 2,33,-1
 451 216 l 2,34,35
 451 287 451 287 411.5 326 c 128,-1,36
 372 365 372 365 300 365 c 256,37,38
 228 365 228 365 188.5 326 c 128,-1,39
 149 287 149 287 149 216 c 2,40,-1
 149 208 l 2,41,42
 149 137 149 137 188.5 98 c 128,-1,43
 228 59 228 59 300 59 c 256,30,31
EndSplineSet
Substitution2: "'sinf' Scientific Inferiors lookup 9 subtable" uni2086
Substitution2: "'sups' Superscript lookup 8 subtable" uni2076
Substitution2: "'dnom' Denominators lookup 7 subtable" six.dnom
Substitution2: "'numr' Numerators lookup 6 subtable" six.numr
AlternateSubs2: "'aalt' Access All Alternates lookup 1 subtable" six.numr six.dnom
EndChar

StartChar: seven
Encoding: 55 55 65
Width: 600
GlyphClass: 1
Flags: W
LayerCount: 2
Fore
SplineSet
173 0 m 1,0,-1
 446 626 l 1,1,-1
 140 626 l 1,2,-1
 140 496 l 1,3,-1
 65 496 l 1,4,-1
 65 698 l 1,5,-1
 531 698 l 1,6,-1
 531 624 l 1,7,-1
 263 0 l 1,8,-1
 173 0 l 1,0,-1
EndSplineSet
Substitution2: "'sinf' Scientific Inferiors lookup 9 subtable" uni2087
Substitution2: "'sups' Superscript lookup 8 subtable" uni2077
Substitution2: "'dnom' Denominators lookup 7 subtable" seven.dnom
Substitution2: "'numr' Numerators lookup 6 subtable" seven.numr
AlternateSubs2: "'aalt' Access All Alternates lookup 1 subtable" seven.numr seven.dnom
EndChar

StartChar: eight
Encoding: 56 56 66
Width: 600
GlyphClass: 1
Flags: W
LayerCount: 2
Fore
SplineSet
300 -12 m 256,0,1
 239 -12 239 -12 193 3.5 c 128,-1,2
 147 19 147 19 116.5 46 c 128,-1,3
 86 73 86 73 70.5 110 c 128,-1,4
 55 147 55 147 55 190 c 0,5,6
 55 262 55 262 94 304 c 128,-1,7
 133 346 133 346 197 363 c 1,8,-1
 197 371 l 1,9,10
 141 390 141 390 108.5 432.5 c 128,-1,11
 76 475 76 475 76 535 c 0,12,13
 76 615 76 615 135 662.5 c 128,-1,14
 194 710 194 710 300 710 c 256,15,16
 406 710 406 710 465 662.5 c 128,-1,17
 524 615 524 615 524 535 c 0,18,19
 524 475 524 475 491.5 432.5 c 128,-1,20
 459 390 459 390 403 371 c 1,21,-1
 403 363 l 1,22,23
 467 346 467 346 506 304 c 128,-1,24
 545 262 545 262 545 190 c 0,25,26
 545 147 545 147 529.5 110 c 128,-1,27
 514 73 514 73 483 46 c 128,-1,28
 452 19 452 19 406.5 3.5 c 128,-1,29
 361 -12 361 -12 300 -12 c 256,0,1
300 59 m 256,30,31
 374 59 374 59 416 92 c 128,-1,32
 458 125 458 125 458 185 c 2,33,-1
 458 207 l 2,34,35
 458 267 458 267 416.5 300 c 128,-1,36
 375 333 375 333 300 333 c 256,37,38
 225 333 225 333 183.5 300 c 128,-1,39
 142 267 142 267 142 207 c 2,40,-1
 142 185 l 2,41,42
 142 125 142 125 184 92 c 128,-1,43
 226 59 226 59 300 59 c 256,30,31
300 401 m 256,44,45
 368 401 368 401 403.5 430 c 128,-1,46
 439 459 439 459 439 513 c 2,47,-1
 439 527 l 2,48,49
 439 581 439 581 402.5 610 c 128,-1,50
 366 639 366 639 300 639 c 256,51,52
 234 639 234 639 197.5 610 c 128,-1,53
 161 581 161 581 161 527 c 2,54,-1
 161 513 l 2,55,56
 161 459 161 459 196.5 430 c 128,-1,57
 232 401 232 401 300 401 c 256,44,45
EndSplineSet
Substitution2: "'sinf' Scientific Inferiors lookup 9 subtable" uni2088
Substitution2: "'sups' Superscript lookup 8 subtable" uni2078
Substitution2: "'dnom' Denominators lookup 7 subtable" eight.dnom
Substitution2: "'numr' Numerators lookup 6 subtable" eight.numr
AlternateSubs2: "'aalt' Access All Alternates lookup 1 subtable" eight.numr eight.dnom
EndChar

StartChar: nine
Encoding: 57 57 67
Width: 600
GlyphClass: 1
Flags: W
LayerCount: 2
Fore
SplineSet
536 442 m 0,0,1
 536 364 536 364 512.5 295.5 c 128,-1,2
 489 227 489 227 452 170.5 c 128,-1,3
 415 114 415 114 370.5 70.5 c 128,-1,4
 326 27 326 27 283 0 c 1,5,-1
 175 0 l 1,6,7
 232 41 232 41 276.5 80 c 128,-1,8
 321 119 321 119 355 161.5 c 128,-1,9
 389 204 389 204 412 252.5 c 128,-1,10
 435 301 435 301 450 362 c 1,11,-1
 445 364 l 1,12,13
 419 321 419 321 378.5 292.5 c 128,-1,14
 338 264 338 264 273 264 c 0,15,16
 227 264 227 264 188.5 279 c 128,-1,17
 150 294 150 294 122.5 322 c 128,-1,18
 95 350 95 350 79.5 389.5 c 128,-1,19
 64 429 64 429 64 479 c 0,20,21
 64 530 64 530 80.5 572.5 c 128,-1,22
 97 615 97 615 128 645.5 c 128,-1,23
 159 676 159 676 202.5 693 c 128,-1,24
 246 710 246 710 299 710 c 0,25,26
 354 710 354 710 398 691.5 c 128,-1,27
 442 673 442 673 472.5 638.5 c 128,-1,28
 503 604 503 604 519.5 554 c 128,-1,29
 536 504 536 504 536 442 c 0,0,1
300 333 m 256,30,31
 372 333 372 333 411.5 372 c 128,-1,32
 451 411 451 411 451 482 c 2,33,-1
 451 490 l 2,34,35
 451 561 451 561 411.5 600 c 128,-1,36
 372 639 372 639 300 639 c 256,37,38
 228 639 228 639 188.5 600 c 128,-1,39
 149 561 149 561 149 490 c 2,40,-1
 149 482 l 2,41,42
 149 411 149 411 188.5 372 c 128,-1,43
 228 333 228 333 300 333 c 256,30,31
EndSplineSet
Substitution2: "'sinf' Scientific Inferiors lookup 9 subtable" uni2089
Substitution2: "'sups' Superscript lookup 8 subtable" uni2079
Substitution2: "'dnom' Denominators lookup 7 subtable" nine.dnom
Substitution2: "'numr' Numerators lookup 6 subtable" nine.numr
AlternateSubs2: "'aalt' Access All Alternates lookup 1 subtable" nine.numr nine.dnom
EndChar

StartChar: ampersand
Encoding: 38 38 68
Width: 600
GlyphClass: 1
Flags: W
LayerCount: 2
Fore
SplineSet
217 -12 m 0,0,1
 171 -12 171 -12 135.5 3 c 128,-1,2
 100 18 100 18 75.5 44.5 c 128,-1,3
 51 71 51 71 38 106 c 128,-1,4
 25 141 25 141 25 181 c 0,5,6
 25 207 25 207 31 235 c 128,-1,7
 37 263 37 263 52 289.5 c 128,-1,8
 67 316 67 316 91.5 340.5 c 128,-1,9
 116 365 116 365 154 384 c 1,10,11
 126 420 126 420 107.5 458 c 128,-1,12
 89 496 89 496 89 541 c 0,13,14
 89 579 89 579 103.5 610 c 128,-1,15
 118 641 118 641 142.5 663.5 c 128,-1,16
 167 686 167 686 200 698 c 128,-1,17
 233 710 233 710 270 710 c 0,18,19
 303 710 303 710 330.5 700.5 c 128,-1,20
 358 691 358 691 379 676 c 128,-1,21
 400 661 400 661 414.5 642 c 128,-1,22
 429 623 429 623 436 604 c 1,23,-1
 370 570 l 1,24,25
 357 601 357 601 331 621.5 c 128,-1,26
 305 642 305 642 266 642 c 0,27,28
 221 642 221 642 194.5 614.5 c 128,-1,29
 168 587 168 587 168 544 c 2,30,-1
 168 536 l 2,31,32
 168 520 168 520 172 505 c 128,-1,33
 176 490 176 490 184.5 473.5 c 128,-1,34
 193 457 193 457 206.5 438 c 128,-1,35
 220 419 220 419 239 395 c 2,36,-1
 329 284 l 1,37,-1
 402 194 l 1,38,-1
 407 194 l 1,39,40
 414 233 414 233 416 283 c 128,-1,41
 418 333 418 333 420 381 c 1,42,-1
 561 381 l 1,43,-1
 561 314 l 1,44,-1
 486 314 l 1,45,46
 483 290 483 290 480 269 c 128,-1,47
 477 248 477 248 473 228 c 128,-1,48
 469 208 469 208 464 187.5 c 128,-1,49
 459 167 459 167 450 144 c 1,50,-1
 572 0 l 1,51,-1
 477 0 l 1,52,-1
 390 103 l 1,53,-1
 385 103 l 1,54,55
 371 51 371 51 328 19.5 c 128,-1,56
 285 -12 285 -12 217 -12 c 0,0,1
238 59 m 0,57,58
 281 59 281 59 314 77 c 128,-1,59
 347 95 347 95 366 127 c 1,60,-1
 192 337 l 1,61,62
 146 308 146 308 127 271.5 c 128,-1,63
 108 235 108 235 108 192 c 2,64,-1
 108 177 l 2,65,66
 108 123 108 123 144 91 c 128,-1,67
 180 59 180 59 238 59 c 0,57,58
EndSplineSet
EndChar

StartChar: at
Encoding: 64 64 69
Width: 600
GlyphClass: 1
Flags: W
LayerCount: 2
Fore
SplineSet
454 -112 m 1,0,-1
 331 -112 l 2,1,2
 255 -112 255 -112 203.5 -86.5 c 128,-1,3
 152 -61 152 -61 120.5 -9.5 c 128,-1,4
 89 42 89 42 75.5 119 c 128,-1,5
 62 196 62 196 62 300 c 0,6,7
 62 416 62 416 77.5 494.5 c 128,-1,8
 93 573 93 573 123 621 c 128,-1,9
 153 669 153 669 197.5 689.5 c 128,-1,10
 242 710 242 710 301 710 c 0,11,12
 361 710 361 710 403.5 691 c 128,-1,13
 446 672 446 672 473 639 c 128,-1,14
 500 606 500 606 512.5 560.5 c 128,-1,15
 525 515 525 515 525 463 c 2,16,-1
 525 91 l 1,17,-1
 454 91 l 1,18,-1
 454 148 l 1,19,-1
 449 148 l 1,20,21
 439 122 439 122 416 100.5 c 128,-1,22
 393 79 393 79 349 79 c 0,23,24
 288 79 288 79 252 130.5 c 128,-1,25
 216 182 216 182 216 293 c 256,26,27
 216 404 216 404 252 456 c 128,-1,28
 288 508 288 508 349 508 c 0,29,30
 371 508 371 508 387.5 502 c 128,-1,31
 404 496 404 496 416 486 c 128,-1,32
 428 476 428 476 436 464 c 128,-1,33
 444 452 444 452 449 439 c 1,34,-1
 454 439 l 1,35,-1
 454 463 l 2,36,37
 454 548 454 548 418.5 597 c 128,-1,38
 383 646 383 646 303 646 c 0,39,40
 214 646 214 646 175.5 577.5 c 128,-1,41
 137 509 137 509 137 358 c 2,42,-1
 137 229 l 2,43,44
 137 171 137 171 145 120.5 c 128,-1,45
 153 70 153 70 174.5 32.5 c 128,-1,46
 196 -5 196 -5 233.5 -26.5 c 128,-1,47
 271 -48 271 -48 331 -48 c 2,48,-1
 454 -48 l 1,49,-1
 454 -112 l 1,0,-1
375 139 m 0,50,51
 411 139 411 139 432.5 159 c 128,-1,52
 454 179 454 179 454 217 c 2,53,-1
 454 370 l 2,54,55
 454 408 454 408 432.5 428 c 128,-1,56
 411 448 411 448 375 448 c 0,57,58
 333 448 333 448 311.5 419.5 c 128,-1,59
 290 391 290 391 290 324 c 2,60,-1
 290 263 l 2,61,62
 290 196 290 196 311.5 167.5 c 128,-1,63
 333 139 333 139 375 139 c 0,50,51
EndSplineSet
EndChar

StartChar: hyphen
Encoding: 45 45 70
Width: 600
GlyphClass: 1
Flags: W
LayerCount: 2
Fore
SplineSet
155 262 m 1,0,-1
 155 346 l 1,1,-1
 445 346 l 1,2,-1
 445 262 l 1,3,-1
 155 262 l 1,0,-1
EndSplineSet
EndChar

StartChar: endash
Encoding: 8211 8211 72
Width: 600
GlyphClass: 1
Flags: W
LayerCount: 2
Fore
SplineSet
60 267 m 1,0,-1
 60 341 l 1,1,-1
 540 341 l 1,2,-1
 540 267 l 1,3,-1
 60 267 l 1,0,-1
EndSplineSet
EndChar

StartChar: emdash
Encoding: 8212 8212 73
Width: 600
GlyphClass: 1
Flags: W
LayerCount: 2
Fore
SplineSet
0 267 m 1,0,-1
 0 341 l 1,1,-1
 600 341 l 1,2,-1
 600 267 l 1,3,-1
 0 267 l 1,0,-1
EndSplineSet
EndChar

StartChar: underscore
Encoding: 95 95 74
Width: 600
GlyphClass: 1
Flags: W
LayerCount: 2
Fore
SplineSet
60 -169 m 1,0,-1
 60 -95 l 1,1,-1
 540 -95 l 1,2,-1
 540 -169 l 1,3,-1
 60 -169 l 1,0,-1
EndSplineSet
EndChar

StartChar: period
Encoding: 46 46 75
Width: 600
GlyphClass: 1
Flags: W
LayerCount: 2
Fore
SplineSet
300 -9 m 256,0,1
 259 -9 259 -9 242.5 8 c 128,-1,2
 226 25 226 25 226 51 c 2,3,-1
 226 69 l 2,4,5
 226 95 226 95 242.5 112 c 128,-1,6
 259 129 259 129 300 129 c 256,7,8
 341 129 341 129 357.5 112 c 128,-1,9
 374 95 374 95 374 69 c 2,10,-1
 374 51 l 2,11,12
 374 25 374 25 357.5 8 c 128,-1,13
 341 -9 341 -9 300 -9 c 256,0,1
EndSplineSet
EndChar

StartChar: ellipsis
Encoding: 8230 8230 76
Width: 600
GlyphClass: 1
Flags: W
LayerCount: 2
Fore
SplineSet
107 -4 m 256,0,1
 72 -4 72 -4 58 10.5 c 128,-1,2
 44 25 44 25 44 47 c 2,3,-1
 44 76 l 2,4,5
 44 98 44 98 58 112.5 c 128,-1,6
 72 127 72 127 107 127 c 256,7,8
 142 127 142 127 156 112.5 c 128,-1,9
 170 98 170 98 170 76 c 2,10,-1
 170 47 l 2,11,12
 170 25 170 25 156 10.5 c 128,-1,13
 142 -4 142 -4 107 -4 c 256,0,1
300 -4 m 256,14,15
 265 -4 265 -4 251 10.5 c 128,-1,16
 237 25 237 25 237 47 c 2,17,-1
 237 76 l 2,18,19
 237 98 237 98 251 112.5 c 128,-1,20
 265 127 265 127 300 127 c 256,21,22
 335 127 335 127 349 112.5 c 128,-1,23
 363 98 363 98 363 76 c 2,24,-1
 363 47 l 2,25,26
 363 25 363 25 349 10.5 c 128,-1,27
 335 -4 335 -4 300 -4 c 256,14,15
493 -4 m 256,28,29
 458 -4 458 -4 444 10.5 c 128,-1,30
 430 25 430 25 430 47 c 2,31,-1
 430 76 l 2,32,33
 430 98 430 98 444 112.5 c 128,-1,34
 458 127 458 127 493 127 c 256,35,36
 528 127 528 127 542 112.5 c 128,-1,37
 556 98 556 98 556 76 c 2,38,-1
 556 47 l 2,39,40
 556 25 556 25 542 10.5 c 128,-1,41
 528 -4 528 -4 493 -4 c 256,28,29
EndSplineSet
EndChar

StartChar: comma
Encoding: 44 44 78
Width: 600
GlyphClass: 1
Flags: W
LayerCount: 2
Fore
SplineSet
257 136 m 1,0,-1
 386 136 l 1,1,-1
 271 -141 l 1,2,-1
 204 -141 l 1,3,-1
 257 136 l 1,0,-1
EndSplineSet
EndChar

StartChar: quotesingle
Encoding: 39 39 80
Width: 600
GlyphClass: 1
Flags: W
LayerCount: 2
Fore
SplineSet
262 463 m 1,0,-1
 262 740 l 1,1,-1
 338 740 l 1,2,-1
 338 463 l 1,3,-1
 262 463 l 1,0,-1
EndSplineSet
EndChar

StartChar: quoteleft
Encoding: 8216 8216 82
Width: 600
GlyphClass: 1
Flags: W
LayerCount: 2
Fore
SplineSet
310 740 m 1,0,-1
 377 740 l 1,1,-1
 324 463 l 1,2,-1
 195 463 l 1,3,-1
 310 740 l 1,0,-1
EndSplineSet
EndChar

StartChar: quoteright
Encoding: 8217 8217 83
Width: 600
GlyphClass: 1
Flags: W
LayerCount: 2
Fore
SplineSet
276 740 m 1,0,-1
 405 740 l 1,1,-1
 290 463 l 1,2,-1
 223 463 l 1,3,-1
 276 740 l 1,0,-1
EndSplineSet
EndChar

StartChar: quotesinglbase
Encoding: 8218 8218 86
Width: 600
GlyphClass: 1
Flags: W
LayerCount: 2
Fore
SplineSet
257 136 m 1,0,-1
 386 136 l 1,1,-1
 271 -141 l 1,2,-1
 204 -141 l 1,3,-1
 257 136 l 1,0,-1
EndSplineSet
EndChar

StartChar: guilsinglleft
Encoding: 8249 8249 88
Width: 600
GlyphClass: 1
Flags: W
LayerCount: 2
Fore
SplineSet
376 56 m 1,0,-1
 170 230 l 1,1,-1
 170 310 l 1,2,-1
 376 484 l 1,3,-1
 401 427 l 1,4,-1
 253 270 l 1,5,-1
 401 113 l 1,6,-1
 376 56 l 1,0,-1
EndSplineSet
EndChar

StartChar: guilsinglright
Encoding: 8250 8250 89
Width: 600
GlyphClass: 1
Flags: W
LayerCount: 2
Fore
SplineSet
199 113 m 1,0,-1
 347 270 l 1,1,-1
 199 427 l 1,2,-1
 224 484 l 1,3,-1
 430 310 l 1,4,-1
 430 230 l 1,5,-1
 224 56 l 1,6,-1
 199 113 l 1,0,-1
EndSplineSet
EndChar

StartChar: exclamdown
Encoding: 161 161 92
Width: 600
GlyphClass: 1
Flags: W
LayerCount: 2
Fore
SplineSet
256 -182 m 1,0,-1
 256 21 l 1,1,-1
 284 283 l 1,2,-1
 316 283 l 1,3,-1
 344 21 l 1,4,-1
 344 -182 l 1,5,-1
 256 -182 l 1,0,-1
300 387 m 256,6,7
 259 387 259 387 242.5 404 c 128,-1,8
 226 421 226 421 226 447 c 2,9,-1
 226 465 l 2,10,11
 226 491 226 491 242.5 508 c 128,-1,12
 259 525 259 525 300 525 c 256,13,14
 341 525 341 525 357.5 508 c 128,-1,15
 374 491 374 491 374 465 c 2,16,-1
 374 447 l 2,17,18
 374 421 374 421 357.5 404 c 128,-1,19
 341 387 341 387 300 387 c 256,6,7
EndSplineSet
EndChar

StartChar: exclam
Encoding: 33 33 93
Width: 600
GlyphClass: 1
Flags: W
LayerCount: 2
Fore
SplineSet
284 233 m 1,0,-1
 256 495 l 1,1,-1
 256 698 l 1,2,-1
 344 698 l 1,3,-1
 344 495 l 1,4,-1
 316 233 l 1,5,-1
 284 233 l 1,0,-1
300 -9 m 256,6,7
 259 -9 259 -9 242.5 8 c 128,-1,8
 226 25 226 25 226 51 c 2,9,-1
 226 69 l 2,10,11
 226 95 226 95 242.5 112 c 128,-1,12
 259 129 259 129 300 129 c 256,13,14
 341 129 341 129 357.5 112 c 128,-1,15
 374 95 374 95 374 69 c 2,16,-1
 374 51 l 2,17,18
 374 25 374 25 357.5 8 c 128,-1,19
 341 -9 341 -9 300 -9 c 256,6,7
EndSplineSet
EndChar

StartChar: questiondown
Encoding: 191 191 94
Width: 600
GlyphClass: 1
Flags: W
LayerCount: 2
Fore
SplineSet
299 -194 m 256,0,1
 251 -194 251 -194 212.5 -180.5 c 128,-1,2
 174 -167 174 -167 147 -142.5 c 128,-1,3
 120 -118 120 -118 105 -83 c 128,-1,4
 90 -48 90 -48 90 -5 c 0,5,6
 90 42 90 42 107 77.5 c 128,-1,7
 124 113 124 113 151 138 c 128,-1,8
 178 163 178 163 212.5 178.5 c 128,-1,9
 247 194 247 194 282 200 c 1,10,-1
 282 301 l 1,11,-1
 361 301 l 1,12,-1
 361 144 l 1,13,14
 275 140 275 140 226 106.5 c 128,-1,15
 177 73 177 73 177 5 c 2,16,-1
 177 -9 l 2,17,18
 177 -65 177 -65 210.5 -93 c 128,-1,19
 244 -121 244 -121 302 -121 c 0,20,21
 362 -121 362 -121 398 -88 c 128,-1,22
 434 -55 434 -55 448 -4 c 1,23,-1
 523 -32 l 1,24,25
 513 -65 513 -65 495 -94.5 c 128,-1,26
 477 -124 477 -124 449.5 -146 c 128,-1,27
 422 -168 422 -168 384.5 -181 c 128,-1,28
 347 -194 347 -194 299 -194 c 256,0,1
318 387 m 256,29,30
 277 387 277 387 260.5 404 c 128,-1,31
 244 421 244 421 244 447 c 2,32,-1
 244 465 l 2,33,34
 244 491 244 491 260.5 508 c 128,-1,35
 277 525 277 525 318 525 c 256,36,37
 359 525 359 525 375.5 508 c 128,-1,38
 392 491 392 491 392 465 c 2,39,-1
 392 447 l 2,40,41
 392 421 392 421 375.5 404 c 128,-1,42
 359 387 359 387 318 387 c 256,29,30
EndSplineSet
EndChar

StartChar: question
Encoding: 63 63 95
Width: 600
GlyphClass: 1
Flags: W
LayerCount: 2
Fore
SplineSet
239 215 m 1,0,-1
 239 372 l 1,1,2
 325 376 325 376 374 409.5 c 128,-1,3
 423 443 423 443 423 511 c 2,4,-1
 423 525 l 2,5,6
 423 581 423 581 389.5 609 c 128,-1,7
 356 637 356 637 298 637 c 0,8,9
 238 637 238 637 202 604 c 128,-1,10
 166 571 166 571 152 520 c 1,11,-1
 77 548 l 1,12,13
 87 581 87 581 105 610.5 c 128,-1,14
 123 640 123 640 150.5 662 c 128,-1,15
 178 684 178 684 215.5 697 c 128,-1,16
 253 710 253 710 301 710 c 256,17,18
 349 710 349 710 387.5 696.5 c 128,-1,19
 426 683 426 683 453 658.5 c 128,-1,20
 480 634 480 634 495 599 c 128,-1,21
 510 564 510 564 510 521 c 0,22,23
 510 474 510 474 493 438.5 c 128,-1,24
 476 403 476 403 449 378 c 128,-1,25
 422 353 422 353 387.5 337.5 c 128,-1,26
 353 322 353 322 318 316 c 1,27,-1
 318 215 l 1,28,-1
 239 215 l 1,0,-1
282 -9 m 256,29,30
 241 -9 241 -9 224.5 8 c 128,-1,31
 208 25 208 25 208 51 c 2,32,-1
 208 69 l 2,33,34
 208 95 208 95 224.5 112 c 128,-1,35
 241 129 241 129 282 129 c 256,36,37
 323 129 323 129 339.5 112 c 128,-1,38
 356 95 356 95 356 69 c 2,39,-1
 356 51 l 2,40,41
 356 25 356 25 339.5 8 c 128,-1,42
 323 -9 323 -9 282 -9 c 256,29,30
EndSplineSet
EndChar

StartChar: parenleft
Encoding: 40 40 96
Width: 600
GlyphClass: 1
Flags: W
LayerCount: 2
Fore
SplineSet
205 311 m 256,0,1
 205 384 205 384 221.5 451.5 c 128,-1,2
 238 519 238 519 266.5 577 c 128,-1,3
 295 635 295 635 333 681.5 c 128,-1,4
 371 728 371 728 413 760 c 1,5,-1
 494 760 l 1,6,7
 450 727 450 727 411.5 683.5 c 128,-1,8
 373 640 373 640 343.5 588.5 c 128,-1,9
 314 537 314 537 297 477.5 c 128,-1,10
 280 418 280 418 280 354 c 2,11,-1
 280 268 l 2,12,13
 280 204 280 204 297 144.5 c 128,-1,14
 314 85 314 85 343.5 33.5 c 128,-1,15
 373 -18 373 -18 411.5 -61.5 c 128,-1,16
 450 -105 450 -105 494 -138 c 1,17,-1
 413 -138 l 1,18,19
 371 -107 371 -107 333 -60 c 128,-1,20
 295 -13 295 -13 266.5 45 c 128,-1,21
 238 103 238 103 221.5 170.5 c 128,-1,22
 205 238 205 238 205 311 c 256,0,1
EndSplineSet
EndChar

StartChar: parenright
Encoding: 41 41 97
Width: 600
GlyphClass: 1
Flags: W
LayerCount: 2
Fore
SplineSet
395 311 m 256,0,1
 395 238 395 238 378.5 170.5 c 128,-1,2
 362 103 362 103 333.5 45 c 128,-1,3
 305 -13 305 -13 267 -60 c 128,-1,4
 229 -107 229 -107 187 -138 c 1,5,-1
 106 -138 l 1,6,7
 149 -105 149 -105 188 -61.5 c 128,-1,8
 227 -18 227 -18 256.5 33.5 c 128,-1,9
 286 85 286 85 303 144.5 c 128,-1,10
 320 204 320 204 320 268 c 2,11,-1
 320 354 l 2,12,13
 320 418 320 418 303 477.5 c 128,-1,14
 286 537 286 537 256.5 588.5 c 128,-1,15
 227 640 227 640 188 683.5 c 128,-1,16
 149 727 149 727 106 760 c 1,17,-1
 187 760 l 1,18,19
 229 728 229 728 267 681.5 c 128,-1,20
 305 635 305 635 333.5 577 c 128,-1,21
 362 519 362 519 378.5 451.5 c 128,-1,22
 395 384 395 384 395 311 c 256,0,1
EndSplineSet
EndChar

StartChar: bracketleft
Encoding: 91 91 98
Width: 600
GlyphClass: 1
Flags: W
LayerCount: 2
Fore
SplineSet
225 -138 m 1,0,-1
 225 760 l 1,1,-1
 505 760 l 1,2,-1
 505 698 l 1,3,-1
 294 698 l 1,4,-1
 294 -76 l 1,5,-1
 505 -76 l 1,6,-1
 505 -138 l 1,7,-1
 225 -138 l 1,0,-1
EndSplineSet
EndChar

StartChar: bracketright
Encoding: 93 93 99
Width: 600
GlyphClass: 1
Flags: W
LayerCount: 2
Fore
SplineSet
375 760 m 1,0,-1
 375 -138 l 1,1,-1
 95 -138 l 1,2,-1
 95 -76 l 1,3,-1
 306 -76 l 1,4,-1
 306 698 l 1,5,-1
 95 698 l 1,6,-1
 95 760 l 1,7,-1
 375 760 l 1,0,-1
EndSplineSet
EndChar

StartChar: braceleft
Encoding: 123 123 100
Width: 600
GlyphClass: 1
Flags: W
LayerCount: 2
Fore
SplineSet
319 -138 m 2,0,1
 277 -138 277 -138 256 -114.5 c 128,-1,2
 235 -91 235 -91 235 -56 c 2,3,-1
 235 7 l 2,4,5
 235 34 235 34 240.5 54 c 128,-1,6
 246 74 246 74 254 90 c 128,-1,7
 262 106 262 106 272 118.5 c 128,-1,8
 282 131 282 131 291 142 c 0,9,10
 308 162 308 162 314.5 176.5 c 128,-1,11
 321 191 321 191 321 207 c 0,12,13
 321 245 321 245 286 262.5 c 128,-1,14
 251 280 251 280 183 280 c 2,15,-1
 105 280 l 1,16,-1
 105 342 l 1,17,-1
 183 342 l 2,18,19
 251 342 251 342 286 359.5 c 128,-1,20
 321 377 321 377 321 415 c 0,21,22
 321 431 321 431 314.5 445.5 c 128,-1,23
 308 460 308 460 291 480 c 0,24,25
 282 491 282 491 272 503.5 c 128,-1,26
 262 516 262 516 254 531.5 c 128,-1,27
 246 547 246 547 240.5 567.5 c 128,-1,28
 235 588 235 588 235 615 c 2,29,-1
 235 678 l 2,30,31
 235 713 235 713 256 736.5 c 128,-1,32
 277 760 277 760 319 760 c 2,33,-1
 495 760 l 1,34,-1
 495 698 l 1,35,-1
 304 698 l 1,36,-1
 304 621 l 2,37,38
 304 580 304 580 316 558 c 128,-1,39
 328 536 328 536 344 515 c 0,40,41
 361 493 361 493 376 469.5 c 128,-1,42
 391 446 391 446 391 414 c 0,43,44
 391 372 391 372 361.5 346 c 128,-1,45
 332 320 332 320 281 313 c 1,46,-1
 281 309 l 1,47,48
 332 302 332 302 361.5 276 c 128,-1,49
 391 250 391 250 391 208 c 0,50,51
 391 176 391 176 376 152.5 c 128,-1,52
 361 129 361 129 344 107 c 0,53,54
 328 86 328 86 316 64 c 128,-1,55
 304 42 304 42 304 1 c 2,56,-1
 304 -76 l 1,57,-1
 495 -76 l 1,58,-1
 495 -138 l 1,59,-1
 319 -138 l 2,0,1
EndSplineSet
EndChar

StartChar: braceright
Encoding: 125 125 101
Width: 600
GlyphClass: 1
Flags: W
LayerCount: 2
Fore
SplineSet
281 760 m 2,0,1
 323 760 323 760 344 736.5 c 128,-1,2
 365 713 365 713 365 678 c 2,3,-1
 365 615 l 2,4,5
 365 588 365 588 359.5 567.5 c 128,-1,6
 354 547 354 547 346 531.5 c 128,-1,7
 338 516 338 516 328 503.5 c 128,-1,8
 318 491 318 491 309 480 c 0,9,10
 292 460 292 460 285.5 445.5 c 128,-1,11
 279 431 279 431 279 415 c 0,12,13
 279 377 279 377 314 359.5 c 128,-1,14
 349 342 349 342 417 342 c 2,15,-1
 495 342 l 1,16,-1
 495 280 l 1,17,-1
 417 280 l 2,18,19
 349 280 349 280 314 262.5 c 128,-1,20
 279 245 279 245 279 207 c 0,21,22
 279 191 279 191 285.5 176.5 c 128,-1,23
 292 162 292 162 309 142 c 0,24,25
 318 131 318 131 328 118.5 c 128,-1,26
 338 106 338 106 346 90 c 128,-1,27
 354 74 354 74 359.5 54 c 128,-1,28
 365 34 365 34 365 7 c 2,29,-1
 365 -56 l 2,30,31
 365 -91 365 -91 344 -114.5 c 128,-1,32
 323 -138 323 -138 281 -138 c 2,33,-1
 105 -138 l 1,34,-1
 105 -76 l 1,35,-1
 296 -76 l 1,36,-1
 296 1 l 2,37,38
 296 42 296 42 284 64 c 128,-1,39
 272 86 272 86 256 107 c 0,40,41
 239 129 239 129 224 152.5 c 128,-1,42
 209 176 209 176 209 208 c 0,43,44
 209 250 209 250 238.5 276 c 128,-1,45
 268 302 268 302 319 309 c 1,46,-1
 319 313 l 1,47,48
 268 320 268 320 238.5 346 c 128,-1,49
 209 372 209 372 209 414 c 0,50,51
 209 446 209 446 224 469.5 c 128,-1,52
 239 493 239 493 256 515 c 0,53,54
 272 536 272 536 284 558 c 128,-1,55
 296 580 296 580 296 621 c 2,56,-1
 296 698 l 1,57,-1
 105 698 l 1,58,-1
 105 760 l 1,59,-1
 281 760 l 2,0,1
EndSplineSet
EndChar

StartChar: slash
Encoding: 47 47 102
Width: 600
GlyphClass: 1
Flags: W
LayerCount: 2
Fore
SplineSet
90 -138 m 1,0,-1
 438 760 l 1,1,-1
 510 760 l 1,2,-1
 162 -138 l 1,3,-1
 90 -138 l 1,0,-1
EndSplineSet
EndChar

StartChar: backslash
Encoding: 92 92 103
Width: 600
GlyphClass: 1
Flags: W
LayerCount: 2
Fore
SplineSet
438 -138 m 1,0,-1
 90 760 l 1,1,-1
 162 760 l 1,2,-1
 510 -138 l 1,3,-1
 438 -138 l 1,0,-1
EndSplineSet
EndChar

StartChar: fraction
Encoding: 8260 8260 104
Width: 600
GlyphClass: 1
Flags: W
LayerCount: 2
Fore
SplineSet
510 698 m 1,0,-1
 582 698 l 1,1,-1
 422 398 l 1,2,-1
 350 398 l 1,3,-1
 510 698 l 1,0,-1
178 300 m 1,4,-1
 250 300 l 1,5,-1
 90 0 l 1,6,-1
 18 0 l 1,7,-1
 178 300 l 1,4,-1
EndSplineSet
EndChar

StartChar: percent
Encoding: 37 37 106
Width: 600
GlyphClass: 1
Flags: W
LayerCount: 2
Fore
SplineSet
169 356 m 256,0,1
 103 356 103 356 61.5 400.5 c 128,-1,2
 20 445 20 445 20 533 c 256,3,4
 20 621 20 621 61.5 665.5 c 128,-1,5
 103 710 103 710 169 710 c 256,6,7
 235 710 235 710 276.5 665.5 c 128,-1,8
 318 621 318 621 318 533 c 256,9,10
 318 445 318 445 276.5 400.5 c 128,-1,11
 235 356 235 356 169 356 c 256,0,1
169 410 m 256,12,13
 205 410 205 410 227.5 435 c 128,-1,14
 250 460 250 460 250 508 c 2,15,-1
 250 558 l 2,16,17
 250 606 250 606 227.5 631 c 128,-1,18
 205 656 205 656 169 656 c 256,19,20
 133 656 133 656 110.5 631 c 128,-1,21
 88 606 88 606 88 558 c 2,22,-1
 88 508 l 2,23,24
 88 460 88 460 110.5 435 c 128,-1,25
 133 410 133 410 169 410 c 256,12,13
510 698 m 1,26,-1
 582 698 l 1,27,-1
 422 398 l 1,28,-1
 350 398 l 1,29,-1
 510 698 l 1,26,-1
178 300 m 1,30,-1
 250 300 l 1,31,-1
 90 0 l 1,32,-1
 18 0 l 1,33,-1
 178 300 l 1,30,-1
431 -12 m 256,34,35
 365 -12 365 -12 323.5 32.5 c 128,-1,36
 282 77 282 77 282 165 c 256,37,38
 282 253 282 253 323.5 297.5 c 128,-1,39
 365 342 365 342 431 342 c 256,40,41
 497 342 497 342 538.5 297.5 c 128,-1,42
 580 253 580 253 580 165 c 256,43,44
 580 77 580 77 538.5 32.5 c 128,-1,45
 497 -12 497 -12 431 -12 c 256,34,35
431 42 m 256,46,47
 467 42 467 42 489.5 67 c 128,-1,48
 512 92 512 92 512 140 c 2,49,-1
 512 190 l 2,50,51
 512 238 512 238 489.5 263 c 128,-1,52
 467 288 467 288 431 288 c 256,53,54
 395 288 395 288 372.5 263 c 128,-1,55
 350 238 350 238 350 190 c 2,56,-1
 350 140 l 2,57,58
 350 92 350 92 372.5 67 c 128,-1,59
 395 42 395 42 431 42 c 256,46,47
EndSplineSet
EndChar

StartChar: perthousand
Encoding: 8240 8240 107
Width: 600
GlyphClass: 1
Flags: W
LayerCount: 2
Fore
SplineSet
139 400 m 0,0,1
 74 400 74 400 37 438.5 c 128,-1,2
 0 477 0 477 0 555 c 0,3,4
 0 632 0 632 36.5 671 c 128,-1,5
 73 710 73 710 139 710 c 0,6,7
 204 710 204 710 241 671.5 c 128,-1,8
 278 633 278 633 278 555 c 0,9,10
 278 478 278 478 241.5 439 c 128,-1,11
 205 400 205 400 139 400 c 0,0,1
139 450 m 256,12,13
 173 450 173 450 191.5 472.5 c 128,-1,14
 210 495 210 495 210 531 c 2,15,-1
 210 579 l 2,16,17
 210 615 210 615 191.5 637.5 c 128,-1,18
 173 660 173 660 139 660 c 256,19,20
 105 660 105 660 86.5 637.5 c 128,-1,21
 68 615 68 615 68 579 c 2,22,-1
 68 531 l 2,23,24
 68 495 68 495 86.5 472.5 c 128,-1,25
 105 450 105 450 139 450 c 256,12,13
61 328 m 1,26,-1
 511 504 l 1,27,-1
 531 454 l 1,28,-1
 81 278 l 1,29,-1
 61 328 l 1,26,-1
248 -12 m 0,30,31
 185 -12 185 -12 148.5 27 c 128,-1,32
 112 66 112 66 112 143 c 256,33,34
 112 220 112 220 148.5 259 c 128,-1,35
 185 298 185 298 248 298 c 0,36,37
 315 298 315 298 354 248 c 1,38,-1
 359 248 l 1,39,40
 396 298 396 298 464 298 c 0,41,42
 527 298 527 298 563.5 259 c 128,-1,43
 600 220 600 220 600 143 c 256,44,45
 600 66 600 66 563.5 27 c 128,-1,46
 527 -12 527 -12 464 -12 c 0,47,48
 396 -12 396 -12 359 38 c 1,49,-1
 353 38 l 1,50,51
 335 14 335 14 308.5 1 c 128,-1,52
 282 -12 282 -12 248 -12 c 0,30,31
251 38 m 256,53,54
 285 38 285 38 303.5 60.5 c 128,-1,55
 322 83 322 83 322 119 c 2,56,-1
 322 167 l 2,57,58
 322 203 322 203 303.5 225.5 c 128,-1,59
 285 248 285 248 251 248 c 256,60,61
 217 248 217 248 198.5 225.5 c 128,-1,62
 180 203 180 203 180 167 c 2,63,-1
 180 119 l 2,64,65
 180 83 180 83 198.5 60.5 c 128,-1,66
 217 38 217 38 251 38 c 256,53,54
461 38 m 256,67,68
 495 38 495 38 513.5 60.5 c 128,-1,69
 532 83 532 83 532 119 c 2,70,-1
 532 167 l 2,71,72
 532 203 532 203 513.5 225.5 c 128,-1,73
 495 248 495 248 461 248 c 256,74,75
 427 248 427 248 408.5 225.5 c 128,-1,76
 390 203 390 203 390 167 c 2,77,-1
 390 119 l 2,78,79
 390 83 390 83 408.5 60.5 c 128,-1,80
 427 38 427 38 461 38 c 256,67,68
EndSplineSet
EndChar

StartChar: bar
Encoding: 124 124 108
Width: 600
GlyphClass: 1
Flags: W
LayerCount: 2
Fore
SplineSet
265 -138 m 1,0,-1
 265 760 l 1,1,-1
 335 760 l 1,2,-1
 335 -138 l 1,3,-1
 265 -138 l 1,0,-1
EndSplineSet
EndChar

StartChar: brokenbar
Encoding: 166 166 109
Width: 600
GlyphClass: 1
Flags: W
LayerCount: 2
Fore
SplineSet
265 401 m 1,0,-1
 265 760 l 1,1,-1
 335 760 l 1,2,-1
 335 401 l 1,3,-1
 265 401 l 1,0,-1
265 -138 m 1,4,-1
 265 221 l 1,5,-1
 335 221 l 1,6,-1
 335 -138 l 1,7,-1
 265 -138 l 1,4,-1
EndSplineSet
EndChar

StartChar: section
Encoding: 167 167 110
Width: 600
GlyphClass: 1
Flags: W
LayerCount: 2
Fore
SplineSet
487 3 m 0,0,1
 487 -33 487 -33 472.5 -62 c 128,-1,2
 458 -91 458 -91 431.5 -112 c 128,-1,3
 405 -133 405 -133 368 -144 c 128,-1,4
 331 -155 331 -155 286 -155 c 0,5,6
 240 -155 240 -155 195.5 -142 c 128,-1,7
 151 -129 151 -129 116 -99 c 1,8,-1
 163 -43 l 1,9,10
 187 -63 187 -63 218 -74.5 c 128,-1,11
 249 -86 249 -86 287 -86 c 0,12,13
 344 -86 344 -86 376 -62.5 c 128,-1,14
 408 -39 408 -39 408 2 c 0,15,16
 408 40 408 40 380.5 62.5 c 128,-1,17
 353 85 353 85 302 99 c 2,18,-1
 238 117 l 2,19,20
 155 140 155 140 118 180.5 c 128,-1,21
 81 221 81 221 81 272 c 0,22,23
 81 320 81 320 110 357 c 128,-1,24
 139 394 139 394 193 415 c 1,25,-1
 193 420 l 1,26,27
 154 444 154 444 135.5 478 c 128,-1,28
 117 512 117 512 117 552 c 0,29,30
 117 588 117 588 131.5 617 c 128,-1,31
 146 646 146 646 172.5 667 c 128,-1,32
 199 688 199 688 236 699 c 128,-1,33
 273 710 273 710 318 710 c 0,34,35
 364 710 364 710 408.5 697 c 128,-1,36
 453 684 453 684 488 654 c 1,37,-1
 441 598 l 1,38,39
 417 618 417 618 386 629.5 c 128,-1,40
 355 641 355 641 317 641 c 0,41,42
 260 641 260 641 228 617.5 c 128,-1,43
 196 594 196 594 196 553 c 0,44,45
 196 515 196 515 223.5 492.5 c 128,-1,46
 251 470 251 470 302 456 c 2,47,-1
 366 438 l 2,48,49
 449 415 449 415 486 374.5 c 128,-1,50
 523 334 523 334 523 283 c 0,51,52
 523 235 523 235 494 198 c 128,-1,53
 465 161 465 161 411 140 c 1,54,-1
 411 135 l 1,55,56
 450 111 450 111 468.5 77 c 128,-1,57
 487 43 487 43 487 3 c 0,0,1
444 263 m 0,58,59
 444 306 444 306 415 332 c 128,-1,60
 386 358 386 358 324 375 c 2,61,-1
 261 392 l 2,62,63
 244 396 244 396 227 403 c 1,64,65
 196 382 196 382 178 354.5 c 128,-1,66
 160 327 160 327 160 292 c 0,67,68
 160 249 160 249 189 223 c 128,-1,69
 218 197 218 197 280 180 c 2,70,-1
 343 163 l 2,71,72
 360 159 360 159 377 152 c 1,73,74
 408 173 408 173 426 200.5 c 128,-1,75
 444 228 444 228 444 263 c 0,58,59
EndSplineSet
EndChar

StartChar: paragraph
Encoding: 182 182 111
Width: 600
GlyphClass: 1
Flags: W
LayerCount: 2
Fore
SplineSet
270 246 m 1,0,1
 223 246 223 246 182.5 263 c 128,-1,2
 142 280 142 280 111 310 c 128,-1,3
 80 340 80 340 62.5 381.5 c 128,-1,4
 45 423 45 423 45 472 c 256,5,6
 45 521 45 521 62.5 562.5 c 128,-1,7
 80 604 80 604 111 634 c 128,-1,8
 142 664 142 664 182.5 681 c 128,-1,9
 223 698 223 698 270 698 c 2,10,-1
 504 698 l 1,11,-1
 504 -149 l 1,12,-1
 432 -149 l 1,13,-1
 432 634 l 1,14,-1
 342 634 l 1,15,-1
 342 -149 l 1,16,-1
 270 -149 l 1,17,-1
 270 246 l 1,0,1
EndSplineSet
EndChar

StartChar: copyright
Encoding: 169 169 112
Width: 600
GlyphClass: 1
Flags: W
LayerCount: 2
Fore
SplineSet
300 18 m 256,0,1
 237 18 237 18 182.5 41 c 128,-1,2
 128 64 128 64 87.5 107 c 128,-1,3
 47 150 47 150 23.5 211 c 128,-1,4
 0 272 0 272 0 349 c 0,5,6
 0 425 0 425 23.5 486.5 c 128,-1,7
 47 548 47 548 87.5 591 c 128,-1,8
 128 634 128 634 182.5 657 c 128,-1,9
 237 680 237 680 300 680 c 256,10,11
 363 680 363 680 417.5 657 c 128,-1,12
 472 634 472 634 512.5 591 c 128,-1,13
 553 548 553 548 576.5 486.5 c 128,-1,14
 600 425 600 425 600 349 c 0,15,16
 600 272 600 272 576.5 211 c 128,-1,17
 553 150 553 150 512.5 107 c 128,-1,18
 472 64 472 64 417.5 41 c 128,-1,19
 363 18 363 18 300 18 c 256,0,1
300 73 m 256,20,21
 351 73 351 73 394.5 92 c 128,-1,22
 438 111 438 111 469.5 144.5 c 128,-1,23
 501 178 501 178 519 223 c 128,-1,24
 537 268 537 268 537 319 c 2,25,-1
 537 379 l 2,26,27
 537 430 537 430 519 475 c 128,-1,28
 501 520 501 520 469.5 553.5 c 128,-1,29
 438 587 438 587 394.5 606 c 128,-1,30
 351 625 351 625 300 625 c 256,31,32
 249 625 249 625 205.5 606 c 128,-1,33
 162 587 162 587 130.5 553.5 c 128,-1,34
 99 520 99 520 81 475 c 128,-1,35
 63 430 63 430 63 379 c 2,36,-1
 63 319 l 2,37,38
 63 268 63 268 81 223 c 128,-1,39
 99 178 99 178 130.5 144.5 c 128,-1,40
 162 111 162 111 205.5 92 c 128,-1,41
 249 73 249 73 300 73 c 256,20,21
305 171 m 0,42,43
 232 171 232 171 191.5 219.5 c 128,-1,44
 151 268 151 268 151 349 c 0,45,46
 151 431 151 431 192 479 c 128,-1,47
 233 527 233 527 305 527 c 0,48,49
 353 527 353 527 383.5 505 c 128,-1,50
 414 483 414 483 431 447 c 1,51,-1
 378 418 l 1,52,53
 367 442 367 442 350 456 c 128,-1,54
 333 470 333 470 305 470 c 0,55,56
 266 470 266 470 244.5 444.5 c 128,-1,57
 223 419 223 419 223 378 c 2,58,-1
 223 321 l 2,59,60
 223 279 223 279 244 253.5 c 128,-1,61
 265 228 265 228 306 228 c 0,62,63
 336 228 336 228 354 243 c 128,-1,64
 372 258 372 258 386 283 c 1,65,-1
 436 252 l 1,66,67
 419 217 419 217 386.5 194 c 128,-1,68
 354 171 354 171 305 171 c 0,42,43
EndSplineSet
EndChar

StartChar: registered
Encoding: 174 174 113
Width: 600
GlyphClass: 1
Flags: W
LayerCount: 2
Fore
SplineSet
300 346 m 256,0,1
 262 346 262 346 228.5 360 c 128,-1,2
 195 374 195 374 170 398 c 128,-1,3
 145 422 145 422 131 455.5 c 128,-1,4
 117 489 117 489 117 528 c 256,5,6
 117 567 117 567 131 600.5 c 128,-1,7
 145 634 145 634 170 658 c 128,-1,8
 195 682 195 682 228.5 696 c 128,-1,9
 262 710 262 710 300 710 c 256,10,11
 338 710 338 710 371.5 696 c 128,-1,12
 405 682 405 682 429.5 658 c 128,-1,13
 454 634 454 634 468.5 600.5 c 128,-1,14
 483 567 483 567 483 528 c 256,15,16
 483 489 483 489 468.5 455.5 c 128,-1,17
 454 422 454 422 429.5 398 c 128,-1,18
 405 374 405 374 371.5 360 c 128,-1,19
 338 346 338 346 300 346 c 256,0,1
300 387 m 256,20,21
 329 387 329 387 353.5 396.5 c 128,-1,22
 378 406 378 406 396 423 c 128,-1,23
 414 440 414 440 424.5 464 c 128,-1,24
 435 488 435 488 435 518 c 2,25,-1
 435 538 l 2,26,27
 435 568 435 568 424.5 592 c 128,-1,28
 414 616 414 616 396 633 c 128,-1,29
 378 650 378 650 353.5 659.5 c 128,-1,30
 329 669 329 669 300 669 c 256,31,32
 271 669 271 669 246.5 659.5 c 128,-1,33
 222 650 222 650 204 633 c 128,-1,34
 186 616 186 616 175.5 592 c 128,-1,35
 165 568 165 568 165 538 c 2,36,-1
 165 518 l 2,37,38
 165 488 165 488 175.5 464 c 128,-1,39
 186 440 186 440 204 423 c 128,-1,40
 222 406 222 406 246.5 396.5 c 128,-1,41
 271 387 271 387 300 387 c 256,20,21
270 436 m 1,42,-1
 230 436 l 1,43,-1
 230 621 l 1,44,-1
 315 621 l 2,45,46
 343 621 343 621 358.5 605.5 c 128,-1,47
 374 590 374 590 374 564 c 0,48,49
 374 525 374 525 337 512 c 1,50,-1
 383 436 l 1,51,-1
 338 436 l 1,52,-1
 299 506 l 1,53,-1
 270 506 l 1,54,-1
 270 436 l 1,42,-1
306 535 m 2,55,56
 332 535 332 535 332 559 c 2,57,-1
 332 566 l 2,58,59
 332 590 332 590 306 590 c 2,60,-1
 270 590 l 1,61,-1
 270 535 l 1,62,-1
 306 535 l 2,55,56
EndSplineSet
EndChar

StartChar: trademark
Encoding: 8482 8482 114
Width: 600
GlyphClass: 1
Flags: W
LayerCount: 2
Fore
SplineSet
102 419 m 1,0,-1
 102 652 l 1,1,-1
 16 652 l 1,2,-1
 16 698 l 1,3,-1
 240 698 l 1,4,-1
 240 652 l 1,5,-1
 154 652 l 1,6,-1
 154 419 l 1,7,-1
 102 419 l 1,0,-1
282 419 m 1,8,-1
 282 698 l 1,9,-1
 347 698 l 1,10,-1
 412 564 l 1,11,-1
 415 564 l 1,12,-1
 480 698 l 1,13,-1
 542 698 l 1,14,-1
 542 419 l 1,15,-1
 494 419 l 1,16,-1
 494 546 l 1,17,-1
 495 629 l 1,18,-1
 491 629 l 1,19,-1
 412 473 l 1,20,-1
 333 629 l 1,21,-1
 329 629 l 1,22,-1
 330 546 l 1,23,-1
 330 419 l 1,24,-1
 282 419 l 1,8,-1
EndSplineSet
EndChar

StartChar: ordfeminine
Encoding: 170 170 115
Width: 600
GlyphClass: 1
Flags: W
LayerCount: 2
Fore
SplineSet
429 357 m 2,0,1
 396 357 396 357 382 371 c 128,-1,2
 368 385 368 385 366 410 c 1,3,-1
 362 410 l 1,4,5
 351 387 351 387 323.5 368 c 128,-1,6
 296 349 296 349 249 349 c 0,7,8
 195 349 195 349 166.5 376 c 128,-1,9
 138 403 138 403 138 448 c 0,10,11
 138 502 138 502 177.5 527 c 128,-1,12
 217 552 217 552 289 552 c 2,13,-1
 362 552 l 1,14,-1
 362 580 l 2,15,16
 362 658 362 658 285 658 c 0,17,18
 250 658 250 658 226.5 643.5 c 128,-1,19
 203 629 203 629 192 606 c 1,20,-1
 150 640 l 1,21,22
 157 653 157 653 169.5 665.5 c 128,-1,23
 182 678 182 678 199 688 c 128,-1,24
 216 698 216 698 238 704 c 128,-1,25
 260 710 260 710 288 710 c 0,26,27
 352 710 352 710 388.5 677 c 128,-1,28
 425 644 425 644 425 583 c 2,29,-1
 425 413 l 1,30,-1
 463 413 l 1,31,-1
 463 357 l 1,32,-1
 429 357 l 2,0,1
287 506 m 2,33,34
 245 506 245 506 223 494 c 128,-1,35
 201 482 201 482 201 459 c 2,36,-1
 201 449 l 2,37,38
 201 400 201 400 262 400 c 0,39,40
 302 400 302 400 332 417.5 c 128,-1,41
 362 435 362 435 362 465 c 2,42,-1
 362 506 l 1,43,-1
 287 506 l 2,33,34
EndSplineSet
EndChar

StartChar: ordmasculine
Encoding: 186 186 116
Width: 600
GlyphClass: 1
Flags: W
LayerCount: 2
Fore
SplineSet
300 349 m 0,0,1
 224 349 224 349 182 397 c 128,-1,2
 140 445 140 445 140 530 c 0,3,4
 140 614 140 614 182.5 662 c 128,-1,5
 225 710 225 710 300 710 c 256,6,7
 375 710 375 710 417.5 662 c 128,-1,8
 460 614 460 614 460 530 c 0,9,10
 460 445 460 445 417.5 397 c 128,-1,11
 375 349 375 349 300 349 c 0,0,1
300 402 m 256,12,13
 345 402 345 402 368 429.5 c 128,-1,14
 391 457 391 457 391 500 c 2,15,-1
 391 559 l 2,16,17
 391 602 391 602 368 629.5 c 128,-1,18
 345 657 345 657 300 657 c 256,19,20
 255 657 255 657 232 629.5 c 128,-1,21
 209 602 209 602 209 559 c 2,22,-1
 209 500 l 2,23,24
 209 457 209 457 232 429.5 c 128,-1,25
 255 402 255 402 300 402 c 256,12,13
EndSplineSet
EndChar

StartChar: degree
Encoding: 176 176 117
Width: 600
GlyphClass: 1
Flags: W
LayerCount: 2
Fore
SplineSet
300 368 m 256,0,1
 264 368 264 368 233 381 c 128,-1,2
 202 394 202 394 178.5 417 c 128,-1,3
 155 440 155 440 142 471.5 c 128,-1,4
 129 503 129 503 129 539 c 256,5,6
 129 575 129 575 142 606.5 c 128,-1,7
 155 638 155 638 178.5 661 c 128,-1,8
 202 684 202 684 233 697 c 128,-1,9
 264 710 264 710 300 710 c 256,10,11
 336 710 336 710 367 697 c 128,-1,12
 398 684 398 684 421.5 661 c 128,-1,13
 445 638 445 638 458 606.5 c 128,-1,14
 471 575 471 575 471 539 c 256,15,16
 471 503 471 503 458 471.5 c 128,-1,17
 445 440 445 440 421.5 417 c 128,-1,18
 398 394 398 394 367 381 c 128,-1,19
 336 368 336 368 300 368 c 256,0,1
300 432 m 256,20,21
 346 432 346 432 373.5 463 c 128,-1,22
 401 494 401 494 401 539 c 256,23,24
 401 584 401 584 373.5 615 c 128,-1,25
 346 646 346 646 300 646 c 256,26,27
 254 646 254 646 226.5 615 c 128,-1,28
 199 584 199 584 199 539 c 256,29,30
 199 494 199 494 226.5 463 c 128,-1,31
 254 432 254 432 300 432 c 256,20,21
EndSplineSet
EndChar

StartChar: uni2032
Encoding: 8242 8242 118
Width: 600
GlyphClass: 1
Flags: W
LayerCount: 2
Fore
SplineSet
235 380 m 1,0,-1
 291 698 l 1,1,-1
 365 698 l 1,2,-1
 309 380 l 1,3,-1
 235 380 l 1,0,-1
EndSplineSet
EndChar

StartChar: asterisk
Encoding: 42 42 120
Width: 600
GlyphClass: 1
Flags: W
LayerCount: 2
Fore
SplineSet
175 72 m 1,0,-1
 118 114 l 1,1,-1
 242 284 l 1,2,-1
 43 350 l 1,3,-1
 64 416 l 1,4,-1
 263 352 l 1,5,-1
 263 568 l 1,6,-1
 337 568 l 1,7,-1
 337 352 l 1,8,-1
 536 416 l 1,9,-1
 557 350 l 1,10,-1
 358 284 l 1,11,-1
 482 114 l 1,12,-1
 425 72 l 1,13,-1
 300 244 l 1,14,-1
 175 72 l 1,0,-1
EndSplineSet
EndChar

StartChar: dagger
Encoding: 8224 8224 121
Width: 600
GlyphClass: 1
Flags: W
LayerCount: 2
Fore
SplineSet
265 -200 m 1,0,-1
 265 452 l 1,1,-1
 70 452 l 1,2,-1
 70 516 l 1,3,-1
 265 516 l 1,4,-1
 265 740 l 1,5,-1
 335 740 l 1,6,-1
 335 516 l 1,7,-1
 530 516 l 1,8,-1
 530 452 l 1,9,-1
 335 452 l 1,10,-1
 335 -200 l 1,11,-1
 265 -200 l 1,0,-1
EndSplineSet
EndChar

StartChar: daggerdbl
Encoding: 8225 8225 122
Width: 600
GlyphClass: 1
Flags: W
LayerCount: 2
Fore
SplineSet
265 -200 m 1,0,-1
 265 24 l 1,1,-1
 70 24 l 1,2,-1
 70 88 l 1,3,-1
 265 88 l 1,4,-1
 265 452 l 1,5,-1
 70 452 l 1,6,-1
 70 516 l 1,7,-1
 265 516 l 1,8,-1
 265 740 l 1,9,-1
 335 740 l 1,10,-1
 335 516 l 1,11,-1
 530 516 l 1,12,-1
 530 452 l 1,13,-1
 335 452 l 1,14,-1
 335 88 l 1,15,-1
 530 88 l 1,16,-1
 530 24 l 1,17,-1
 335 24 l 1,18,-1
 335 -200 l 1,19,-1
 265 -200 l 1,0,-1
EndSplineSet
EndChar

StartChar: numbersign
Encoding: 35 35 123
Width: 600
GlyphClass: 1
Flags: W
LayerCount: 2
Fore
SplineSet
148 216 m 1,0,-1
 16 216 l 1,1,-1
 16 282 l 1,2,-1
 160 282 l 1,3,-1
 183 416 l 1,4,-1
 52 416 l 1,5,-1
 52 482 l 1,6,-1
 195 482 l 1,7,-1
 233 698 l 1,8,-1
 306 698 l 1,9,-1
 183 0 l 1,10,-1
 110 0 l 1,11,-1
 148 216 l 1,0,-1
417 698 m 1,12,-1
 490 698 l 1,13,-1
 452 482 l 1,14,-1
 584 482 l 1,15,-1
 584 416 l 1,16,-1
 440 416 l 1,17,-1
 417 282 l 1,18,-1
 548 282 l 1,19,-1
 548 216 l 1,20,-1
 405 216 l 1,21,-1
 367 0 l 1,22,-1
 294 0 l 1,23,-1
 417 698 l 1,12,-1
EndSplineSet
EndChar

StartChar: asciicircum
Encoding: 94 94 124
Width: 600
GlyphClass: 1
Flags: W
LayerCount: 2
Fore
SplineSet
489 287 m 1,0,-1
 300 629 l 1,1,-1
 296 629 l 1,2,-1
 107 287 l 1,3,-1
 45 318 l 1,4,-1
 255 698 l 1,5,-1
 345 698 l 1,6,-1
 555 318 l 1,7,-1
 489 287 l 1,0,-1
EndSplineSet
EndChar

StartChar: asciitilde
Encoding: 126 126 125
Width: 600
GlyphClass: 1
Flags: W
LayerCount: 2
Fore
SplineSet
402 197 m 0,0,1
 364 197 364 197 337.5 218.5 c 128,-1,2
 311 240 311 240 282 274 c 0,3,4
 256 308 256 308 236 327 c 128,-1,5
 216 346 216 346 197 346 c 0,6,7
 168 346 168 346 148.5 315 c 128,-1,8
 129 284 129 284 113 207 c 1,9,-1
 52 221 l 1,10,11
 69 313 69 313 104 363 c 128,-1,12
 139 413 139 413 198 413 c 0,13,14
 236 413 236 413 262 392 c 128,-1,15
 288 371 288 371 316 338 c 0,16,17
 344 302 344 302 364 283 c 128,-1,18
 384 264 384 264 403 264 c 0,19,20
 436 265 436 265 455 302.5 c 128,-1,21
 474 340 474 340 487 403 c 1,22,-1
 548 389 l 1,23,24
 526 282 526 282 490 239.5 c 128,-1,25
 454 197 454 197 402 197 c 0,0,1
EndSplineSet
EndChar

StartChar: plus
Encoding: 43 43 126
Width: 600
GlyphClass: 1
Flags: W
LayerCount: 2
Fore
SplineSet
262 62 m 1,0,-1
 262 271 l 1,1,-1
 62 271 l 1,2,-1
 62 339 l 1,3,-1
 262 339 l 1,4,-1
 262 548 l 1,5,-1
 338 548 l 1,6,-1
 338 339 l 1,7,-1
 538 339 l 1,8,-1
 538 271 l 1,9,-1
 338 271 l 1,10,-1
 338 62 l 1,11,-1
 262 62 l 1,0,-1
EndSplineSet
EndChar

StartChar: minus
Encoding: 8722 8722 127
Width: 600
GlyphClass: 1
Flags: W
LayerCount: 2
Fore
SplineSet
62 271 m 1,0,-1
 62 339 l 1,1,-1
 538 339 l 1,2,-1
 538 271 l 1,3,-1
 62 271 l 1,0,-1
EndSplineSet
EndChar

StartChar: plusminus
Encoding: 177 177 128
Width: 600
GlyphClass: 1
Flags: W
LayerCount: 2
Fore
SplineSet
262 152 m 1,0,-1
 262 351 l 1,1,-1
 62 351 l 1,2,-1
 62 419 l 1,3,-1
 262 419 l 1,4,-1
 262 618 l 1,5,-1
 338 618 l 1,6,-1
 338 419 l 1,7,-1
 538 419 l 1,8,-1
 538 351 l 1,9,-1
 338 351 l 1,10,-1
 338 152 l 1,11,-1
 262 152 l 1,0,-1
62 0 m 1,12,-1
 62 68 l 1,13,-1
 538 68 l 1,14,-1
 538 0 l 1,15,-1
 62 0 l 1,12,-1
EndSplineSet
EndChar

StartChar: multiply
Encoding: 215 215 129
Width: 600
GlyphClass: 1
Flags: W
LayerCount: 2
Fore
SplineSet
300 256 m 1,0,-1
 137 93 l 1,1,-1
 88 142 l 1,2,-1
 251 305 l 1,3,-1
 88 468 l 1,4,-1
 137 517 l 1,5,-1
 300 354 l 1,6,-1
 463 517 l 1,7,-1
 512 468 l 1,8,-1
 349 305 l 1,9,-1
 512 142 l 1,10,-1
 463 93 l 1,11,-1
 300 256 l 1,0,-1
EndSplineSet
EndChar

StartChar: divide
Encoding: 247 247 130
Width: 600
GlyphClass: 1
Flags: W
LayerCount: 2
Fore
SplineSet
62 271 m 1,0,-1
 62 339 l 1,1,-1
 538 339 l 1,2,-1
 538 271 l 1,3,-1
 62 271 l 1,0,-1
300 52 m 256,4,5
 265 52 265 52 251.5 66 c 128,-1,6
 238 80 238 80 238 100 c 2,7,-1
 238 122 l 2,8,9
 238 142 238 142 251.5 156 c 128,-1,10
 265 170 265 170 300 170 c 256,11,12
 335 170 335 170 348.5 156 c 128,-1,13
 362 142 362 142 362 122 c 2,14,-1
 362 100 l 2,15,16
 362 80 362 80 348.5 66 c 128,-1,17
 335 52 335 52 300 52 c 256,4,5
300 440 m 256,18,19
 265 440 265 440 251.5 454 c 128,-1,20
 238 468 238 468 238 488 c 2,21,-1
 238 510 l 2,22,23
 238 530 238 530 251.5 544 c 128,-1,24
 265 558 265 558 300 558 c 256,25,26
 335 558 335 558 348.5 544 c 128,-1,27
 362 530 362 530 362 510 c 2,28,-1
 362 488 l 2,29,30
 362 468 362 468 348.5 454 c 128,-1,31
 335 440 335 440 300 440 c 256,18,19
EndSplineSet
EndChar

StartChar: equal
Encoding: 61 61 131
Width: 600
GlyphClass: 1
Flags: W
LayerCount: 2
Fore
SplineSet
62 372 m 1,0,-1
 62 440 l 1,1,-1
 538 440 l 1,2,-1
 538 372 l 1,3,-1
 62 372 l 1,0,-1
62 172 m 1,4,-1
 62 240 l 1,5,-1
 538 240 l 1,6,-1
 538 172 l 1,7,-1
 62 172 l 1,4,-1
EndSplineSet
EndChar

StartChar: approxequal
Encoding: 8776 8776 132
Width: 600
GlyphClass: 1
Flags: W
LayerCount: 2
Fore
SplineSet
408 337 m 0,0,1
 377 337 377 337 349 346.5 c 128,-1,2
 321 356 321 356 295 369 c 256,3,4
 269 382 269 382 242.5 394 c 128,-1,5
 216 406 216 406 191 406 c 0,6,7
 162 406 162 406 144 386.5 c 128,-1,8
 126 367 126 367 113 337 c 1,9,-1
 52 362 l 1,10,11
 66 410 66 410 101 441.5 c 128,-1,12
 136 473 136 473 192 473 c 0,13,14
 223 473 223 473 251 463.5 c 128,-1,15
 279 454 279 454 305 441 c 256,16,17
 331 428 331 428 357.5 416 c 128,-1,18
 384 404 384 404 409 404 c 0,19,20
 438 404 438 404 456 423.5 c 128,-1,21
 474 443 474 443 487 473 c 1,22,-1
 548 448 l 1,23,24
 534 400 534 400 499 368.5 c 128,-1,25
 464 337 464 337 408 337 c 0,0,1
408 138 m 0,26,27
 377 138 377 138 349 147.5 c 128,-1,28
 321 157 321 157 295 170 c 256,29,30
 269 183 269 183 242.5 195 c 128,-1,31
 216 207 216 207 191 207 c 0,32,33
 162 207 162 207 144 187.5 c 128,-1,34
 126 168 126 168 113 138 c 1,35,-1
 52 163 l 1,36,37
 66 211 66 211 101 242.5 c 128,-1,38
 136 274 136 274 192 274 c 0,39,40
 223 274 223 274 251 264.5 c 128,-1,41
 279 255 279 255 305 242 c 256,42,43
 331 229 331 229 357.5 217 c 128,-1,44
 384 205 384 205 409 205 c 0,45,46
 438 205 438 205 456 224.5 c 128,-1,47
 474 244 474 244 487 274 c 1,48,-1
 548 249 l 1,49,50
 534 201 534 201 499 169.5 c 128,-1,51
 464 138 464 138 408 138 c 0,26,27
EndSplineSet
EndChar

StartChar: notequal
Encoding: 8800 8800 133
Width: 600
GlyphClass: 1
Flags: W
LayerCount: 2
Fore
SplineSet
137 72 m 1,0,-1
 192 172 l 1,1,-1
 62 172 l 1,2,-1
 62 240 l 1,3,-1
 229 240 l 1,4,-1
 300 372 l 1,5,-1
 62 372 l 1,6,-1
 62 440 l 1,7,-1
 337 440 l 1,8,-1
 391 540 l 1,9,-1
 463 540 l 1,10,-1
 408 440 l 1,11,-1
 538 440 l 1,12,-1
 538 372 l 1,13,-1
 371 372 l 1,14,-1
 300 240 l 1,15,-1
 538 240 l 1,16,-1
 538 172 l 1,17,-1
 263 172 l 1,18,-1
 209 72 l 1,19,-1
 137 72 l 1,0,-1
EndSplineSet
EndChar

StartChar: less
Encoding: 60 60 134
Width: 600
GlyphClass: 1
Flags: W
LayerCount: 2
Fore
SplineSet
85 265 m 1,0,-1
 85 345 l 1,1,-1
 515 594 l 1,2,-1
 515 511 l 1,3,-1
 160 310 l 1,4,-1
 160 302 l 1,5,-1
 515 101 l 1,6,-1
 515 16 l 1,7,-1
 85 265 l 1,0,-1
EndSplineSet
EndChar

StartChar: greater
Encoding: 62 62 135
Width: 600
GlyphClass: 1
Flags: W
LayerCount: 2
Fore
SplineSet
85 99 m 1,0,-1
 440 300 l 1,1,-1
 440 308 l 1,2,-1
 85 509 l 1,3,-1
 85 594 l 1,4,-1
 515 345 l 1,5,-1
 515 265 l 1,6,-1
 85 16 l 1,7,-1
 85 99 l 1,0,-1
EndSplineSet
EndChar

StartChar: lessequal
Encoding: 8804 8804 136
Width: 600
GlyphClass: 1
Flags: W
LayerCount: 2
Fore
SplineSet
85 0 m 1,0,-1
 85 68 l 1,1,-1
 515 68 l 1,2,-1
 515 0 l 1,3,-1
 85 0 l 1,0,-1
515 513 m 1,4,-1
 160 361 l 1,5,-1
 160 354 l 1,6,-1
 515 203 l 1,7,-1
 515 121 l 1,8,-1
 85 312 l 1,9,-1
 85 401 l 1,10,-1
 515 593 l 1,11,-1
 515 513 l 1,4,-1
EndSplineSet
EndChar

StartChar: greaterequal
Encoding: 8805 8805 137
Width: 600
GlyphClass: 1
Flags: W
LayerCount: 2
Fore
SplineSet
85 201 m 1,0,-1
 440 353 l 1,1,-1
 440 360 l 1,2,-1
 85 511 l 1,3,-1
 85 593 l 1,4,-1
 515 402 l 1,5,-1
 515 313 l 1,6,-1
 85 121 l 1,7,-1
 85 201 l 1,0,-1
85 68 m 1,8,-1
 515 68 l 1,9,-1
 515 0 l 1,10,-1
 85 0 l 1,11,-1
 85 68 l 1,8,-1
EndSplineSet
EndChar

StartChar: periodcentered
Encoding: 183 183 138
Width: 600
GlyphClass: 1
Flags: W
LayerCount: 2
Fore
SplineSet
300 235 m 256,0,1
 259 235 259 235 242.5 252 c 128,-1,2
 226 269 226 269 226 295 c 2,3,-1
 226 313 l 2,4,5
 226 339 226 339 242.5 356 c 128,-1,6
 259 373 259 373 300 373 c 256,7,8
 341 373 341 373 357.5 356 c 128,-1,9
 374 339 374 339 374 313 c 2,10,-1
 374 295 l 2,11,12
 374 269 374 269 357.5 252 c 128,-1,13
 341 235 341 235 300 235 c 256,0,1
EndSplineSet
EndChar

StartChar: bullet
Encoding: 8226 8226 139
Width: 600
GlyphClass: 1
Flags: W
LayerCount: 2
Fore
SplineSet
300 186 m 256,0,1
 233 186 233 186 205.5 216 c 128,-1,2
 178 246 178 246 178 290 c 2,3,-1
 178 318 l 2,4,5
 178 362 178 362 205.5 392 c 128,-1,6
 233 422 233 422 300 422 c 256,7,8
 367 422 367 422 394.5 392 c 128,-1,9
 422 362 422 362 422 318 c 2,10,-1
 422 290 l 2,11,12
 422 246 422 246 394.5 216 c 128,-1,13
 367 186 367 186 300 186 c 256,0,1
EndSplineSet
EndChar

StartChar: lozenge
Encoding: 9674 9674 140
Width: 600
GlyphClass: 1
Flags: W
LayerCount: 2
Fore
SplineSet
260 0 m 1,0,-1
 42 349 l 1,1,-1
 260 698 l 1,2,-1
 341 698 l 1,3,-1
 559 349 l 1,4,-1
 341 0 l 1,5,-1
 260 0 l 1,0,-1
304 75 m 1,6,-1
 475 349 l 1,7,-1
 304 623 l 1,8,-1
 297 623 l 1,9,-1
 126 349 l 1,10,-1
 297 75 l 1,11,-1
 304 75 l 1,6,-1
EndSplineSet
EndChar

StartChar: logicalnot
Encoding: 172 172 141
Width: 600
GlyphClass: 1
Flags: W
LayerCount: 2
Fore
SplineSet
453 78 m 1,0,-1
 453 271 l 1,1,-1
 62 271 l 1,2,-1
 62 339 l 1,3,-1
 522 339 l 1,4,-1
 522 78 l 1,5,-1
 453 78 l 1,0,-1
EndSplineSet
EndChar

StartChar: radical
Encoding: 8730 8730 142
Width: 600
GlyphClass: 1
Flags: W
LayerCount: 2
Fore
SplineSet
253 0 m 1,0,-1
 126 452 l 1,1,-1
 24 452 l 1,2,-1
 24 516 l 1,3,-1
 187 516 l 1,4,-1
 232 351 l 1,5,-1
 309 67 l 1,6,-1
 314 67 l 1,7,-1
 395 351 l 1,8,-1
 494 698 l 1,9,-1
 572 698 l 1,10,-1
 367 0 l 1,11,-1
 253 0 l 1,0,-1
EndSplineSet
EndChar

StartChar: integral
Encoding: 8747 8747 143
Width: 600
GlyphClass: 1
Flags: W
LayerCount: 2
Fore
SplineSet
35 -132 m 1,0,-1
 247 -132 l 1,1,-1
 247 622 l 2,2,3
 247 674 247 674 274.5 707 c 128,-1,4
 302 740 302 740 361 740 c 2,5,-1
 539 740 l 1,6,-1
 539 671 l 1,7,-1
 327 671 l 1,8,-1
 327 -82 l 2,9,10
 327 -134 327 -134 299.5 -167 c 128,-1,11
 272 -200 272 -200 213 -200 c 2,12,-1
 35 -200 l 1,13,-1
 35 -132 l 1,0,-1
EndSplineSet
EndChar

StartChar: infinity
Encoding: 8734 8734 144
Width: 600
GlyphClass: 1
Flags: W
LayerCount: 2
Fore
SplineSet
157 126 m 0,0,1
 87 126 87 126 49 173 c 128,-1,2
 11 220 11 220 11 305 c 256,3,4
 11 390 11 390 52 437 c 128,-1,5
 93 484 93 484 165 484 c 0,6,7
 219 484 219 484 256.5 452.5 c 128,-1,8
 294 421 294 421 316 351 c 1,9,-1
 320 351 l 1,10,11
 333 417 333 417 366 450.5 c 128,-1,12
 399 484 399 484 442 484 c 0,13,14
 512 484 512 484 550.5 437 c 128,-1,15
 589 390 589 390 589 305 c 256,16,17
 589 220 589 220 548 173 c 128,-1,18
 507 126 507 126 435 126 c 0,19,20
 381 126 381 126 343.5 157.5 c 128,-1,21
 306 189 306 189 284 259 c 1,22,-1
 280 259 l 1,23,24
 267 193 267 193 233.5 159.5 c 128,-1,25
 200 126 200 126 157 126 c 0,0,1
166 188 m 0,26,27
 200 188 200 188 226.5 220 c 128,-1,28
 253 252 253 252 269 307 c 1,29,30
 253 361 253 361 226.5 391.5 c 128,-1,31
 200 422 200 422 166 422 c 0,32,33
 130 422 130 422 108.5 399 c 128,-1,34
 87 376 87 376 87 332 c 2,35,-1
 87 278 l 2,36,37
 87 234 87 234 108.5 211 c 128,-1,38
 130 188 130 188 166 188 c 0,26,27
434 188 m 0,39,40
 470 188 470 188 491.5 211 c 128,-1,41
 513 234 513 234 513 278 c 2,42,-1
 513 332 l 2,43,44
 513 376 513 376 491.5 399 c 128,-1,45
 470 422 470 422 434 422 c 0,46,47
 400 422 400 422 373.5 390 c 128,-1,48
 347 358 347 358 331 303 c 1,49,50
 347 249 347 249 373.5 218.5 c 128,-1,51
 400 188 400 188 434 188 c 0,39,40
EndSplineSet
EndChar

StartChar: uni212E
Encoding: 8494 8494 145
Width: 600
GlyphClass: 1
Flags: W
LayerCount: 2
Fore
SplineSet
145 109 m 1,0,1
 169 79 169 79 208.5 56.5 c 128,-1,2
 248 34 248 34 300 34 c 0,3,4
 338 34 338 34 369 44 c 128,-1,5
 400 54 400 54 424.5 72 c 128,-1,6
 449 90 449 90 469 115 c 128,-1,7
 489 140 489 140 505 170 c 1,8,-1
 546 147 l 1,9,10
 528 114 528 114 505 85.5 c 128,-1,11
 482 57 482 57 452 35 c 128,-1,12
 422 13 422 13 384 0.5 c 128,-1,13
 346 -12 346 -12 300 -12 c 0,14,15
 238 -12 238 -12 187.5 15.5 c 128,-1,16
 137 43 137 43 101 91 c 128,-1,17
 65 139 65 139 45.5 205 c 128,-1,18
 26 271 26 271 26 349 c 256,19,20
 26 427 26 427 45.5 493 c 128,-1,21
 65 559 65 559 101 607 c 128,-1,22
 137 655 137 655 187.5 682.5 c 128,-1,23
 238 710 238 710 300 710 c 256,24,25
 362 710 362 710 412.5 682.5 c 128,-1,26
 463 655 463 655 499 607 c 128,-1,27
 535 559 535 559 554.5 493 c 128,-1,28
 574 427 574 427 574 349 c 1,29,-1
 145 349 l 1,30,-1
 145 109 l 1,0,1
455 389 m 1,31,-1
 455 594 l 1,32,33
 429 625 429 625 390 645.5 c 128,-1,34
 351 666 351 666 300 666 c 256,35,36
 249 666 249 666 210 645.5 c 128,-1,37
 171 625 171 625 145 594 c 1,38,-1
 145 389 l 1,39,-1
 455 389 l 1,31,-1
EndSplineSet
EndChar

StartChar: uni2113
Encoding: 8467 8467 146
Width: 600
GlyphClass: 1
Flags: W
LayerCount: 2
Fore
SplineSet
321 -12 m 0,0,1
 241 -12 241 -12 200 35.5 c 128,-1,2
 159 83 159 83 159 159 c 2,3,-1
 159 183 l 1,4,5
 145 172 145 172 131.5 163.5 c 128,-1,6
 118 155 118 155 103 146 c 1,7,-1
 70 200 l 1,8,9
 92 214 92 214 115 228 c 128,-1,10
 138 242 138 242 159 259 c 1,11,-1
 159 555 l 2,12,13
 159 609 159 609 169.5 646.5 c 128,-1,14
 180 684 180 684 199.5 707.5 c 128,-1,15
 219 731 219 731 246.5 741.5 c 128,-1,16
 274 752 274 752 307 752 c 0,17,18
 376 752 376 752 412 709 c 128,-1,19
 448 666 448 666 448 585 c 0,20,21
 448 486 448 486 394 399.5 c 128,-1,22
 340 313 340 313 238 223 c 1,23,-1
 238 178 l 2,24,25
 238 110 238 110 260.5 82.5 c 128,-1,26
 283 55 283 55 325 55 c 0,27,28
 369 55 369 55 396.5 83 c 128,-1,29
 424 111 424 111 452 162 c 1,30,-1
 510 127 l 1,31,32
 498 98 498 98 481.5 72.5 c 128,-1,33
 465 47 465 47 441.5 28.5 c 128,-1,34
 418 10 418 10 388 -1 c 128,-1,35
 358 -12 358 -12 321 -12 c 0,0,1
308 685 m 0,36,37
 277 685 277 685 257.5 658.5 c 128,-1,38
 238 632 238 632 238 562 c 2,39,-1
 238 309 l 1,40,41
 304 376 304 376 338.5 442 c 128,-1,42
 373 508 373 508 373 575 c 2,43,-1
 373 592 l 2,44,45
 373 643 373 643 355 664 c 128,-1,46
 337 685 337 685 308 685 c 0,36,37
EndSplineSet
EndChar

StartChar: uni2116
Encoding: 8470 8470 147
Width: 600
GlyphClass: 1
Flags: W
LayerCount: 2
Fore
SplineSet
481 345 m 256,0,1
 373 345 373 345 373 526 c 0,2,3
 373 706 373 706 481 706 c 256,4,5
 589 706 589 706 589 526 c 0,6,7
 589 345 589 345 481 345 c 256,0,1
43 0 m 1,8,-1
 43 698 l 1,9,-1
 170 698 l 1,10,-1
 221 349 l 1,11,-1
 259 90 l 1,12,-1
 265 90 l 1,13,-1
 265 698 l 1,14,-1
 333 698 l 1,15,-1
 333 0 l 1,16,-1
 206 0 l 1,17,-1
 155 349 l 1,18,-1
 117 608 l 1,19,-1
 111 608 l 1,20,-1
 111 0 l 1,21,-1
 43 0 l 1,8,-1
481 399 m 0,22,23
 509 399 509 399 518 422 c 128,-1,24
 527 445 527 445 527 488 c 2,25,-1
 527 563 l 2,26,27
 527 606 527 606 518 629 c 128,-1,28
 509 652 509 652 481 652 c 0,29,30
 452 652 452 652 443.5 629 c 128,-1,31
 435 606 435 606 435 563 c 2,32,-1
 435 488 l 2,33,34
 435 445 435 445 443.5 422 c 128,-1,35
 452 399 452 399 481 399 c 0,22,23
377 256 m 1,36,-1
 377 313 l 1,37,-1
 585 313 l 1,38,-1
 585 256 l 1,39,-1
 377 256 l 1,36,-1
EndSplineSet
EndChar

StartChar: partialdiff
Encoding: 8706 8706 148
Width: 600
GlyphClass: 1
Flags: W
LayerCount: 2
Fore
SplineSet
534 272 m 0,0,1
 534 199 534 199 518 145.5 c 128,-1,2
 502 92 502 92 472 57 c 128,-1,3
 442 22 442 22 399.5 5 c 128,-1,4
 357 -12 357 -12 304 -12 c 0,5,6
 248 -12 248 -12 203.5 6 c 128,-1,7
 159 24 159 24 128.5 58 c 128,-1,8
 98 92 98 92 82 139.5 c 128,-1,9
 66 187 66 187 66 246 c 256,10,11
 66 305 66 305 82 353 c 128,-1,12
 98 401 98 401 126.5 434.5 c 128,-1,13
 155 468 155 468 194 486 c 128,-1,14
 233 504 233 504 279 504 c 0,15,16
 341 504 341 504 380.5 475.5 c 128,-1,17
 420 447 420 447 445 408 c 1,18,-1
 449 410 l 1,19,20
 432 458 432 458 401.5 499.5 c 128,-1,21
 371 541 371 541 330.5 577 c 128,-1,22
 290 613 290 613 242 643 c 128,-1,23
 194 673 194 673 142 698 c 1,24,-1
 273 698 l 1,25,26
 312 675 312 675 357.5 641.5 c 128,-1,27
 403 608 403 608 442 558.5 c 128,-1,28
 481 509 481 509 507.5 439 c 128,-1,29
 534 369 534 369 534 272 c 0,0,1
300 57 m 256,30,31
 367 57 367 57 408 95 c 128,-1,32
 449 133 449 133 449 211 c 2,33,-1
 449 281 l 2,34,35
 449 359 449 359 408 397 c 128,-1,36
 367 435 367 435 300 435 c 256,37,38
 233 435 233 435 192 397 c 128,-1,39
 151 359 151 359 151 281 c 2,40,-1
 151 211 l 2,41,42
 151 133 151 133 192 95 c 128,-1,43
 233 57 233 57 300 57 c 256,30,31
EndSplineSet
EndChar

StartChar: currency
Encoding: 164 164 149
Width: 600
GlyphClass: 1
Flags: W
LayerCount: 2
Fore
SplineSet
300 119 m 256,0,1
 248 119 248 119 206 139 c 1,2,-1
 137 21 l 1,3,-1
 76 56 l 1,4,-1
 150 182 l 1,5,6
 96 244 96 244 96 349 c 256,7,8
 96 454 96 454 150 516 c 1,9,-1
 76 642 l 1,10,-1
 137 677 l 1,11,-1
 206 559 l 1,12,13
 248 579 248 579 300 579 c 256,14,15
 352 579 352 579 394 559 c 1,16,-1
 463 677 l 1,17,-1
 524 642 l 1,18,-1
 450 516 l 1,19,20
 504 454 504 454 504 349 c 256,21,22
 504 244 504 244 450 182 c 1,23,-1
 524 56 l 1,24,-1
 463 21 l 1,25,-1
 394 139 l 1,26,27
 352 119 352 119 300 119 c 256,0,1
300 186 m 256,28,29
 354 186 354 186 386.5 218.5 c 128,-1,30
 419 251 419 251 419 317 c 2,31,-1
 419 381 l 2,32,33
 419 447 419 447 386.5 479.5 c 128,-1,34
 354 512 354 512 300 512 c 256,35,36
 246 512 246 512 213.5 479.5 c 128,-1,37
 181 447 181 447 181 381 c 2,38,-1
 181 317 l 2,39,40
 181 251 181 251 213.5 218.5 c 128,-1,41
 246 186 246 186 300 186 c 256,28,29
EndSplineSet
EndChar

StartChar: cent
Encoding: 162 162 150
Width: 600
GlyphClass: 1
Flags: W
LayerCount: 2
Fore
SplineSet
279 -114 m 1,0,-1
 279 -9 l 1,1,2
 185 4 185 4 134.5 75 c 128,-1,3
 84 146 84 146 84 258 c 256,4,5
 84 370 84 370 135 441 c 128,-1,6
 186 512 186 512 279 525 c 1,7,-1
 279 630 l 1,8,-1
 341 630 l 1,9,-1
 341 527 l 1,10,11
 406 522 406 522 447 489.5 c 128,-1,12
 488 457 488 457 508 409 c 1,13,-1
 444 375 l 1,14,15
 431 410 431 410 405 431.5 c 128,-1,16
 379 453 379 453 340 458 c 1,17,-1
 340 58 l 1,18,19
 383 63 383 63 412.5 86 c 128,-1,20
 442 109 442 109 459 147 c 1,21,-1
 516 108 l 1,22,23
 495 60 495 60 452 27 c 128,-1,24
 409 -6 409 -6 341 -11 c 1,25,-1
 341 -114 l 1,26,-1
 279 -114 l 1,0,-1
170 214 m 2,27,28
 170 155 170 155 198 113.5 c 128,-1,29
 226 72 226 72 280 61 c 1,30,-1
 280 455 l 1,31,32
 226 444 226 444 198 402.5 c 128,-1,33
 170 361 170 361 170 302 c 2,34,-1
 170 214 l 2,27,28
EndSplineSet
EndChar

StartChar: Euro
Encoding: 8364 8364 151
Width: 600
GlyphClass: 1
Flags: W
LayerCount: 2
Fore
SplineSet
323 -12 m 0,0,1
 195 -12 195 -12 132.5 81 c 128,-1,2
 70 174 70 174 70 349 c 256,3,4
 70 524 70 524 132.5 617 c 128,-1,5
 195 710 195 710 323 710 c 0,6,7
 371 710 371 710 406 697 c 128,-1,8
 441 684 441 684 466 662 c 128,-1,9
 491 640 491 640 508 612.5 c 128,-1,10
 525 585 525 585 538 557 c 1,11,-1
 468 525 l 1,12,13
 459 549 459 549 447 569.5 c 128,-1,14
 435 590 435 590 418.5 605.5 c 128,-1,15
 402 621 402 621 378.5 630 c 128,-1,16
 355 639 355 639 323 639 c 0,17,18
 251 639 251 639 211 592 c 128,-1,19
 171 545 171 545 160 464 c 1,20,-1
 388 464 l 1,21,-1
 388 395 l 1,22,-1
 157 395 l 1,23,-1
 157 303 l 1,24,-1
 388 303 l 1,25,-1
 388 234 l 1,26,-1
 160 234 l 1,27,28
 171 153 171 153 211 106 c 128,-1,29
 251 59 251 59 323 59 c 0,30,31
 355 59 355 59 378.5 68 c 128,-1,32
 402 77 402 77 418.5 92.5 c 128,-1,33
 435 108 435 108 447 128.5 c 128,-1,34
 459 149 459 149 468 173 c 1,35,-1
 538 141 l 1,36,37
 525 112 525 112 508 85 c 128,-1,38
 491 58 491 58 466 36 c 128,-1,39
 441 14 441 14 406 1 c 128,-1,40
 371 -12 371 -12 323 -12 c 0,0,1
EndSplineSet
EndChar

StartChar: florin
Encoding: 402 402 152
Width: 600
GlyphClass: 1
Flags: W
LayerCount: 2
Fore
SplineSet
-31 -132 m 1,0,-1
 180 -132 l 1,1,-1
 263 370 l 1,2,-1
 78 370 l 1,3,-1
 89 438 l 1,4,-1
 275 438 l 1,5,-1
 299 585 l 2,6,7
 308 637 308 637 338 667.5 c 128,-1,8
 368 698 368 698 427 698 c 2,9,-1
 610 698 l 1,10,-1
 598 629 l 1,11,-1
 386 629 l 1,12,-1
 354 438 l 1,13,-1
 539 438 l 1,14,-1
 528 370 l 1,15,-1
 343 370 l 1,16,-1
 267 -87 l 2,17,18
 258 -139 258 -139 228 -169.5 c 128,-1,19
 198 -200 198 -200 139 -200 c 2,20,-1
 -43 -200 l 1,21,-1
 -31 -132 l 1,0,-1
EndSplineSet
EndChar

StartChar: sterling
Encoding: 163 163 153
Width: 600
GlyphClass: 1
Flags: W
LayerCount: 2
Fore
SplineSet
75 0 m 1,0,-1
 75 105 l 1,1,2
 117 122 117 122 135.5 156 c 128,-1,3
 154 190 154 190 154 237 c 0,4,5
 154 250 154 250 152.5 262 c 128,-1,6
 151 274 151 274 149 286 c 1,7,-1
 52 286 l 1,8,-1
 52 355 l 1,9,-1
 130 355 l 1,10,11
 119 389 119 389 108.5 423 c 128,-1,12
 98 457 98 457 98 499 c 0,13,14
 98 545 98 545 114 584 c 128,-1,15
 130 623 130 623 160.5 651 c 128,-1,16
 191 679 191 679 234.5 694.5 c 128,-1,17
 278 710 278 710 332 710 c 0,18,19
 412 710 412 710 464.5 678.5 c 128,-1,20
 517 647 517 647 550 596 c 1,21,-1
 487 551 l 1,22,23
 459 592 459 592 421.5 614.5 c 128,-1,24
 384 637 384 637 327 637 c 0,25,26
 261 637 261 637 222.5 604 c 128,-1,27
 184 571 184 571 184 494 c 0,28,29
 184 453 184 453 193.5 420 c 128,-1,30
 203 387 203 387 214 355 c 1,31,-1
 415 355 l 1,32,-1
 415 286 l 1,33,-1
 233 286 l 1,34,35
 236 266 236 266 236 247 c 0,36,37
 236 216 236 216 228.5 190.5 c 128,-1,38
 221 165 221 165 209 144.5 c 128,-1,39
 197 124 197 124 182.5 109 c 128,-1,40
 168 94 168 94 154 85 c 1,41,-1
 154 80 l 1,42,-1
 538 80 l 1,43,-1
 538 0 l 1,44,-1
 75 0 l 1,0,-1
EndSplineSet
EndChar

StartChar: dollar
Encoding: 36 36 154
Width: 600
GlyphClass: 1
Flags: W
LayerCount: 2
Fore
SplineSet
279 -11 m 1,0,1
 196 -6 196 -6 141 27.5 c 128,-1,2
 86 61 86 61 50 111 c 1,3,-1
 111 161 l 1,4,5
 147 116 147 116 187 91 c 128,-1,6
 227 66 227 66 280 61 c 1,7,-1
 280 322 l 1,8,-1
 257 326 l 2,9,10
 205 335 205 335 170 353.5 c 128,-1,11
 135 372 135 372 114 397.5 c 128,-1,12
 93 423 93 423 84 454.5 c 128,-1,13
 75 486 75 486 75 520 c 0,14,15
 75 605 75 605 129.5 653.5 c 128,-1,16
 184 702 184 702 279 709 c 1,17,-1
 279 811 l 1,18,-1
 341 811 l 1,19,-1
 341 709 l 1,20,21
 410 704 410 704 460.5 675.5 c 128,-1,22
 511 647 511 647 549 596 c 1,23,-1
 486 551 l 1,24,25
 459 587 459 587 424.5 609 c 128,-1,26
 390 631 390 631 340 636 c 1,27,-1
 340 391 l 1,28,-1
 370 386 l 2,29,30
 421 377 421 377 456 359 c 128,-1,31
 491 341 491 341 512.5 315.5 c 128,-1,32
 534 290 534 290 543 258 c 128,-1,33
 552 226 552 226 552 191 c 0,34,35
 552 103 552 103 497.5 50 c 128,-1,36
 443 -3 443 -3 341 -11 c 1,37,-1
 341 -113 l 1,38,-1
 279 -113 l 1,39,-1
 279 -11 l 1,0,1
156 520 m 0,40,41
 156 471 156 471 184.5 443 c 128,-1,42
 213 415 213 415 280 401 c 1,43,-1
 280 637 l 1,44,45
 220 631 220 631 188 601.5 c 128,-1,46
 156 572 156 572 156 520 c 0,40,41
471 190 m 0,47,48
 471 244 471 244 440.5 272 c 128,-1,49
 410 300 410 300 340 312 c 1,50,-1
 340 62 l 1,51,52
 403 69 403 69 437 102 c 128,-1,53
 471 135 471 135 471 190 c 0,47,48
EndSplineSet
EndChar

StartChar: yen
Encoding: 165 165 155
Width: 600
GlyphClass: 1
Flags: W
LayerCount: 2
Fore
SplineSet
75 69 m 1,0,-1
 260 69 l 1,1,-1
 260 255 l 1,2,-1
 75 255 l 1,3,-1
 75 324 l 1,4,-1
 216 324 l 1,5,-1
 22 698 l 1,6,-1
 115 698 l 1,7,-1
 299 324 l 1,8,-1
 303 324 l 1,9,-1
 487 698 l 1,10,-1
 578 698 l 1,11,-1
 384 324 l 1,12,-1
 525 324 l 1,13,-1
 525 255 l 1,14,-1
 340 255 l 1,15,-1
 340 69 l 1,16,-1
 525 69 l 1,17,-1
 525 0 l 1,18,-1
 75 0 l 1,19,-1
 75 69 l 1,0,-1
EndSplineSet
EndChar

StartChar: uni0E3F
Encoding: 3647 3647 156
Width: 600
GlyphClass: 1
Flags: W
LayerCount: 2
Fore
SplineSet
326 -113 m 1,0,-1
 264 -113 l 1,1,-1
 264 0 l 1,2,-1
 88 0 l 1,3,-1
 88 698 l 1,4,-1
 264 698 l 1,5,-1
 264 811 l 1,6,-1
 326 811 l 1,7,-1
 326 698 l 1,8,-1
 334 698 l 2,9,10
 424 698 424 698 475 649 c 128,-1,11
 526 600 526 600 526 518 c 0,12,13
 526 451 526 451 494 415.5 c 128,-1,14
 462 380 462 380 413 364 c 1,15,-1
 413 361 l 1,16,17
 439 353 439 353 462 340 c 128,-1,18
 485 327 485 327 502 307.5 c 128,-1,19
 519 288 519 288 528.5 262 c 128,-1,20
 538 236 538 236 538 201 c 0,21,22
 538 159 538 159 524 122 c 128,-1,23
 510 85 510 85 484.5 58 c 128,-1,24
 459 31 459 31 424.5 15.5 c 128,-1,25
 390 0 390 0 350 0 c 2,26,-1
 326 0 l 1,27,-1
 326 -113 l 1,0,-1
265 394 m 1,28,-1
 265 627 l 1,29,-1
 170 627 l 1,30,-1
 170 394 l 1,31,-1
 265 394 l 1,28,-1
325 394 m 1,32,33
 382 394 382 394 412 417.5 c 128,-1,34
 442 441 442 441 442 489 c 2,35,-1
 442 530 l 2,36,37
 442 578 442 578 412 602.5 c 128,-1,38
 382 627 382 627 325 627 c 1,39,-1
 325 394 l 1,32,33
265 71 m 1,40,-1
 265 327 l 1,41,-1
 170 327 l 1,42,-1
 170 71 l 1,43,-1
 265 71 l 1,40,-1
325 71 m 1,44,45
 388 71 388 71 420.5 97 c 128,-1,46
 453 123 453 123 453 177 c 2,47,-1
 453 221 l 2,48,49
 453 274 453 274 420.5 300.5 c 128,-1,50
 388 327 388 327 325 327 c 1,51,-1
 325 71 l 1,44,45
EndSplineSet
EndChar

StartChar: uni20A1
Encoding: 8353 8353 157
Width: 600
GlyphClass: 1
Flags: W
LayerCount: 2
Fore
SplineSet
296 -11 m 1,0,1
 264 -8 264 -8 239 1 c 1,2,-1
 227 -113 l 1,3,-1
 165 -113 l 1,4,-1
 180 32 l 1,5,6
 124 74 124 74 97 154 c 128,-1,7
 70 234 70 234 70 349 c 0,8,9
 70 497 70 497 114.5 586.5 c 128,-1,10
 159 676 159 676 250 701 c 1,11,-1
 262 811 l 1,12,-1
 324 811 l 1,13,-1
 313 710 l 1,14,-1
 323 710 l 2,15,16
 336 710 336 710 348 709 c 128,-1,17
 360 708 360 708 371 706 c 1,18,-1
 382 811 l 1,19,-1
 444 811 l 1,20,-1
 431 686 l 1,21,22
 472 664 472 664 496.5 629.5 c 128,-1,23
 521 595 521 595 538 557 c 1,24,-1
 470 527 l 1,25,26
 461 550 461 550 449.5 570.5 c 128,-1,27
 438 591 438 591 421 606 c 1,28,-1
 363 61 l 1,29,30
 408 72 408 72 431 102.5 c 128,-1,31
 454 133 454 133 470 172 c 1,32,-1
 538 141 l 1,33,34
 526 115 526 115 511 90 c 128,-1,35
 496 65 496 65 475 44.5 c 128,-1,36
 454 24 454 24 425.5 9.5 c 128,-1,37
 397 -5 397 -5 358 -10 c 1,38,-1
 347 -113 l 1,39,-1
 285 -113 l 1,40,-1
 296 -11 l 1,0,1
323 641 m 0,41,42
 318 641 318 641 313.5 641 c 128,-1,43
 309 641 309 641 304 640 c 1,44,-1
 245 76 l 1,45,46
 270 61 270 61 305 58 c 1,47,-1
 366 636 l 1,48,49
 356 638 356 638 345.5 639.5 c 128,-1,50
 335 641 335 641 323 641 c 0,41,42
153 292 m 2,51,52
 153 187 153 187 192 126 c 1,53,-1
 244 622 l 1,54,55
 198 596 198 596 175.5 540.5 c 128,-1,56
 153 485 153 485 153 406 c 2,57,-1
 153 292 l 2,51,52
EndSplineSet
EndChar

StartChar: uni20A4
Encoding: 8356 8356 158
Width: 600
GlyphClass: 1
Flags: W
LayerCount: 2
Fore
SplineSet
538 0 m 1,0,-1
 75 0 l 1,1,-1
 75 105 l 1,2,3
 110 119 110 119 128.5 146 c 128,-1,4
 147 173 147 173 152 209 c 1,5,-1
 52 209 l 1,6,-1
 52 274 l 1,7,-1
 151 274 l 1,8,9
 148 296 148 296 142.5 316 c 128,-1,10
 137 336 137 336 130 356 c 1,11,-1
 52 356 l 1,12,-1
 52 421 l 1,13,-1
 109 421 l 1,14,15
 104 439 104 439 101 458.5 c 128,-1,16
 98 478 98 478 98 499 c 0,17,18
 98 545 98 545 114 584 c 128,-1,19
 130 623 130 623 160.5 651 c 128,-1,20
 191 679 191 679 234.5 694.5 c 128,-1,21
 278 710 278 710 332 710 c 0,22,23
 412 710 412 710 464.5 678.5 c 128,-1,24
 517 647 517 647 550 596 c 1,25,-1
 487 551 l 1,26,27
 459 592 459 592 421.5 614.5 c 128,-1,28
 384 637 384 637 327 637 c 0,29,30
 261 637 261 637 222.5 604 c 128,-1,31
 184 571 184 571 184 494 c 0,32,33
 184 474 184 474 186.5 456 c 128,-1,34
 189 438 189 438 193 421 c 1,35,-1
 415 421 l 1,36,-1
 415 356 l 1,37,-1
 213 356 l 1,38,39
 220 336 220 336 226 316 c 128,-1,40
 232 296 232 296 234 274 c 1,41,-1
 415 274 l 1,42,-1
 415 209 l 1,43,-1
 233 209 l 1,44,45
 225 163 225 163 201.5 132 c 128,-1,46
 178 101 178 101 154 85 c 1,47,-1
 154 80 l 1,48,-1
 538 80 l 1,49,-1
 538 0 l 1,0,-1
EndSplineSet
EndChar

StartChar: uni20A6
Encoding: 8358 8358 159
Width: 600
GlyphClass: 1
Flags: W
LayerCount: 2
Fore
SplineSet
298 248 m 1,0,-1
 162 248 l 1,1,-1
 162 0 l 1,2,-1
 92 0 l 1,3,-1
 92 244 l 1,4,-1
 27 244 l 1,5,-1
 27 309 l 1,6,-1
 92 309 l 1,7,-1
 92 389 l 1,8,-1
 27 389 l 1,9,-1
 27 454 l 1,10,-1
 92 454 l 1,11,-1
 92 698 l 1,12,-1
 217 698 l 1,13,-1
 302 450 l 1,14,-1
 438 450 l 1,15,-1
 438 698 l 1,16,-1
 508 698 l 1,17,-1
 508 454 l 1,18,-1
 573 454 l 1,19,-1
 573 389 l 1,20,-1
 508 389 l 1,21,-1
 508 309 l 1,22,-1
 573 309 l 1,23,-1
 573 244 l 1,24,-1
 508 244 l 1,25,-1
 508 0 l 1,26,-1
 383 0 l 1,27,-1
 298 248 l 1,0,-1
278 304 m 1,28,-1
 169 622 l 1,29,-1
 162 622 l 1,30,-1
 162 304 l 1,31,-1
 278 304 l 1,28,-1
431 76 m 1,32,-1
 438 76 l 1,33,-1
 438 394 l 1,34,-1
 322 394 l 1,35,-1
 431 76 l 1,32,-1
EndSplineSet
EndChar

StartChar: uni20A8
Encoding: 8360 8360 160
Width: 600
GlyphClass: 1
Flags: W
LayerCount: 2
Fore
SplineSet
49 0 m 1,0,-1
 49 698 l 1,1,-1
 178 698 l 2,2,3
 270 698 270 698 310 649.5 c 128,-1,4
 350 601 350 601 350 511 c 0,5,6
 350 443 350 443 327 399 c 128,-1,7
 304 355 304 355 250 338 c 1,8,-1
 338 130 l 2,9,10
 355 91 355 91 377.5 73 c 128,-1,11
 400 55 400 55 438 55 c 0,12,13
 474 55 474 55 494 71.5 c 128,-1,14
 514 88 514 88 514 121 c 0,15,16
 514 135 514 135 510.5 145.5 c 128,-1,17
 507 156 507 156 500 165.5 c 128,-1,18
 493 175 493 175 483 184.5 c 128,-1,19
 473 194 473 194 460 207 c 2,20,-1
 441 226 l 2,21,22
 409 258 409 258 388 288.5 c 128,-1,23
 367 319 367 319 367 361 c 0,24,25
 367 410 367 410 398.5 443 c 128,-1,26
 430 476 430 476 489 476 c 0,27,28
 514 476 514 476 538 468.5 c 128,-1,29
 562 461 562 461 585 444 c 1,30,-1
 553 390 l 1,31,32
 540 400 540 400 525 406 c 128,-1,33
 510 412 510 412 493 412 c 0,34,35
 468 412 468 412 455 398.5 c 128,-1,36
 442 385 442 385 442 361 c 0,37,38
 442 350 442 350 445 340.5 c 128,-1,39
 448 331 448 331 454.5 321.5 c 128,-1,40
 461 312 461 312 471 301 c 128,-1,41
 481 290 481 290 496 275 c 2,42,-1
 511 260 l 2,43,44
 527 244 527 244 541.5 229.5 c 128,-1,45
 556 215 556 215 566.5 199 c 128,-1,46
 577 183 577 183 583 164.5 c 128,-1,47
 589 146 589 146 589 121 c 0,48,49
 589 61 589 61 550.5 24.5 c 128,-1,50
 512 -12 512 -12 431 -12 c 0,51,52
 373 -12 373 -12 331.5 11 c 128,-1,53
 290 34 290 34 266 93 c 2,54,-1
 173 322 l 1,55,-1
 129 322 l 1,56,-1
 129 0 l 1,57,-1
 49 0 l 1,0,-1
171 392 m 2,58,59
 222 392 222 392 245 416 c 128,-1,60
 268 440 268 440 268 486 c 2,61,-1
 268 532 l 2,62,63
 268 578 268 578 245 602 c 128,-1,64
 222 626 222 626 171 626 c 2,65,-1
 129 626 l 1,66,-1
 129 392 l 1,67,-1
 171 392 l 2,58,59
EndSplineSet
EndChar

StartChar: uni20A9
Encoding: 8361 8361 161
Width: 600
GlyphClass: 1
Flags: W
LayerCount: 2
Fore
SplineSet
89 248 m 1,0,-1
 26 248 l 1,1,-1
 26 313 l 1,2,-1
 87 313 l 1,3,-1
 84 399 l 1,4,-1
 26 399 l 1,5,-1
 26 464 l 1,6,-1
 82 464 l 1,7,-1
 75 698 l 1,8,-1
 150 698 l 1,9,-1
 153 459 l 1,10,-1
 449 459 l 1,11,-1
 452 698 l 1,12,-1
 525 698 l 1,13,-1
 518 464 l 1,14,-1
 574 464 l 1,15,-1
 574 399 l 1,16,-1
 516 399 l 1,17,-1
 513 313 l 1,18,-1
 574 313 l 1,19,-1
 574 248 l 1,20,-1
 511 248 l 1,21,-1
 503 0 l 1,22,-1
 373 0 l 1,23,-1
 308 404 l 1,24,-1
 292 404 l 1,25,-1
 227 0 l 1,26,-1
 97 0 l 1,27,-1
 89 248 l 1,0,-1
177 74 m 1,28,-1
 231 404 l 1,29,-1
 154 404 l 1,30,-1
 160 74 l 1,31,-1
 177 74 l 1,28,-1
442 74 m 1,32,-1
 448 404 l 1,33,-1
 371 404 l 1,34,-1
 425 74 l 1,35,-1
 442 74 l 1,32,-1
EndSplineSet
EndChar

StartChar: uni20AA
Encoding: 8362 8362 162
Width: 600
GlyphClass: 1
Flags: W
LayerCount: 2
Fore
SplineSet
196 551 m 1,0,-1
 272 551 l 1,1,-1
 272 64 l 1,2,-1
 356 64 l 2,3,4
 377 64 377 64 397 70 c 128,-1,5
 417 76 417 76 433 90 c 128,-1,6
 449 104 449 104 458.5 126.5 c 128,-1,7
 468 149 468 149 468 182 c 2,8,-1
 468 698 l 1,9,-1
 545 698 l 1,10,-1
 545 198 l 2,11,12
 545 148 545 148 531 111 c 128,-1,13
 517 74 517 74 492 49 c 128,-1,14
 467 24 467 24 432 12 c 128,-1,15
 397 0 397 0 356 0 c 2,16,-1
 196 0 l 1,17,-1
 196 551 l 1,0,-1
59 0 m 1,18,-1
 59 698 l 1,19,-1
 221 698 l 2,20,21
 262 698 262 698 296.5 686 c 128,-1,22
 331 674 331 674 355.5 649 c 128,-1,23
 380 624 380 624 394 587 c 128,-1,24
 408 550 408 550 408 500 c 2,25,-1
 408 147 l 1,26,-1
 332 147 l 1,27,-1
 332 516 l 2,28,29
 332 549 332 549 322.5 571.5 c 128,-1,30
 313 594 313 594 297.5 608 c 128,-1,31
 282 622 282 622 262 628 c 128,-1,32
 242 634 242 634 221 634 c 2,33,-1
 136 634 l 1,34,-1
 136 0 l 1,35,-1
 59 0 l 1,18,-1
EndSplineSet
EndChar

StartChar: uni20AB
Encoding: 8363 8363 163
Width: 600
GlyphClass: 1
Flags: W
LayerCount: 2
Fore
SplineSet
411 208 m 1,0,-1
 407 208 l 1,1,2
 385 170 385 170 349.5 150 c 128,-1,3
 314 130 314 130 264 130 c 0,4,5
 179 130 179 130 131 185.5 c 128,-1,6
 83 241 83 241 83 345 c 0,7,8
 83 450 83 450 131 505.5 c 128,-1,9
 179 561 179 561 264 561 c 0,10,11
 314 561 314 561 349.5 541 c 128,-1,12
 385 521 385 521 407 483 c 1,13,-1
 411 483 l 1,14,-1
 411 619 l 1,15,-1
 258 619 l 1,16,-1
 258 680 l 1,17,-1
 411 680 l 1,18,-1
 411 740 l 1,19,-1
 487 740 l 1,20,-1
 487 680 l 1,21,-1
 556 680 l 1,22,-1
 556 619 l 1,23,-1
 487 619 l 1,24,-1
 487 139 l 1,25,-1
 411 139 l 1,26,-1
 411 208 l 1,0,-1
294 194 m 0,27,28
 318 194 318 194 339 200.5 c 128,-1,29
 360 207 360 207 376 219 c 128,-1,30
 392 231 392 231 401.5 248 c 128,-1,31
 411 265 411 265 411 286 c 2,32,-1
 411 405 l 2,33,34
 411 426 411 426 401.5 443 c 128,-1,35
 392 460 392 460 376 472 c 128,-1,36
 360 484 360 484 339 490.5 c 128,-1,37
 318 497 318 497 294 497 c 0,38,39
 232 497 232 497 198 465.5 c 128,-1,40
 164 434 164 434 164 380 c 2,41,-1
 164 311 l 2,42,43
 164 257 164 257 198 225.5 c 128,-1,44
 232 194 232 194 294 194 c 0,27,28
82 0 m 1,45,-1
 82 68 l 1,46,-1
 518 68 l 1,47,-1
 518 0 l 1,48,-1
 82 0 l 1,45,-1
EndSplineSet
EndChar

StartChar: uni20AD
Encoding: 8365 8365 164
Width: 600
GlyphClass: 1
Flags: W
LayerCount: 2
Fore
SplineSet
184 0 m 1,0,-1
 100 0 l 1,1,-1
 100 327 l 1,2,-1
 28 327 l 1,3,-1
 28 396 l 1,4,-1
 100 396 l 1,5,-1
 100 698 l 1,6,-1
 184 698 l 1,7,-1
 184 396 l 1,8,-1
 238 396 l 1,9,-1
 451 698 l 1,10,-1
 546 698 l 1,11,-1
 330 396 l 1,12,-1
 546 396 l 1,13,-1
 546 327 l 1,14,-1
 337 327 l 1,15,-1
 562 0 l 1,16,-1
 460 0 l 1,17,-1
 240 327 l 1,18,-1
 184 327 l 1,19,-1
 184 0 l 1,0,-1
EndSplineSet
EndChar

StartChar: uni20AE
Encoding: 8366 8366 165
Width: 600
GlyphClass: 1
Flags: W
LayerCount: 2
Fore
SplineSet
343 217 m 1,0,-1
 343 0 l 1,1,-1
 258 0 l 1,2,-1
 258 177 l 1,3,-1
 118 112 l 1,4,-1
 118 181 l 1,5,-1
 258 246 l 1,6,-1
 258 337 l 1,7,-1
 118 272 l 1,8,-1
 118 341 l 1,9,-1
 258 406 l 1,10,-1
 258 625 l 1,11,-1
 26 625 l 1,12,-1
 26 698 l 1,13,-1
 575 698 l 1,14,-1
 575 625 l 1,15,-1
 343 625 l 1,16,-1
 343 446 l 1,17,-1
 483 511 l 1,18,-1
 483 442 l 1,19,-1
 343 377 l 1,20,-1
 343 286 l 1,21,-1
 483 351 l 1,22,-1
 483 282 l 1,23,-1
 343 217 l 1,0,-1
EndSplineSet
EndChar

StartChar: uni20B1
Encoding: 8369 8369 166
Width: 600
GlyphClass: 1
Flags: W
LayerCount: 2
Fore
SplineSet
165 0 m 1,0,-1
 83 0 l 1,1,-1
 83 341 l 1,2,-1
 28 341 l 1,3,-1
 28 406 l 1,4,-1
 83 406 l 1,5,-1
 83 486 l 1,6,-1
 28 486 l 1,7,-1
 28 551 l 1,8,-1
 83 551 l 1,9,-1
 83 698 l 1,10,-1
 324 698 l 2,11,12
 402 698 402 698 446 659 c 128,-1,13
 490 620 490 620 507 551 c 1,14,-1
 574 551 l 1,15,-1
 574 486 l 1,16,-1
 517 486 l 1,17,18
 518 476 518 476 518 466.5 c 128,-1,19
 518 457 518 457 518 446 c 256,20,21
 518 435 518 435 518 425.5 c 128,-1,22
 518 416 518 416 517 406 c 1,23,-1
 574 406 l 1,24,-1
 574 341 l 1,25,-1
 507 341 l 1,26,27
 490 272 490 272 446 233 c 128,-1,28
 402 194 402 194 324 194 c 2,29,-1
 165 194 l 1,30,-1
 165 0 l 1,0,-1
165 549 m 1,31,-1
 432 549 l 1,32,33
 423 587 423 587 396 608 c 128,-1,34
 369 629 369 629 322 629 c 2,35,-1
 165 629 l 1,36,-1
 165 549 l 1,31,-1
436 404 m 1,37,-1
 436 488 l 1,38,-1
 165 488 l 1,39,-1
 165 404 l 1,40,-1
 436 404 l 1,37,-1
322 263 m 2,41,42
 369 263 369 263 396 284 c 128,-1,43
 423 305 423 305 432 343 c 1,44,-1
 165 343 l 1,45,-1
 165 263 l 1,46,-1
 322 263 l 2,41,42
EndSplineSet
EndChar

StartChar: uni20B2
Encoding: 8370 8370 167
Width: 600
GlyphClass: 1
Flags: W
LayerCount: 2
Fore
SplineSet
210 5 m 1,0,1
 133 37 133 37 94.5 124 c 128,-1,2
 56 211 56 211 56 349 c 0,3,4
 56 525 56 525 118.5 617.5 c 128,-1,5
 181 710 181 710 308 710 c 0,6,7
 315 710 315 710 321.5 710 c 128,-1,8
 328 710 328 710 334 709 c 1,9,-1
 352 811 l 1,10,-1
 415 811 l 1,11,-1
 395 696 l 1,12,13
 421 686 421 686 441 671 c 128,-1,14
 461 656 461 656 476 637.5 c 128,-1,15
 491 619 491 619 503 598.5 c 128,-1,16
 515 578 515 578 524 557 c 1,17,-1
 456 527 l 1,18,19
 443 558 443 558 426.5 584 c 128,-1,20
 410 610 410 610 381 625 c 1,21,-1
 332 345 l 1,22,-1
 522 345 l 1,23,-1
 522 244 l 2,24,25
 522 188 522 188 509 141 c 128,-1,26
 496 94 496 94 469 60 c 128,-1,27
 442 26 442 26 401 7 c 128,-1,28
 360 -12 360 -12 304 -12 c 0,29,30
 295 -12 295 -12 286.5 -11.5 c 128,-1,31
 278 -11 278 -11 270 -10 c 1,32,-1
 252 -113 l 1,33,-1
 189 -113 l 1,34,-1
 210 5 l 1,0,1
323 640 m 1,35,36
 319 641 319 641 309 641 c 0,37,38
 266 641 266 641 234 624.5 c 128,-1,39
 202 608 202 608 181 577 c 128,-1,40
 160 546 160 546 149.5 503 c 128,-1,41
 139 460 139 460 139 406 c 2,42,-1
 139 292 l 2,43,44
 139 215 139 215 160 160 c 128,-1,45
 181 105 181 105 223 78 c 1,46,-1
 323 640 l 1,35,36
305 55 m 0,47,48
 373 55 373 55 409.5 101 c 128,-1,49
 446 147 446 147 446 228 c 2,50,-1
 446 280 l 1,51,-1
 320 280 l 1,52,-1
 281 57 l 1,53,54
 286 56 286 56 292.5 55.5 c 128,-1,55
 299 55 299 55 305 55 c 0,47,48
EndSplineSet
EndChar

StartChar: uni20B4
Encoding: 8372 8372 168
Width: 600
GlyphClass: 1
Flags: W
LayerCount: 2
Fore
SplineSet
304 -12 m 0,0,1
 257 -12 257 -12 219.5 2 c 128,-1,2
 182 16 182 16 156 40.5 c 128,-1,3
 130 65 130 65 116 98.5 c 128,-1,4
 102 132 102 132 102 172 c 0,5,6
 102 199 102 199 107.5 218.5 c 128,-1,7
 113 238 113 238 121 254 c 1,8,-1
 27 254 l 1,9,-1
 27 319 l 1,10,-1
 172 319 l 1,11,-1
 316 406 l 1,12,-1
 316 409 l 1,13,-1
 27 409 l 1,14,-1
 27 474 l 1,15,-1
 394 474 l 1,16,17
 402 486 402 486 405.5 499.5 c 128,-1,18
 409 513 409 513 409 531 c 0,19,20
 409 585 409 585 378 612.5 c 128,-1,21
 347 640 347 640 291 640 c 0,22,23
 253 640 253 640 217.5 625 c 128,-1,24
 182 610 182 610 151 575 c 1,25,-1
 98 624 l 1,26,27
 141 670 141 670 192.5 690 c 128,-1,28
 244 710 244 710 298 710 c 0,29,30
 341 710 341 710 376.5 698 c 128,-1,31
 412 686 412 686 437 663.5 c 128,-1,32
 462 641 462 641 476 610 c 128,-1,33
 490 579 490 579 490 540 c 0,34,35
 490 518 490 518 486 502.5 c 128,-1,36
 482 487 482 487 476 474 c 1,37,-1
 573 474 l 1,38,-1
 573 409 l 1,39,-1
 425 409 l 1,40,-1
 281 322 l 1,41,-1
 281 319 l 1,42,-1
 573 319 l 1,43,-1
 573 254 l 1,44,-1
 206 254 l 1,45,46
 195 239 195 239 189 221 c 128,-1,47
 183 203 183 203 183 180 c 0,48,49
 183 122 183 122 216 90 c 128,-1,50
 249 58 249 58 309 58 c 0,51,52
 350 58 350 58 388.5 75.5 c 128,-1,53
 427 93 427 93 469 136 c 1,54,-1
 520 85 l 1,55,56
 479 37 479 37 423 12.5 c 128,-1,57
 367 -12 367 -12 304 -12 c 0,0,1
EndSplineSet
EndChar

StartChar: uni20B5
Encoding: 8373 8373 169
Width: 600
GlyphClass: 1
Flags: W
LayerCount: 2
Fore
SplineSet
216 10 m 1,0,1
 142 44 142 44 106 129.5 c 128,-1,2
 70 215 70 215 70 349 c 0,3,4
 70 524 70 524 132.5 617 c 128,-1,5
 195 710 195 710 323 710 c 2,6,-1
 339 710 l 1,7,-1
 357 811 l 1,8,-1
 420 811 l 1,9,-1
 400 699 l 1,10,11
 428 690 428 690 449 675 c 128,-1,12
 470 660 470 660 486.5 641 c 128,-1,13
 503 622 503 622 515.5 600.5 c 128,-1,14
 528 579 528 579 538 557 c 1,15,-1
 470 527 l 1,16,17
 456 560 456 560 437.5 587.5 c 128,-1,18
 419 615 419 615 387 629 c 1,19,-1
 286 61 l 1,20,21
 302 57 302 57 323 57 c 0,22,23
 356 57 356 57 379.5 66 c 128,-1,24
 403 75 403 75 420 91 c 128,-1,25
 437 107 437 107 449 128 c 128,-1,26
 461 149 461 149 470 172 c 1,27,-1
 538 141 l 1,28,29
 525 112 525 112 508 85 c 128,-1,30
 491 58 491 58 466 36 c 128,-1,31
 441 14 441 14 406 1 c 128,-1,32
 371 -12 371 -12 323 -12 c 0,33,34
 296 -12 296 -12 276 -8 c 1,35,-1
 257 -113 l 1,36,-1
 194 -113 l 1,37,-1
 216 10 l 1,0,1
328 641 m 1,38,39
 283 641 283 641 250 624.5 c 128,-1,40
 217 608 217 608 195.5 577 c 128,-1,41
 174 546 174 546 163.5 503 c 128,-1,42
 153 460 153 460 153 406 c 2,43,-1
 153 292 l 2,44,45
 153 220 153 220 172 167 c 128,-1,46
 191 114 191 114 230 85 c 1,47,-1
 328 641 l 1,38,39
EndSplineSet
EndChar

StartChar: uni20B8
Encoding: 8376 8376 170
Width: 600
GlyphClass: 1
Flags: W
LayerCount: 2
Fore
SplineSet
45 629 m 1,0,-1
 45 698 l 1,1,-1
 555 698 l 1,2,-1
 555 629 l 1,3,-1
 45 629 l 1,0,-1
342 470 m 1,4,-1
 342 0 l 1,5,-1
 258 0 l 1,6,-1
 258 470 l 1,7,-1
 45 470 l 1,8,-1
 45 539 l 1,9,-1
 555 539 l 1,10,-1
 555 470 l 1,11,-1
 342 470 l 1,4,-1
EndSplineSet
EndChar

StartChar: uni20B9
Encoding: 8377 8377 171
Width: 600
GlyphClass: 1
Flags: W
LayerCount: 2
Fore
SplineSet
403 0 m 1,0,-1
 181 291 l 1,1,-1
 56 291 l 1,2,-1
 56 360 l 1,3,-1
 228 360 l 2,4,5
 283 360 283 360 317.5 387 c 128,-1,6
 352 414 352 414 352 470 c 1,7,-1
 56 470 l 1,8,-1
 56 539 l 1,9,-1
 349 539 l 1,10,11
 344 582 344 582 310.5 605.5 c 128,-1,12
 277 629 277 629 228 629 c 2,13,-1
 56 629 l 1,14,-1
 56 698 l 1,15,-1
 554 698 l 1,16,-1
 554 629 l 1,17,-1
 363 629 l 1,18,-1
 363 624 l 1,19,20
 383 615 383 615 401 595 c 128,-1,21
 419 575 419 575 428 539 c 1,22,-1
 554 539 l 1,23,-1
 554 470 l 1,24,-1
 434 470 l 1,25,26
 429 404 429 404 389 357 c 128,-1,27
 349 310 349 310 279 296 c 1,28,-1
 506 0 l 1,29,-1
 403 0 l 1,0,-1
EndSplineSet
EndChar

StartChar: uni20BA
Encoding: 8378 8378 172
Width: 600
GlyphClass: 1
Flags: W
LayerCount: 2
Fore
SplineSet
155 247 m 1,0,-1
 56 201 l 1,1,-1
 56 270 l 1,2,-1
 155 316 l 1,3,-1
 155 407 l 1,4,-1
 56 361 l 1,5,-1
 56 430 l 1,6,-1
 155 476 l 1,7,-1
 155 698 l 1,8,-1
 239 698 l 1,9,-1
 239 515 l 1,10,-1
 421 600 l 1,11,-1
 421 531 l 1,12,-1
 239 446 l 1,13,-1
 239 355 l 1,14,-1
 421 440 l 1,15,-1
 421 371 l 1,16,-1
 239 286 l 1,17,-1
 239 73 l 1,18,-1
 291 73 l 2,19,20
 333 73 333 73 367 89.5 c 128,-1,21
 401 106 401 106 424 136 c 128,-1,22
 447 166 447 166 459.5 209 c 128,-1,23
 472 252 472 252 472 305 c 1,24,-1
 554 305 l 1,25,26
 554 241 554 241 537.5 185.5 c 128,-1,27
 521 130 521 130 489 88.5 c 128,-1,28
 457 47 457 47 408.5 23.5 c 128,-1,29
 360 0 360 0 296 0 c 2,30,-1
 155 0 l 1,31,-1
 155 247 l 1,0,-1
EndSplineSet
EndChar

StartChar: uni20BD
Encoding: 8381 8381 173
Width: 600
GlyphClass: 1
Flags: W
LayerCount: 2
Fore
SplineSet
212 134 m 1,0,-1
 212 0 l 1,1,-1
 128 0 l 1,2,-1
 128 134 l 1,3,-1
 45 134 l 1,4,-1
 45 203 l 1,5,-1
 128 203 l 1,6,-1
 128 294 l 1,7,-1
 45 294 l 1,8,-1
 45 363 l 1,9,-1
 128 363 l 1,10,-1
 128 698 l 1,11,-1
 356 698 l 2,12,13
 453 698 453 698 504 644 c 128,-1,14
 555 590 555 590 555 494 c 256,15,16
 555 398 555 398 503.5 346 c 128,-1,17
 452 294 452 294 355 294 c 2,18,-1
 212 294 l 1,19,-1
 212 203 l 1,20,-1
 439 203 l 1,21,-1
 439 134 l 1,22,-1
 212 134 l 1,0,-1
212 363 m 1,23,-1
 356 363 l 2,24,25
 409 363 409 363 438.5 389 c 128,-1,26
 468 415 468 415 468 463 c 2,27,-1
 468 525 l 2,28,29
 468 573 468 573 438.5 599 c 128,-1,30
 409 625 409 625 356 625 c 2,31,-1
 212 625 l 1,32,-1
 212 363 l 1,23,-1
EndSplineSet
EndChar

StartChar: uni20BF
Encoding: 8383 8383 174
Width: 600
GlyphClass: 1
Flags: W
LayerCount: 2
Fore
SplineSet
319 0 m 1,0,-1
 250 0 l 1,1,-1
 250 -113 l 1,2,-1
 188 -113 l 1,3,-1
 188 0 l 1,4,-1
 88 0 l 1,5,-1
 88 698 l 1,6,-1
 188 698 l 1,7,-1
 188 811 l 1,8,-1
 250 811 l 1,9,-1
 250 698 l 1,10,-1
 319 698 l 1,11,-1
 319 811 l 1,12,-1
 381 811 l 1,13,-1
 381 692 l 1,14,15
 445 678 445 678 481 632.5 c 128,-1,16
 517 587 517 587 517 518 c 0,17,18
 517 456 517 456 487.5 420.5 c 128,-1,19
 458 385 458 385 408 368 c 1,20,-1
 408 365 l 1,21,22
 469 351 469 351 506 312 c 128,-1,23
 543 273 543 273 543 201 c 0,24,25
 543 162 543 162 531 128 c 128,-1,26
 519 94 519 94 497.5 67.5 c 128,-1,27
 476 41 476 41 446.5 24 c 128,-1,28
 417 7 417 7 381 2 c 1,29,-1
 381 -113 l 1,30,-1
 319 -113 l 1,31,-1
 319 0 l 1,0,-1
172 395 m 1,32,-1
 317 395 l 2,33,34
 370 395 370 395 399.5 418.5 c 128,-1,35
 429 442 429 442 429 490 c 2,36,-1
 429 529 l 2,37,38
 429 577 429 577 399.5 601.5 c 128,-1,39
 370 626 370 626 317 626 c 2,40,-1
 172 626 l 1,41,-1
 172 395 l 1,32,-1
172 72 m 1,42,-1
 331 72 l 2,43,44
 389 72 389 72 421.5 98.5 c 128,-1,45
 454 125 454 125 454 179 c 2,46,-1
 454 220 l 2,47,48
 454 273 454 273 421.5 299.5 c 128,-1,49
 389 326 389 326 331 326 c 2,50,-1
 172 326 l 1,51,-1
 172 72 l 1,42,-1
EndSplineSet
EndChar

StartChar: fi
Encoding: 64257 64257 175
Width: 600
GlyphClass: 3
Flags: W
LayerCount: 2
Fore
SplineSet
108 448 m 1,0,-1
 38 448 l 1,1,-1
 38 516 l 1,2,-1
 108 516 l 1,3,-1
 108 622 l 2,4,5
 108 674 108 674 135.5 707 c 128,-1,6
 163 740 163 740 222 740 c 2,7,-1
 335 740 l 1,8,-1
 335 672 l 1,9,-1
 188 672 l 1,10,-1
 188 516 l 1,11,-1
 502 516 l 1,12,-1
 502 0 l 1,13,-1
 422 0 l 1,14,-1
 422 448 l 1,15,-1
 188 448 l 1,16,-1
 188 0 l 1,17,-1
 108 0 l 1,18,-1
 108 448 l 1,0,-1
462 630 m 256,19,20
 427 630 427 630 413 644.5 c 128,-1,21
 399 659 399 659 399 681 c 2,22,-1
 399 697 l 2,23,24
 399 719 399 719 413 733.5 c 128,-1,25
 427 748 427 748 462 748 c 256,26,27
 497 748 497 748 511 733.5 c 128,-1,28
 525 719 525 719 525 697 c 2,29,-1
 525 681 l 2,30,31
 525 659 525 659 511 644.5 c 128,-1,32
 497 630 497 630 462 630 c 256,19,20
EndSplineSet
EndChar

StartChar: fl
Encoding: 64258 64258 176
Width: 600
GlyphClass: 3
Flags: W
LayerCount: 2
Fore
SplineSet
108 448 m 1,0,-1
 38 448 l 1,1,-1
 38 516 l 1,2,-1
 108 516 l 1,3,-1
 108 622 l 2,4,5
 108 674 108 674 135.5 707 c 128,-1,6
 163 740 163 740 222 740 c 2,7,-1
 345 740 l 1,8,-1
 345 672 l 1,9,-1
 188 672 l 1,10,-1
 188 516 l 1,11,-1
 345 516 l 1,12,-1
 345 448 l 1,13,-1
 188 448 l 1,14,-1
 188 0 l 1,15,-1
 108 0 l 1,16,-1
 108 448 l 1,0,-1
422 740 m 1,17,-1
 502 740 l 1,18,-1
 502 0 l 1,19,-1
 422 0 l 1,20,-1
 422 740 l 1,17,-1
EndSplineSet
EndChar

StartChar: aogonek
Encoding: 261 261 186
Width: 600
GlyphClass: 1
Flags: W
LayerCount: 2
Fore
SplineSet
550 0 m 1,0,1
 511 -24 511 -24 488.5 -42 c 128,-1,2
 466 -60 466 -60 454.5 -73.5 c 128,-1,3
 443 -87 443 -87 440 -97 c 128,-1,4
 437 -107 437 -107 437 -114 c 0,5,6
 437 -135 437 -135 450 -143 c 128,-1,7
 463 -151 463 -151 479 -151 c 0,8,9
 510 -151 510 -151 531 -125 c 1,10,-1
 571 -166 l 1,11,12
 561 -183 561 -183 538.5 -195 c 128,-1,13
 516 -207 516 -207 478 -207 c 0,14,15
 432 -207 432 -207 400.5 -187 c 128,-1,16
 369 -167 369 -167 369 -127 c 0,17,18
 369 -91 369 -91 398 -60.5 c 128,-1,19
 427 -30 427 -30 484 -3 c 1,20,-1
 483 0 l 1,21,22
 446 3 446 3 426 26 c 128,-1,23
 406 49 406 49 403 84 c 1,24,-1
 398 84 l 1,25,26
 381 39 381 39 343.5 13.5 c 128,-1,27
 306 -12 306 -12 243 -12 c 0,28,29
 162 -12 162 -12 114 30 c 128,-1,30
 66 72 66 72 66 145 c 0,31,32
 66 217 66 217 118.5 256 c 128,-1,33
 171 295 171 295 288 295 c 2,34,-1
 398 295 l 1,35,-1
 398 346 l 2,36,37
 398 403 398 403 366 431.5 c 128,-1,38
 334 460 334 460 274 460 c 0,39,40
 223 460 223 460 190 439.5 c 128,-1,41
 157 419 157 419 137 384 c 1,42,-1
 83 424 l 1,43,44
 93 444 93 444 110 463 c 128,-1,45
 127 482 127 482 152 496.5 c 128,-1,46
 177 511 177 511 209 519.5 c 128,-1,47
 241 528 241 528 280 528 c 0,48,49
 371 528 371 528 424.5 482 c 128,-1,50
 478 436 478 436 478 354 c 2,51,-1
 478 70 l 1,52,-1
 550 70 l 1,53,-1
 550 0 l 1,0,1
288 235 m 2,54,55
 216 235 216 235 183 215 c 128,-1,56
 150 195 150 195 150 157 c 2,57,-1
 150 136 l 2,58,59
 150 96 150 96 178.5 75.5 c 128,-1,60
 207 55 207 55 257 55 c 0,61,62
 288 55 288 55 313.5 62.5 c 128,-1,63
 339 70 339 70 358 82.5 c 128,-1,64
 377 95 377 95 387.5 112.5 c 128,-1,65
 398 130 398 130 398 150 c 2,66,-1
 398 235 l 1,67,-1
 288 235 l 2,54,55
EndSplineSet
Substitution2: "'salt' Stylistic Alternatives lookup 16 subtable" aogonek.alt01
Substitution2: "'ss01' Style Set 1 lookup 11 subtable" aogonek.alt01
Substitution2: "'aalt' Access All Alternates lookup 0 subtable" aogonek.alt01
EndChar

StartChar: aogonek.alt01
Encoding: 65551 -1 209
Width: 600
GlyphClass: 1
Flags: W
LayerCount: 2
Fore
SplineSet
433 -207 m 0,0,1
 387 -207 387 -207 355.5 -187 c 128,-1,2
 324 -167 324 -167 324 -127 c 0,3,4
 324 -91 324 -91 353 -60.5 c 128,-1,5
 382 -30 382 -30 439 -3 c 1,6,-1
 438 0 l 1,7,-1
 425 0 l 1,8,-1
 425 84 l 1,9,-1
 421 84 l 1,10,11
 371 -12 371 -12 262 -12 c 0,12,13
 167 -12 167 -12 113.5 59 c 128,-1,14
 60 130 60 130 60 258 c 256,15,16
 60 386 60 386 113.5 457 c 128,-1,17
 167 528 167 528 262 528 c 0,18,19
 371 528 371 528 421 432 c 1,20,-1
 425 432 l 1,21,-1
 425 516 l 1,22,-1
 505 516 l 1,23,-1
 505 0 l 1,24,25
 466 -24 466 -24 443.5 -42 c 128,-1,26
 421 -60 421 -60 409.5 -73.5 c 128,-1,27
 398 -87 398 -87 395 -97 c 128,-1,28
 392 -107 392 -107 392 -114 c 0,29,30
 392 -135 392 -135 405 -143 c 128,-1,31
 418 -151 418 -151 434 -151 c 0,32,33
 465 -151 465 -151 486 -125 c 1,34,-1
 526 -166 l 1,35,36
 516 -183 516 -183 493.5 -195 c 128,-1,37
 471 -207 471 -207 433 -207 c 0,0,1
293 59 m 0,38,39
 320 59 320 59 344 66 c 128,-1,40
 368 73 368 73 386 86.5 c 128,-1,41
 404 100 404 100 414.5 119.5 c 128,-1,42
 425 139 425 139 425 165 c 2,43,-1
 425 351 l 2,44,45
 425 377 425 377 414.5 396.5 c 128,-1,46
 404 416 404 416 386 429.5 c 128,-1,47
 368 443 368 443 344 450 c 128,-1,48
 320 457 320 457 293 457 c 0,49,50
 223 457 223 457 184.5 414.5 c 128,-1,51
 146 372 146 372 146 302 c 2,52,-1
 146 214 l 2,53,54
 146 144 146 144 184.5 101.5 c 128,-1,55
 223 59 223 59 293 59 c 0,38,39
EndSplineSet
EndChar

StartChar: ae
Encoding: 230 230 223
Width: 600
GlyphClass: 2
Flags: W
AnchorPoint: "Anchor-2" 300 516 basechar 0
LayerCount: 2
Fore
SplineSet
141 -12 m 0,0,1
 84 -12 84 -12 47 26 c 128,-1,2
 10 64 10 64 10 138 c 0,3,4
 10 216 10 216 55.5 255.5 c 128,-1,5
 101 295 101 295 188 295 c 2,6,-1
 251 295 l 1,7,-1
 251 348 l 2,8,9
 251 415 251 415 229.5 441.5 c 128,-1,10
 208 468 208 468 170 468 c 256,11,12
 132 468 132 468 110.5 446 c 128,-1,13
 89 424 89 424 75 389 c 1,14,-1
 22 422 l 1,15,16
 30 442 30 442 43.5 461 c 128,-1,17
 57 480 57 480 75.5 495 c 128,-1,18
 94 510 94 510 118.5 519 c 128,-1,19
 143 528 143 528 173 528 c 0,20,21
 218 528 218 528 249 508 c 128,-1,22
 280 488 280 488 297 450 c 1,23,-1
 300 450 l 1,24,25
 320 493 320 493 352.5 510.5 c 128,-1,26
 385 528 385 528 424 528 c 0,27,28
 502 528 502 528 542 468.5 c 128,-1,29
 582 409 582 409 582 292 c 2,30,-1
 582 238 l 1,31,-1
 324 238 l 1,32,-1
 324 213 l 2,33,34
 324 142 324 142 348.5 97 c 128,-1,35
 373 52 373 52 420 52 c 0,36,37
 439 52 439 52 454.5 59.5 c 128,-1,38
 470 67 470 67 481.5 79.5 c 128,-1,39
 493 92 493 92 501.5 108 c 128,-1,40
 510 124 510 124 516 141 c 1,41,-1
 574 114 l 1,42,43
 566 91 566 91 552.5 68.5 c 128,-1,44
 539 46 539 46 519.5 28 c 128,-1,45
 500 10 500 10 474.5 -1 c 128,-1,46
 449 -12 449 -12 418 -12 c 0,47,48
 367 -12 367 -12 330 18 c 128,-1,49
 293 48 293 48 272 102 c 1,50,-1
 269 102 l 1,51,52
 255 43 255 43 221.5 15.5 c 128,-1,53
 188 -12 188 -12 141 -12 c 0,0,1
155 50 m 0,54,55
 179 50 179 50 197 58.5 c 128,-1,56
 215 67 215 67 227 81.5 c 128,-1,57
 239 96 239 96 245 114.5 c 128,-1,58
 251 133 251 133 251 154 c 2,59,-1
 251 238 l 1,60,-1
 199 238 l 2,61,62
 144 238 144 238 113.5 218 c 128,-1,63
 83 198 83 198 83 152 c 2,64,-1
 83 137 l 2,65,66
 83 96 83 96 99 73 c 128,-1,67
 115 50 115 50 155 50 c 0,54,55
420 470 m 256,68,69
 374 470 374 470 349 435.5 c 128,-1,70
 324 401 324 401 324 329 c 2,71,-1
 324 295 l 1,72,-1
 516 295 l 1,73,-1
 516 329 l 2,74,75
 516 401 516 401 491 435.5 c 128,-1,76
 466 470 466 470 420 470 c 256,68,69
EndSplineSet
EndChar

StartChar: ccedilla
Encoding: 231 231 227
Width: 600
GlyphClass: 1
Flags: W
LayerCount: 2
Fore
SplineSet
317 528 m 0,0,1
 392 528 392 528 439 495 c 128,-1,2
 486 462 486 462 508 409 c 1,3,-1
 444 375 l 1,4,5
 430 415 430 415 397.5 437 c 128,-1,6
 365 459 365 459 317 459 c 0,7,8
 282 459 282 459 254.5 447.5 c 128,-1,9
 227 436 227 436 208 415 c 128,-1,10
 189 394 189 394 179.5 365 c 128,-1,11
 170 336 170 336 170 302 c 2,12,-1
 170 214 l 2,13,14
 170 180 170 180 179.5 151 c 128,-1,15
 189 122 189 122 208 101 c 128,-1,16
 227 80 227 80 255 68.5 c 128,-1,17
 283 57 283 57 319 57 c 0,18,19
 371 57 371 57 405 81 c 128,-1,20
 439 105 439 105 459 147 c 1,21,-1
 516 108 l 1,22,23
 493 57 493 57 447 23.5 c 128,-1,24
 401 -10 401 -10 326 -12 c 1,25,-1
 316 -61 l 1,26,-1
 319 -64 l 1,27,28
 338 -58 338 -58 358 -58 c 0,29,30
 387 -58 387 -58 406.5 -75 c 128,-1,31
 426 -92 426 -92 426 -124 c 0,32,33
 426 -145 426 -145 417 -161 c 128,-1,34
 408 -177 408 -177 392.5 -187 c 128,-1,35
 377 -197 377 -197 357 -202 c 128,-1,36
 337 -207 337 -207 315 -207 c 0,37,38
 274 -207 274 -207 250.5 -193.5 c 128,-1,39
 227 -180 227 -180 216 -166 c 1,40,-1
 254 -125 l 1,41,42
 263 -136 263 -136 278 -144.5 c 128,-1,43
 293 -153 293 -153 315 -153 c 0,44,45
 334 -153 334 -153 346.5 -145.5 c 128,-1,46
 359 -138 359 -138 359 -122 c 0,47,48
 359 -108 359 -108 346 -97.5 c 128,-1,49
 333 -87 333 -87 291 -81 c 2,50,-1
 263 -77 l 1,51,-1
 277 -9 l 1,52,53
 185 5 185 5 134.5 76 c 128,-1,54
 84 147 84 147 84 258 c 0,55,56
 84 319 84 319 100 369 c 128,-1,57
 116 419 116 419 146 454.5 c 128,-1,58
 176 490 176 490 219 509 c 128,-1,59
 262 528 262 528 317 528 c 0,0,1
EndSplineSet
EndChar

StartChar: dcaron
Encoding: 271 271 230
Width: 600
GlyphClass: 1
Flags: W
LayerCount: 2
Fore
SplineSet
237 -12 m 0,0,1
 146 -12 146 -12 95.5 59 c 128,-1,2
 45 130 45 130 45 258 c 256,3,4
 45 386 45 386 95.5 457 c 128,-1,5
 146 528 146 528 237 528 c 0,6,7
 339 528 339 528 386 432 c 1,8,-1
 390 432 l 1,9,-1
 390 740 l 1,10,-1
 470 740 l 1,11,-1
 470 0 l 1,12,-1
 390 0 l 1,13,-1
 390 84 l 1,14,-1
 386 84 l 1,15,16
 339 -12 339 -12 237 -12 c 0,0,1
263 59 m 0,17,18
 288 59 288 59 311 66 c 128,-1,19
 334 73 334 73 351.5 86.5 c 128,-1,20
 369 100 369 100 379.5 119.5 c 128,-1,21
 390 139 390 139 390 165 c 2,22,-1
 390 351 l 2,23,24
 390 377 390 377 379.5 396.5 c 128,-1,25
 369 416 369 416 351.5 429.5 c 128,-1,26
 334 443 334 443 311 450 c 128,-1,27
 288 457 288 457 263 457 c 0,28,29
 197 457 197 457 164 415.5 c 128,-1,30
 131 374 131 374 131 302 c 2,31,-1
 131 214 l 2,32,33
 131 142 131 142 164 100.5 c 128,-1,34
 197 59 197 59 263 59 c 0,17,18
545 740 m 1,35,-1
 648 740 l 1,36,-1
 599 551 l 1,37,-1
 538 551 l 1,38,-1
 545 740 l 1,35,-1
EndSplineSet
EndChar

StartChar: dcroat
Encoding: 273 273 231
Width: 600
GlyphClass: 1
Flags: W
LayerCount: 2
Fore
SplineSet
425 84 m 1,0,-1
 421 84 l 1,1,2
 371 -12 371 -12 262 -12 c 0,3,4
 167 -12 167 -12 113.5 59 c 128,-1,5
 60 130 60 130 60 258 c 256,6,7
 60 386 60 386 113.5 457 c 128,-1,8
 167 528 167 528 262 528 c 0,9,10
 371 528 371 528 421 432 c 1,11,-1
 425 432 l 1,12,-1
 425 608 l 1,13,-1
 272 608 l 1,14,-1
 272 670 l 1,15,-1
 425 670 l 1,16,-1
 425 740 l 1,17,-1
 505 740 l 1,18,-1
 505 670 l 1,19,-1
 570 670 l 1,20,-1
 570 608 l 1,21,-1
 505 608 l 1,22,-1
 505 0 l 1,23,-1
 425 0 l 1,24,-1
 425 84 l 1,0,-1
293 59 m 0,25,26
 320 59 320 59 344 66 c 128,-1,27
 368 73 368 73 386 86.5 c 128,-1,28
 404 100 404 100 414.5 119.5 c 128,-1,29
 425 139 425 139 425 165 c 2,30,-1
 425 351 l 2,31,32
 425 377 425 377 414.5 396.5 c 128,-1,33
 404 416 404 416 386 429.5 c 128,-1,34
 368 443 368 443 344 450 c 128,-1,35
 320 457 320 457 293 457 c 0,36,37
 223 457 223 457 184.5 414.5 c 128,-1,38
 146 372 146 372 146 302 c 2,39,-1
 146 214 l 2,40,41
 146 144 146 144 184.5 101.5 c 128,-1,42
 223 59 223 59 293 59 c 0,25,26
EndSplineSet
EndChar

StartChar: eth
Encoding: 240 240 232
Width: 600
GlyphClass: 1
Flags: W
LayerCount: 2
Fore
SplineSet
459 708 m 1,0,-1
 372 647 l 1,1,2
 403 616 403 616 432.5 577 c 128,-1,3
 462 538 462 538 484.5 491 c 128,-1,4
 507 444 507 444 520.5 387.5 c 128,-1,5
 534 331 534 331 534 266 c 0,6,7
 534 126 534 126 472 57 c 128,-1,8
 410 -12 410 -12 303 -12 c 0,9,10
 247 -12 247 -12 203 6 c 128,-1,11
 159 24 159 24 128.5 58 c 128,-1,12
 98 92 98 92 82 139.5 c 128,-1,13
 66 187 66 187 66 246 c 256,14,15
 66 305 66 305 82 352.5 c 128,-1,16
 98 400 98 400 126.5 434 c 128,-1,17
 155 468 155 468 194 486 c 128,-1,18
 233 504 233 504 280 504 c 0,19,20
 341 504 341 504 381 476 c 128,-1,21
 421 448 421 448 445 408 c 1,22,-1
 449 410 l 1,23,24
 424 472 424 472 390.5 520 c 128,-1,25
 357 568 357 568 315 608 c 1,26,-1
 216 538 l 1,27,-1
 178 583 l 1,28,-1
 270 647 l 1,29,30
 237 673 237 673 201 696 c 128,-1,31
 165 719 165 719 127 740 c 1,32,-1
 253 740 l 1,33,34
 270 729 270 729 288.5 716.5 c 128,-1,35
 307 704 307 704 327 688 c 1,36,-1
 421 753 l 1,37,-1
 459 708 l 1,0,-1
300 57 m 256,38,39
 367 57 367 57 408 95 c 128,-1,40
 449 133 449 133 449 211 c 2,41,-1
 449 281 l 2,42,43
 449 359 449 359 408 397 c 128,-1,44
 367 435 367 435 300 435 c 256,45,46
 233 435 233 435 192 397 c 128,-1,47
 151 359 151 359 151 281 c 2,48,-1
 151 211 l 2,49,50
 151 133 151 133 192 95 c 128,-1,51
 233 57 233 57 300 57 c 256,38,39
EndSplineSet
EndChar

StartChar: eogonek
Encoding: 281 281 243
Width: 600
GlyphClass: 1
Flags: W
LayerCount: 2
Fore
SplineSet
361 -207 m 0,0,1
 315 -207 315 -207 283.5 -187 c 128,-1,2
 252 -167 252 -167 252 -127 c 0,3,4
 252 -59 252 -59 365 -6 c 1,5,-1
 363 -3 l 1,6,7
 353 -7 353 -7 337.5 -9.5 c 128,-1,8
 322 -12 322 -12 302 -12 c 0,9,10
 250 -12 250 -12 207 7 c 128,-1,11
 164 26 164 26 133 61.5 c 128,-1,12
 102 97 102 97 84.5 146.5 c 128,-1,13
 67 196 67 196 67 258 c 0,14,15
 67 319 67 319 84.5 369 c 128,-1,16
 102 419 102 419 133 454 c 128,-1,17
 164 489 164 489 207.5 508.5 c 128,-1,18
 251 528 251 528 304 528 c 0,19,20
 356 528 356 528 398.5 509 c 128,-1,21
 441 490 441 490 471 456.5 c 128,-1,22
 501 423 501 423 517 377 c 128,-1,23
 533 331 533 331 533 276 c 2,24,-1
 533 238 l 1,25,-1
 151 238 l 1,26,-1
 151 214 l 2,27,28
 151 180 151 180 162 151 c 128,-1,29
 173 122 173 122 193.5 101 c 128,-1,30
 214 80 214 80 243.5 68.5 c 128,-1,31
 273 57 273 57 309 57 c 0,32,33
 361 57 361 57 399 81 c 128,-1,34
 437 105 437 105 457 147 c 1,35,-1
 516 107 l 1,36,37
 509 91 509 91 496.5 75.5 c 128,-1,38
 484 60 484 60 469 44.5 c 128,-1,39
 454 29 454 29 437.5 15 c 128,-1,40
 421 1 421 1 405 -12 c 0,41,42
 382 -31 382 -31 365.5 -45.5 c 128,-1,43
 349 -60 349 -60 339 -71.5 c 128,-1,44
 329 -83 329 -83 324.5 -93 c 128,-1,45
 320 -103 320 -103 320 -114 c 0,46,47
 320 -135 320 -135 333 -143 c 128,-1,48
 346 -151 346 -151 362 -151 c 0,49,50
 393 -151 393 -151 414 -125 c 1,51,-1
 454 -166 l 1,52,53
 444 -183 444 -183 421.5 -195 c 128,-1,54
 399 -207 399 -207 361 -207 c 0,0,1
447 298 m 1,55,-1
 447 309 l 2,56,57
 447 343 447 343 436.5 371 c 128,-1,58
 426 399 426 399 407.5 419.5 c 128,-1,59
 389 440 389 440 362.5 451 c 128,-1,60
 336 462 336 462 304 462 c 0,61,62
 271 462 271 462 243 450 c 128,-1,63
 215 438 215 438 194.5 417 c 128,-1,64
 174 396 174 396 162.5 367.5 c 128,-1,65
 151 339 151 339 151 305 c 2,66,-1
 151 298 l 1,67,-1
 447 298 l 1,55,-1
EndSplineSet
EndChar

StartChar: uni0259
Encoding: 601 601 250
Width: 600
GlyphClass: 1
Flags: W
LayerCount: 2
Fore
SplineSet
449 278 m 1,0,-1
 449 302 l 2,1,2
 449 336 449 336 438 365 c 128,-1,3
 427 394 427 394 406.5 415 c 128,-1,4
 386 436 386 436 356.5 447.5 c 128,-1,5
 327 459 327 459 291 459 c 0,6,7
 239 459 239 459 201 435 c 128,-1,8
 163 411 163 411 143 369 c 1,9,-1
 84 409 l 1,10,11
 107 461 107 461 160.5 494.5 c 128,-1,12
 214 528 214 528 291 528 c 0,13,14
 346 528 346 528 391 509 c 128,-1,15
 436 490 436 490 467.5 454.5 c 128,-1,16
 499 419 499 419 516 369.5 c 128,-1,17
 533 320 533 320 533 259 c 0,18,19
 533 197 533 197 515.5 147 c 128,-1,20
 498 97 498 97 467 61.5 c 128,-1,21
 436 26 436 26 392 7 c 128,-1,22
 348 -12 348 -12 296 -12 c 256,23,24
 244 -12 244 -12 201.5 7 c 128,-1,25
 159 26 159 26 129 59.5 c 128,-1,26
 99 93 99 93 83 139 c 128,-1,27
 67 185 67 185 67 240 c 2,28,-1
 67 278 l 1,29,-1
 449 278 l 1,0,-1
153 207 m 2,30,31
 153 173 153 173 163.5 145 c 128,-1,32
 174 117 174 117 192.5 96.5 c 128,-1,33
 211 76 211 76 237.5 65 c 128,-1,34
 264 54 264 54 296 54 c 0,35,36
 329 54 329 54 357 66 c 128,-1,37
 385 78 385 78 405.5 99 c 128,-1,38
 426 120 426 120 437.5 148.5 c 128,-1,39
 449 177 449 177 449 211 c 2,40,-1
 449 218 l 1,41,-1
 153 218 l 1,42,-1
 153 207 l 2,30,31
EndSplineSet
EndChar

StartChar: hbar
Encoding: 295 295 259
Width: 600
GlyphClass: 1
Flags: W
LayerCount: 2
Fore
SplineSet
98 0 m 1,0,-1
 98 608 l 1,1,-1
 33 608 l 1,2,-1
 33 670 l 1,3,-1
 98 670 l 1,4,-1
 98 740 l 1,5,-1
 178 740 l 1,6,-1
 178 670 l 1,7,-1
 331 670 l 1,8,-1
 331 608 l 1,9,-1
 178 608 l 1,10,-1
 178 432 l 1,11,-1
 182 432 l 1,12,13
 190 451 190 451 202 468.5 c 128,-1,14
 214 486 214 486 231.5 499 c 128,-1,15
 249 512 249 512 273 520 c 128,-1,16
 297 528 297 528 329 528 c 0,17,18
 410 528 410 528 459 476.5 c 128,-1,19
 508 425 508 425 508 331 c 2,20,-1
 508 0 l 1,21,-1
 428 0 l 1,22,-1
 428 317 l 2,23,24
 428 388 428 388 397 422.5 c 128,-1,25
 366 457 366 457 306 457 c 0,26,27
 282 457 282 457 259 451 c 128,-1,28
 236 445 236 445 218 433 c 128,-1,29
 200 421 200 421 189 402 c 128,-1,30
 178 383 178 383 178 358 c 2,31,-1
 178 0 l 1,32,-1
 98 0 l 1,0,-1
EndSplineSet
EndChar

StartChar: dotlessi
Encoding: 305 305 261
Width: 600
GlyphClass: 2
Flags: W
AnchorPoint: "Anchor-2" 332 516 basechar 0
AnchorPoint: "Anchor-1" 546 0 basechar 0
AnchorPoint: "Anchor-0" 332 0 basechar 0
LayerCount: 2
Fore
SplineSet
106 68 m 1,0,-1
 292 68 l 1,1,-1
 292 448 l 1,2,-1
 106 448 l 1,3,-1
 106 516 l 1,4,-1
 372 516 l 1,5,-1
 372 68 l 1,6,-1
 546 68 l 1,7,-1
 546 0 l 1,8,-1
 106 0 l 1,9,-1
 106 68 l 1,0,-1
EndSplineSet
EndChar

StartChar: iogonek
Encoding: 303 303 271
Width: 600
GlyphClass: 1
Flags: W
LayerCount: 2
Fore
SplineSet
474 -207 m 0,0,1
 428 -207 428 -207 396.5 -187 c 128,-1,2
 365 -167 365 -167 365 -127 c 0,3,4
 365 -91 365 -91 394 -60.5 c 128,-1,5
 423 -30 423 -30 480 -3 c 1,6,-1
 479 0 l 1,7,-1
 106 0 l 1,8,-1
 106 68 l 1,9,-1
 292 68 l 1,10,-1
 292 448 l 1,11,-1
 106 448 l 1,12,-1
 106 516 l 1,13,-1
 372 516 l 1,14,-1
 372 68 l 1,15,-1
 546 68 l 1,16,-1
 546 0 l 1,17,18
 507 -24 507 -24 484.5 -42 c 128,-1,19
 462 -60 462 -60 450.5 -73.5 c 128,-1,20
 439 -87 439 -87 436 -97 c 128,-1,21
 433 -107 433 -107 433 -114 c 0,22,23
 433 -135 433 -135 446 -143 c 128,-1,24
 459 -151 459 -151 475 -151 c 0,25,26
 506 -151 506 -151 527 -125 c 1,27,-1
 567 -166 l 1,28,29
 557 -183 557 -183 534.5 -195 c 128,-1,30
 512 -207 512 -207 474 -207 c 0,0,1
332 630 m 256,31,32
 297 630 297 630 283 644.5 c 128,-1,33
 269 659 269 659 269 681 c 2,34,-1
 269 697 l 2,35,36
 269 719 269 719 283 733.5 c 128,-1,37
 297 748 297 748 332 748 c 256,38,39
 367 748 367 748 381 733.5 c 128,-1,40
 395 719 395 719 395 697 c 2,41,-1
 395 681 l 2,42,43
 395 659 395 659 381 644.5 c 128,-1,44
 367 630 367 630 332 630 c 256,31,32
EndSplineSet
EndChar

StartChar: ij
Encoding: 307 307 273
Width: 600
GlyphClass: 1
Flags: W
LayerCount: 2
Fore
SplineSet
105 516 m 1,0,-1
 185 516 l 1,1,-1
 185 0 l 1,2,-1
 105 0 l 1,3,-1
 105 516 l 1,0,-1
185 -132 m 1,4,-1
 415 -132 l 1,5,-1
 415 516 l 1,6,-1
 495 516 l 1,7,-1
 495 -82 l 2,8,9
 495 -134 495 -134 467.5 -167 c 128,-1,10
 440 -200 440 -200 381 -200 c 2,11,-1
 185 -200 l 1,12,-1
 185 -132 l 1,4,-1
145 630 m 256,13,14
 110 630 110 630 96 644.5 c 128,-1,15
 82 659 82 659 82 681 c 2,16,-1
 82 697 l 2,17,18
 82 719 82 719 96 733.5 c 128,-1,19
 110 748 110 748 145 748 c 256,20,21
 180 748 180 748 194 733.5 c 128,-1,22
 208 719 208 719 208 697 c 2,23,-1
 208 681 l 2,24,25
 208 659 208 659 194 644.5 c 128,-1,26
 180 630 180 630 145 630 c 256,13,14
455 630 m 256,27,28
 420 630 420 630 406 644.5 c 128,-1,29
 392 659 392 659 392 681 c 2,30,-1
 392 697 l 2,31,32
 392 719 392 719 406 733.5 c 128,-1,33
 420 748 420 748 455 748 c 256,34,35
 490 748 490 748 504 733.5 c 128,-1,36
 518 719 518 719 518 697 c 2,37,-1
 518 681 l 2,38,39
 518 659 518 659 504 644.5 c 128,-1,40
 490 630 490 630 455 630 c 256,27,28
EndSplineSet
EndChar

StartChar: ijacute
Encoding: 65569 -1 274
Width: 600
GlyphClass: 1
Flags: W
LayerCount: 2
Fore
SplineSet
105 516 m 1,0,-1
 185 516 l 1,1,-1
 185 0 l 1,2,-1
 105 0 l 1,3,-1
 105 516 l 1,0,-1
185 -132 m 1,4,-1
 415 -132 l 1,5,-1
 415 516 l 1,6,-1
 495 516 l 1,7,-1
 495 -82 l 2,8,9
 495 -134 495 -134 467.5 -167 c 128,-1,10
 440 -200 440 -200 381 -200 c 2,11,-1
 185 -200 l 1,12,-1
 185 -132 l 1,4,-1
100 609 m 1,13,-1
 185 779 l 1,14,-1
 258 744 l 1,15,-1
 152 585 l 1,16,-1
 100 609 l 1,13,-1
410 609 m 1,17,-1
 495 779 l 1,18,-1
 568 744 l 1,19,-1
 462 585 l 1,20,-1
 410 609 l 1,17,-1
EndSplineSet
EndChar

StartChar: uni0237
Encoding: 567 567 275
Width: 600
GlyphClass: 2
Flags: W
AnchorPoint: "Anchor-2" 392 516 basechar 0
LayerCount: 2
Fore
SplineSet
102 -132 m 1,0,-1
 352 -132 l 1,1,-1
 352 448 l 1,2,-1
 93 448 l 1,3,-1
 93 516 l 1,4,-1
 432 516 l 1,5,-1
 432 -82 l 2,6,7
 432 -134 432 -134 404.5 -167 c 128,-1,8
 377 -200 377 -200 318 -200 c 2,9,-1
 102 -200 l 1,10,-1
 102 -132 l 1,0,-1
EndSplineSet
EndChar

StartChar: kgreenlandic
Encoding: 312 312 279
Width: 600
GlyphClass: 1
Flags: W
LayerCount: 2
Fore
SplineSet
283 253 m 1,0,-1
 186 165 l 1,1,-1
 186 0 l 1,2,-1
 106 0 l 1,3,-1
 106 516 l 1,4,-1
 186 516 l 1,5,-1
 186 255 l 1,6,-1
 190 255 l 1,7,-1
 285 348 l 1,8,-1
 455 516 l 1,9,-1
 553 516 l 1,10,-1
 339 306 l 1,11,-1
 578 0 l 1,12,-1
 479 0 l 1,13,-1
 283 253 l 1,0,-1
EndSplineSet
EndChar

StartChar: lslash
Encoding: 322 322 284
Width: 600
GlyphClass: 1
Flags: W
LayerCount: 2
Fore
SplineSet
80 68 m 1,0,-1
 260 68 l 1,1,-1
 260 288 l 1,2,-1
 107 238 l 1,3,-1
 107 305 l 1,4,-1
 260 355 l 1,5,-1
 260 672 l 1,6,-1
 80 672 l 1,7,-1
 80 740 l 1,8,-1
 340 740 l 1,9,-1
 340 378 l 1,10,-1
 493 428 l 1,11,-1
 493 361 l 1,12,-1
 340 311 l 1,13,-1
 340 68 l 1,14,-1
 520 68 l 1,15,-1
 520 0 l 1,16,-1
 80 0 l 1,17,-1
 80 68 l 1,0,-1
EndSplineSet
EndChar

StartChar: napostrophe
Encoding: 329 329 289
Width: 600
GlyphClass: 1
Flags: W
LayerCount: 2
Fore
SplineSet
98 516 m 1,0,-1
 178 516 l 1,1,-1
 178 432 l 1,2,-1
 182 432 l 1,3,4
 190 451 190 451 202 468.5 c 128,-1,5
 214 486 214 486 231.5 499 c 128,-1,6
 249 512 249 512 273 520 c 128,-1,7
 297 528 297 528 329 528 c 0,8,9
 410 528 410 528 459 476.5 c 128,-1,10
 508 425 508 425 508 331 c 2,11,-1
 508 0 l 1,12,-1
 428 0 l 1,13,-1
 428 317 l 2,14,15
 428 388 428 388 397 422.5 c 128,-1,16
 366 457 366 457 306 457 c 0,17,18
 282 457 282 457 259 451 c 128,-1,19
 236 445 236 445 218 433 c 128,-1,20
 200 421 200 421 189 402 c 128,-1,21
 178 383 178 383 178 358 c 2,22,-1
 178 0 l 1,23,-1
 98 0 l 1,24,-1
 98 516 l 1,0,-1
12 740 m 1,25,-1
 105 740 l 1,26,-1
 53 555 l 1,27,-1
 0 555 l 1,28,-1
 12 740 l 1,25,-1
EndSplineSet
EndChar

StartChar: eng
Encoding: 331 331 290
Width: 600
GlyphClass: 1
Flags: W
LayerCount: 2
Fore
SplineSet
178 -132 m 1,0,-1
 428 -132 l 1,1,-1
 428 317 l 2,2,3
 428 388 428 388 397 422.5 c 128,-1,4
 366 457 366 457 306 457 c 0,5,6
 282 457 282 457 259 451 c 128,-1,7
 236 445 236 445 218 433 c 128,-1,8
 200 421 200 421 189 402 c 128,-1,9
 178 383 178 383 178 358 c 2,10,-1
 178 0 l 1,11,-1
 98 0 l 1,12,-1
 98 516 l 1,13,-1
 178 516 l 1,14,-1
 178 432 l 1,15,-1
 182 432 l 1,16,17
 190 451 190 451 202 468.5 c 128,-1,18
 214 486 214 486 231.5 499 c 128,-1,19
 249 512 249 512 273 520 c 128,-1,20
 297 528 297 528 329 528 c 0,21,22
 410 528 410 528 459 476.5 c 128,-1,23
 508 425 508 425 508 331 c 2,24,-1
 508 -82 l 2,25,26
 508 -134 508 -134 480.5 -167 c 128,-1,27
 453 -200 453 -200 394 -200 c 2,28,-1
 178 -200 l 1,29,-1
 178 -132 l 1,0,-1
EndSplineSet
EndChar

StartChar: oslash
Encoding: 248 248 301
Width: 600
GlyphClass: 2
Flags: W
AnchorPoint: "Anchor-2" 300 516 basechar 0
LayerCount: 2
Fore
SplineSet
47 -6 m 1,0,-1
 116 78 l 1,1,2
 92 113 92 113 79 158.5 c 128,-1,3
 66 204 66 204 66 258 c 0,4,5
 66 319 66 319 82 369 c 128,-1,6
 98 419 98 419 128.5 454.5 c 128,-1,7
 159 490 159 490 202.5 509 c 128,-1,8
 246 528 246 528 300 528 c 0,9,10
 344 528 344 528 380 515 c 128,-1,11
 416 502 416 502 445 479 c 1,12,-1
 508 556 l 1,13,-1
 553 522 l 1,14,-1
 484 438 l 1,15,16
 508 403 508 403 521 357.5 c 128,-1,17
 534 312 534 312 534 258 c 0,18,19
 534 196 534 196 518 146.5 c 128,-1,20
 502 97 502 97 471.5 61.5 c 128,-1,21
 441 26 441 26 397.5 7 c 128,-1,22
 354 -12 354 -12 300 -12 c 0,23,24
 256 -12 256 -12 220 1 c 128,-1,25
 184 14 184 14 155 37 c 1,26,-1
 92 -40 l 1,27,-1
 47 -6 l 1,0,-1
300 459 m 0,28,29
 233 459 233 459 192 419 c 128,-1,30
 151 379 151 379 151 295 c 2,31,-1
 151 221 l 2,32,33
 151 171 151 171 166 138 c 1,34,-1
 401 425 l 1,35,36
 364 459 364 459 300 459 c 0,28,29
300 57 m 0,37,38
 367 57 367 57 408 97 c 128,-1,39
 449 137 449 137 449 221 c 2,40,-1
 449 295 l 2,41,42
 449 345 449 345 434 378 c 1,43,-1
 199 91 l 1,44,45
 236 57 236 57 300 57 c 0,37,38
EndSplineSet
EndChar

StartChar: ohorn
Encoding: 417 417 304
Width: 600
GlyphClass: 2
Flags: W
AnchorPoint: "Anchor-2" 300 516 basechar 0
AnchorPoint: "Anchor-0" 300 0 basechar 0
LayerCount: 2
Fore
SplineSet
540 628 m 1,0,-1
 540 528 l 2,1,2
 540 503 540 503 527.5 485 c 128,-1,3
 515 467 515 467 477 467 c 2,4,-1
 455 467 l 1,5,6
 493 432 493 432 513.5 379 c 128,-1,7
 534 326 534 326 534 258 c 0,8,9
 534 196 534 196 518 146.5 c 128,-1,10
 502 97 502 97 471.5 61.5 c 128,-1,11
 441 26 441 26 397.5 7 c 128,-1,12
 354 -12 354 -12 300 -12 c 256,13,14
 246 -12 246 -12 202.5 7 c 128,-1,15
 159 26 159 26 128.5 61.5 c 128,-1,16
 98 97 98 97 82 146.5 c 128,-1,17
 66 196 66 196 66 258 c 0,18,19
 66 319 66 319 82 369 c 128,-1,20
 98 419 98 419 128.5 454.5 c 128,-1,21
 159 490 159 490 202.5 509 c 128,-1,22
 246 528 246 528 300 528 c 0,23,24
 343 528 343 528 379 516 c 1,25,-1
 469 516 l 1,26,-1
 469 628 l 1,27,-1
 540 628 l 1,0,-1
300 57 m 256,28,29
 367 57 367 57 408 97 c 128,-1,30
 449 137 449 137 449 221 c 2,31,-1
 449 295 l 2,32,33
 449 379 449 379 408 419 c 128,-1,34
 367 459 367 459 300 459 c 256,35,36
 233 459 233 459 192 419 c 128,-1,37
 151 379 151 379 151 295 c 2,38,-1
 151 221 l 2,39,40
 151 137 151 137 192 97 c 128,-1,41
 233 57 233 57 300 57 c 256,28,29
EndSplineSet
EndChar

StartChar: oe
Encoding: 339 339 315
Width: 600
GlyphClass: 1
Flags: W
LayerCount: 2
Fore
SplineSet
176 48 m 256,0,1
 216 48 216 48 238.5 83.5 c 128,-1,2
 261 119 261 119 261 205 c 2,3,-1
 261 311 l 2,4,5
 261 397 261 397 238.5 432.5 c 128,-1,6
 216 468 216 468 176 468 c 256,7,8
 136 468 136 468 113.5 432.5 c 128,-1,9
 91 397 91 397 91 311 c 2,10,-1
 91 205 l 2,11,12
 91 119 91 119 113.5 83.5 c 128,-1,13
 136 48 136 48 176 48 c 256,0,1
516 295 m 1,14,-1
 516 329 l 2,15,16
 516 401 516 401 492.5 435.5 c 128,-1,17
 469 470 469 470 425 470 c 256,18,19
 381 470 381 470 357.5 435.5 c 128,-1,20
 334 401 334 401 334 329 c 2,21,-1
 334 295 l 1,22,-1
 516 295 l 1,14,-1
427 -12 m 0,23,24
 385 -12 385 -12 352 10 c 128,-1,25
 319 32 319 32 296 73 c 1,26,-1
 293 73 l 1,27,28
 253 -12 253 -12 170 -12 c 0,29,30
 130 -12 130 -12 101 7 c 128,-1,31
 72 26 72 26 52.5 61.5 c 128,-1,32
 33 97 33 97 23.5 146.5 c 128,-1,33
 14 196 14 196 14 258 c 0,34,35
 14 319 14 319 23.5 369 c 128,-1,36
 33 419 33 419 52.5 454.5 c 128,-1,37
 72 490 72 490 101 509 c 128,-1,38
 130 528 130 528 170 528 c 0,39,40
 214 528 214 528 246.5 504.5 c 128,-1,41
 279 481 279 481 297 434 c 1,42,-1
 300 434 l 1,43,44
 322 486 322 486 356 507 c 128,-1,45
 390 528 390 528 432 528 c 0,46,47
 507 528 507 528 544.5 468.5 c 128,-1,48
 582 409 582 409 582 292 c 2,49,-1
 582 238 l 1,50,-1
 334 238 l 1,51,-1
 334 213 l 2,52,53
 334 141 334 141 358.5 96.5 c 128,-1,54
 383 52 383 52 429 52 c 0,55,56
 447 52 447 52 461 59.5 c 128,-1,57
 475 67 475 67 485.5 79.5 c 128,-1,58
 496 92 496 92 503 108 c 128,-1,59
 510 124 510 124 516 141 c 1,60,-1
 574 114 l 1,61,62
 567 91 567 91 554.5 68.5 c 128,-1,63
 542 46 542 46 524 28 c 128,-1,64
 506 10 506 10 481.5 -1 c 128,-1,65
 457 -12 457 -12 427 -12 c 0,23,24
EndSplineSet
EndChar

StartChar: scedilla
Encoding: 351 351 321
Width: 600
GlyphClass: 1
Flags: W
LayerCount: 2
Fore
SplineSet
310 -207 m 0,0,1
 269 -207 269 -207 245.5 -193.5 c 128,-1,2
 222 -180 222 -180 211 -166 c 1,3,-1
 249 -125 l 1,4,5
 258 -136 258 -136 273 -144.5 c 128,-1,6
 288 -153 288 -153 310 -153 c 0,7,8
 329 -153 329 -153 341.5 -145.5 c 128,-1,9
 354 -138 354 -138 354 -122 c 0,10,11
 354 -108 354 -108 341 -97.5 c 128,-1,12
 328 -87 328 -87 286 -81 c 2,13,-1
 258 -77 l 1,14,-1
 271 -10 l 1,15,16
 203 -5 203 -5 153 21.5 c 128,-1,17
 103 48 103 48 67 89 c 1,18,-1
 121 136 l 1,19,20
 158 97 158 97 202 76 c 128,-1,21
 246 55 246 55 308 55 c 0,22,23
 368 55 368 55 406.5 76.5 c 128,-1,24
 445 98 445 98 445 144 c 0,25,26
 445 164 445 164 437.5 177.5 c 128,-1,27
 430 191 430 191 417 199 c 128,-1,28
 404 207 404 207 388 211.5 c 128,-1,29
 372 216 372 216 354 219 c 2,30,-1
 273 231 l 2,31,32
 246 235 246 235 214.5 242 c 128,-1,33
 183 249 183 249 157 264.5 c 128,-1,34
 131 280 131 280 113.5 306 c 128,-1,35
 96 332 96 332 96 374 c 0,36,37
 96 413 96 413 111.5 441.5 c 128,-1,38
 127 470 127 470 155 489.5 c 128,-1,39
 183 509 183 509 221 518.5 c 128,-1,40
 259 528 259 528 304 528 c 0,41,42
 374 528 374 528 425.5 506 c 128,-1,43
 477 484 477 484 514 445 c 1,44,-1
 462 396 l 1,45,46
 453 407 453 407 439.5 418.5 c 128,-1,47
 426 430 426 430 406.5 439.5 c 128,-1,48
 387 449 387 449 361 455 c 128,-1,49
 335 461 335 461 301 461 c 0,50,51
 240 461 240 461 207.5 440 c 128,-1,52
 175 419 175 419 175 379 c 0,53,54
 175 359 175 359 182.5 345.5 c 128,-1,55
 190 332 190 332 203 324 c 128,-1,56
 216 316 216 316 232.5 311.5 c 128,-1,57
 249 307 249 307 266 304 c 2,58,-1
 347 292 l 2,59,60
 375 288 375 288 406 281 c 128,-1,61
 437 274 437 274 463 258.5 c 128,-1,62
 489 243 489 243 506.5 217 c 128,-1,63
 524 191 524 191 524 149 c 0,64,65
 524 75 524 75 469 33 c 128,-1,66
 414 -9 414 -9 320 -12 c 1,67,-1
 311 -61 l 1,68,-1
 314 -64 l 1,69,70
 333 -58 333 -58 353 -58 c 0,71,72
 382 -58 382 -58 401.5 -75 c 128,-1,73
 421 -92 421 -92 421 -124 c 0,74,75
 421 -145 421 -145 412 -161 c 128,-1,76
 403 -177 403 -177 387.5 -187 c 128,-1,77
 372 -197 372 -197 352 -202 c 128,-1,78
 332 -207 332 -207 310 -207 c 0,0,1
EndSplineSet
EndChar

StartChar: uni017F
Encoding: 383 383 324
Width: 600
GlyphClass: 1
Flags: W
LayerCount: 2
Fore
SplineSet
83 68 m 1,0,-1
 257 68 l 1,1,-1
 257 448 l 1,2,-1
 73 448 l 1,3,-1
 73 516 l 1,4,-1
 257 516 l 1,5,-1
 257 622 l 2,6,7
 257 674 257 674 284.5 707 c 128,-1,8
 312 740 312 740 371 740 c 2,9,-1
 544 740 l 1,10,-1
 544 672 l 1,11,-1
 337 672 l 1,12,-1
 337 68 l 1,13,-1
 521 68 l 1,14,-1
 521 0 l 1,15,-1
 83 0 l 1,16,-1
 83 68 l 1,0,-1
EndSplineSet
EndChar

StartChar: germandbls
Encoding: 223 223 325
Width: 600
GlyphClass: 1
Flags: W
LayerCount: 2
Fore
SplineSet
102 0 m 1,0,-1
 102 622 l 2,1,2
 102 674 102 674 129.5 707 c 128,-1,3
 157 740 157 740 216 740 c 2,4,-1
 353 740 l 1,5,-1
 353 671 l 1,6,-1
 182 671 l 1,7,-1
 182 516 l 1,8,-1
 525 516 l 1,9,-1
 525 437 l 1,10,-1
 352 212 l 1,11,12
 455 205 455 205 513.5 157 c 128,-1,13
 572 109 572 109 572 14 c 0,14,15
 572 -38 572 -38 553.5 -78 c 128,-1,16
 535 -118 535 -118 501 -145 c 128,-1,17
 467 -172 467 -172 418.5 -186 c 128,-1,18
 370 -200 370 -200 310 -200 c 2,19,-1
 244 -200 l 1,20,-1
 244 -132 l 1,21,-1
 310 -132 l 2,22,23
 400 -132 400 -132 443.5 -100 c 128,-1,24
 487 -68 487 -68 487 3 c 2,25,-1
 487 28 l 2,26,27
 487 95 487 95 440.5 123.5 c 128,-1,28
 394 152 394 152 292 152 c 2,29,-1
 276 152 l 1,30,-1
 276 220 l 1,31,-1
 452 448 l 1,32,-1
 182 448 l 1,33,-1
 182 0 l 1,34,-1
 102 0 l 1,0,-1
EndSplineSet
Substitution2: "'salt' Stylistic Alternatives lookup 16 subtable" germandbls.alt01
Substitution2: "'ss05' Style Set 5 lookup 15 subtable" germandbls.alt01
Substitution2: "'aalt' Access All Alternates lookup 0 subtable" germandbls.alt01
EndChar

StartChar: germandbls.alt01
Encoding: 65571 -1 326
Width: 600
GlyphClass: 1
Flags: W
LayerCount: 2
Fore
SplineSet
102 448 m 1,0,-1
 28 448 l 1,1,-1
 28 516 l 1,2,-1
 102 516 l 1,3,-1
 102 521 l 2,4,5
 102 573 102 573 115.5 616 c 128,-1,6
 129 659 129 659 155.5 689 c 128,-1,7
 182 719 182 719 220 735.5 c 128,-1,8
 258 752 258 752 306 752 c 0,9,10
 402 752 402 752 453 689 c 128,-1,11
 504 626 504 626 504 521 c 2,12,-1
 504 460 l 1,13,-1
 457 460 l 2,14,15
 397 460 397 460 365 441 c 128,-1,16
 333 422 333 422 333 377 c 0,17,18
 333 341 333 341 353.5 326 c 128,-1,19
 374 311 374 311 410 299 c 2,20,-1
 434 291 l 2,21,22
 505 268 505 268 538.5 235.5 c 128,-1,23
 572 203 572 203 572 140 c 0,24,25
 572 63 572 63 526.5 25.5 c 128,-1,26
 481 -12 481 -12 400 -12 c 0,27,28
 345 -12 345 -12 305.5 6 c 128,-1,29
 266 24 266 24 234 64 c 1,30,-1
 285 110 l 1,31,32
 308 78 308 78 338 65 c 128,-1,33
 368 52 368 52 405 52 c 0,34,35
 450 52 450 52 473.5 71 c 128,-1,36
 497 90 497 90 497 132 c 0,37,38
 497 160 497 160 483.5 184 c 128,-1,39
 470 208 470 208 429 221 c 2,40,-1
 404 229 l 2,41,42
 376 238 376 238 349.5 248 c 128,-1,43
 323 258 323 258 303 273.5 c 128,-1,44
 283 289 283 289 270.5 313 c 128,-1,45
 258 337 258 337 258 374 c 0,46,47
 258 444 258 444 303 481 c 128,-1,48
 348 518 348 518 426 520 c 1,49,-1
 426 528 l 2,50,51
 426 609 426 609 397 647 c 128,-1,52
 368 685 368 685 305 685 c 0,53,54
 181 685 181 685 181 528 c 2,55,-1
 181 0 l 1,56,-1
 102 0 l 1,57,-1
 102 448 l 1,0,-1
EndSplineSet
EndChar

StartChar: tbar
Encoding: 359 359 327
Width: 600
GlyphClass: 1
Flags: W
LayerCount: 2
Fore
SplineSet
524 0 m 1,0,-1
 325 0 l 2,1,2
 266 0 266 0 238.5 33 c 128,-1,3
 211 66 211 66 211 118 c 2,4,-1
 211 247 l 1,5,-1
 102 247 l 1,6,-1
 102 309 l 1,7,-1
 211 309 l 1,8,-1
 211 448 l 1,9,-1
 39 448 l 1,10,-1
 39 516 l 1,11,-1
 167 516 l 2,12,13
 193 516 193 516 203.5 526.5 c 128,-1,14
 214 537 214 537 214 563 c 2,15,-1
 214 698 l 1,16,-1
 291 698 l 1,17,-1
 291 516 l 1,18,-1
 526 516 l 1,19,-1
 526 448 l 1,20,-1
 291 448 l 1,21,-1
 291 309 l 1,22,-1
 464 309 l 1,23,-1
 464 247 l 1,24,-1
 291 247 l 1,25,-1
 291 68 l 1,26,-1
 524 68 l 1,27,-1
 524 0 l 1,0,-1
EndSplineSet
EndChar

StartChar: uni0163
Encoding: 355 355 330
Width: 600
GlyphClass: 1
Flags: W
LayerCount: 2
Fore
SplineSet
387 -207 m 0,0,1
 346 -207 346 -207 322.5 -193.5 c 128,-1,2
 299 -180 299 -180 288 -166 c 1,3,-1
 326 -125 l 1,4,5
 335 -136 335 -136 350 -144.5 c 128,-1,6
 365 -153 365 -153 387 -153 c 0,7,8
 406 -153 406 -153 418.5 -145.5 c 128,-1,9
 431 -138 431 -138 431 -122 c 0,10,11
 431 -108 431 -108 418 -97.5 c 128,-1,12
 405 -87 405 -87 363 -81 c 2,13,-1
 335 -77 l 1,14,-1
 350 0 l 1,15,-1
 325 0 l 2,16,17
 266 0 266 0 238.5 33 c 128,-1,18
 211 66 211 66 211 118 c 2,19,-1
 211 448 l 1,20,-1
 39 448 l 1,21,-1
 39 516 l 1,22,-1
 167 516 l 2,23,24
 193 516 193 516 203.5 526.5 c 128,-1,25
 214 537 214 537 214 563 c 2,26,-1
 214 698 l 1,27,-1
 291 698 l 1,28,-1
 291 516 l 1,29,-1
 526 516 l 1,30,-1
 526 448 l 1,31,-1
 291 448 l 1,32,-1
 291 68 l 1,33,-1
 526 68 l 1,34,-1
 526 0 l 1,35,-1
 400 0 l 1,36,-1
 388 -61 l 1,37,-1
 391 -64 l 1,38,39
 410 -58 410 -58 430 -58 c 0,40,41
 459 -58 459 -58 478.5 -75 c 128,-1,42
 498 -92 498 -92 498 -124 c 0,43,44
 498 -145 498 -145 489 -161 c 128,-1,45
 480 -177 480 -177 464.5 -187 c 128,-1,46
 449 -197 449 -197 429 -202 c 128,-1,47
 409 -207 409 -207 387 -207 c 0,0,1
EndSplineSet
EndChar

StartChar: thorn
Encoding: 254 254 331
Width: 600
GlyphClass: 1
Flags: W
LayerCount: 2
Fore
SplineSet
95 740 m 1,0,-1
 175 740 l 1,1,-1
 175 432 l 1,2,-1
 179 432 l 1,3,4
 229 528 229 528 338 528 c 0,5,6
 433 528 433 528 486.5 457 c 128,-1,7
 540 386 540 386 540 258 c 256,8,9
 540 130 540 130 486.5 59 c 128,-1,10
 433 -12 433 -12 338 -12 c 0,11,12
 229 -12 229 -12 179 84 c 1,13,-1
 175 84 l 1,14,-1
 175 -200 l 1,15,-1
 95 -200 l 1,16,-1
 95 740 l 1,0,-1
307 59 m 0,17,18
 377 59 377 59 415.5 101.5 c 128,-1,19
 454 144 454 144 454 214 c 2,20,-1
 454 302 l 2,21,22
 454 372 454 372 415.5 414.5 c 128,-1,23
 377 457 377 457 307 457 c 0,24,25
 280 457 280 457 256 450 c 128,-1,26
 232 443 232 443 214 429.5 c 128,-1,27
 196 416 196 416 185.5 396.5 c 128,-1,28
 175 377 175 377 175 351 c 2,29,-1
 175 165 l 2,30,31
 175 139 175 139 185.5 119.5 c 128,-1,32
 196 100 196 100 214 86.5 c 128,-1,33
 232 73 232 73 256 66 c 128,-1,34
 280 59 280 59 307 59 c 0,17,18
EndSplineSet
EndChar

StartChar: uogonek
Encoding: 371 371 342
Width: 600
GlyphClass: 1
Flags: W
LayerCount: 2
Fore
SplineSet
502 0 m 1,0,1
 463 -24 463 -24 440.5 -42 c 128,-1,2
 418 -60 418 -60 406.5 -73.5 c 128,-1,3
 395 -87 395 -87 392 -97 c 128,-1,4
 389 -107 389 -107 389 -114 c 0,5,6
 389 -135 389 -135 402 -143 c 128,-1,7
 415 -151 415 -151 431 -151 c 0,8,9
 462 -151 462 -151 483 -125 c 1,10,-1
 523 -166 l 1,11,12
 513 -183 513 -183 490.5 -195 c 128,-1,13
 468 -207 468 -207 430 -207 c 0,14,15
 384 -207 384 -207 352.5 -187 c 128,-1,16
 321 -167 321 -167 321 -127 c 0,17,18
 321 -91 321 -91 350 -60.5 c 128,-1,19
 379 -30 379 -30 436 -3 c 1,20,-1
 435 0 l 1,21,-1
 422 0 l 1,22,-1
 422 84 l 1,23,-1
 418 84 l 1,24,25
 410 65 410 65 398 47.5 c 128,-1,26
 386 30 386 30 368.5 17 c 128,-1,27
 351 4 351 4 327 -4 c 128,-1,28
 303 -12 303 -12 271 -12 c 0,29,30
 190 -12 190 -12 141 39.5 c 128,-1,31
 92 91 92 91 92 185 c 2,32,-1
 92 516 l 1,33,-1
 172 516 l 1,34,-1
 172 199 l 2,35,36
 172 128 172 128 203 93.5 c 128,-1,37
 234 59 234 59 294 59 c 0,38,39
 318 59 318 59 341 65 c 128,-1,40
 364 71 364 71 382 83 c 128,-1,41
 400 95 400 95 411 113.5 c 128,-1,42
 422 132 422 132 422 158 c 2,43,-1
 422 516 l 1,44,-1
 502 516 l 1,45,-1
 502 0 l 1,0,1
EndSplineSet
EndChar

StartChar: uhorn
Encoding: 432 432 345
Width: 600
GlyphClass: 2
Flags: W
AnchorPoint: "Anchor-2" 297 516 basechar 0
AnchorPoint: "Anchor-0" 297 0 basechar 0
LayerCount: 2
Fore
SplineSet
587 526 m 2,0,1
 587 500 587 500 574.5 481.5 c 128,-1,2
 562 463 562 463 524 463 c 2,3,-1
 502 463 l 1,4,-1
 502 0 l 1,5,-1
 422 0 l 1,6,-1
 422 84 l 1,7,-1
 418 84 l 1,8,9
 410 65 410 65 398 47.5 c 128,-1,10
 386 30 386 30 368.5 17 c 128,-1,11
 351 4 351 4 327 -4 c 128,-1,12
 303 -12 303 -12 271 -12 c 0,13,14
 190 -12 190 -12 141 39.5 c 128,-1,15
 92 91 92 91 92 185 c 2,16,-1
 92 516 l 1,17,-1
 172 516 l 1,18,-1
 172 199 l 2,19,20
 172 128 172 128 203 93.5 c 128,-1,21
 234 59 234 59 294 59 c 0,22,23
 318 59 318 59 341 65 c 128,-1,24
 364 71 364 71 382 83 c 128,-1,25
 400 95 400 95 411 113.5 c 128,-1,26
 422 132 422 132 422 158 c 2,27,-1
 422 516 l 1,28,-1
 516 516 l 1,29,-1
 516 628 l 1,30,-1
 587 628 l 1,31,-1
 587 526 l 2,0,1
EndSplineSet
EndChar

StartChar: Aogonek
Encoding: 260 260 378
Width: 600
GlyphClass: 1
Flags: W
LayerCount: 2
Fore
SplineSet
245 698 m 1,0,-1
 356 698 l 1,1,-1
 570 0 l 1,2,3
 531 -24 531 -24 508.5 -42 c 128,-1,4
 486 -60 486 -60 474.5 -73.5 c 128,-1,5
 463 -87 463 -87 460 -97 c 128,-1,6
 457 -107 457 -107 457 -114 c 0,7,8
 457 -135 457 -135 470 -143 c 128,-1,9
 483 -151 483 -151 499 -151 c 0,10,11
 530 -151 530 -151 551 -125 c 1,12,-1
 591 -166 l 1,13,14
 581 -183 581 -183 558.5 -195 c 128,-1,15
 536 -207 536 -207 498 -207 c 0,16,17
 452 -207 452 -207 420.5 -187 c 128,-1,18
 389 -167 389 -167 389 -127 c 0,19,20
 389 -91 389 -91 418 -60.5 c 128,-1,21
 447 -30 447 -30 504 -3 c 1,22,-1
 503 0 l 1,23,-1
 481 0 l 1,24,-1
 422 199 l 1,25,-1
 177 199 l 1,26,-1
 118 0 l 1,27,-1
 31 0 l 1,28,-1
 245 698 l 1,0,-1
304 609 m 1,29,-1
 295 609 l 1,30,-1
 197 272 l 1,31,-1
 402 272 l 1,32,-1
 304 609 l 1,29,-1
EndSplineSet
EndChar

StartChar: AE
Encoding: 198 198 392
Width: 600
GlyphClass: 2
Flags: W
AnchorPoint: "Anchor-2" 393 698 basechar 0
LayerCount: 2
Fore
SplineSet
312 201 m 1,0,-1
 160 201 l 1,1,-1
 104 0 l 1,2,-1
 20 0 l 1,3,-1
 226 698 l 1,4,-1
 560 698 l 1,5,-1
 560 629 l 1,6,-1
 392 629 l 1,7,-1
 392 388 l 1,8,-1
 548 388 l 1,9,-1
 548 319 l 1,10,-1
 392 319 l 1,11,-1
 392 69 l 1,12,-1
 560 69 l 1,13,-1
 560 0 l 1,14,-1
 312 0 l 1,15,-1
 312 201 l 1,0,-1
281 638 m 1,16,-1
 178 270 l 1,17,-1
 312 270 l 1,18,-1
 312 638 l 1,19,-1
 281 638 l 1,16,-1
EndSplineSet
EndChar

StartChar: Ccedilla
Encoding: 199 199 396
Width: 600
GlyphClass: 1
Flags: W
LayerCount: 2
Fore
SplineSet
323 637 m 0,0,1
 240 637 240 637 199.5 574 c 128,-1,2
 159 511 159 511 159 406 c 2,3,-1
 159 292 l 2,4,5
 159 187 159 187 199.5 124 c 128,-1,6
 240 61 240 61 323 61 c 0,7,8
 355 61 355 61 377.5 70 c 128,-1,9
 400 79 400 79 416.5 94.5 c 128,-1,10
 433 110 433 110 445 130.5 c 128,-1,11
 457 151 457 151 466 174 c 1,12,-1
 538 141 l 1,13,14
 525 113 525 113 508.5 86 c 128,-1,15
 492 59 492 59 467.5 37.5 c 128,-1,16
 443 16 443 16 409.5 2.5 c 128,-1,17
 376 -11 376 -11 330 -12 c 1,18,-1
 321 -61 l 1,19,-1
 324 -64 l 1,20,21
 343 -58 343 -58 363 -58 c 0,22,23
 392 -58 392 -58 411.5 -75 c 128,-1,24
 431 -92 431 -92 431 -124 c 0,25,26
 431 -145 431 -145 422 -161 c 128,-1,27
 413 -177 413 -177 397.5 -187 c 128,-1,28
 382 -197 382 -197 362 -202 c 128,-1,29
 342 -207 342 -207 320 -207 c 0,30,31
 279 -207 279 -207 255.5 -193.5 c 128,-1,32
 232 -180 232 -180 221 -166 c 1,33,-1
 259 -125 l 1,34,35
 268 -136 268 -136 283 -144.5 c 128,-1,36
 298 -153 298 -153 320 -153 c 0,37,38
 339 -153 339 -153 351.5 -145.5 c 128,-1,39
 364 -138 364 -138 364 -122 c 0,40,41
 364 -108 364 -108 351 -97.5 c 128,-1,42
 338 -87 338 -87 296 -81 c 2,43,-1
 268 -77 l 1,44,-1
 281 -9 l 1,45,46
 174 6 174 6 122 97 c 128,-1,47
 70 188 70 188 70 349 c 0,48,49
 70 524 70 524 132.5 617 c 128,-1,50
 195 710 195 710 323 710 c 0,51,52
 371 710 371 710 406 697 c 128,-1,53
 441 684 441 684 466 662 c 128,-1,54
 491 640 491 640 508 612.5 c 128,-1,55
 525 585 525 585 538 557 c 1,56,-1
 466 524 l 1,57,58
 457 547 457 547 445 567.5 c 128,-1,59
 433 588 433 588 416.5 603.5 c 128,-1,60
 400 619 400 619 377.5 628 c 128,-1,61
 355 637 355 637 323 637 c 0,0,1
EndSplineSet
EndChar

StartChar: Dcroat
Encoding: 272 272 400
Width: 600
GlyphClass: 1
Flags: W
LayerCount: 2
Fore
SplineSet
102 336 m 1,0,-1
 22 336 l 1,1,-1
 22 400 l 1,2,-1
 102 400 l 1,3,-1
 102 698 l 1,4,-1
 290 698 l 2,5,6
 418 698 418 698 481 610 c 128,-1,7
 544 522 544 522 544 349 c 256,8,9
 544 176 544 176 481 88 c 128,-1,10
 418 0 418 0 290 0 c 2,11,-1
 102 0 l 1,12,-1
 102 336 l 1,0,-1
286 73 m 2,13,14
 370 73 370 73 412.5 131 c 128,-1,15
 455 189 455 189 455 295 c 2,16,-1
 455 403 l 2,17,18
 455 509 455 509 412.5 567 c 128,-1,19
 370 625 370 625 286 625 c 2,20,-1
 186 625 l 1,21,-1
 186 400 l 1,22,-1
 327 400 l 1,23,-1
 327 336 l 1,24,-1
 186 336 l 1,25,-1
 186 73 l 1,26,-1
 286 73 l 2,13,14
EndSplineSet
EndChar

StartChar: Eogonek
Encoding: 280 280 412
Width: 600
GlyphClass: 1
Flags: W
LayerCount: 2
Fore
SplineSet
90 698 m 1,0,-1
 520 698 l 1,1,-1
 520 625 l 1,2,-1
 174 625 l 1,3,-1
 174 390 l 1,4,-1
 508 390 l 1,5,-1
 508 317 l 1,6,-1
 174 317 l 1,7,-1
 174 73 l 1,8,-1
 520 73 l 1,9,-1
 520 0 l 1,10,11
 481 -24 481 -24 458.5 -42 c 128,-1,12
 436 -60 436 -60 424.5 -73.5 c 128,-1,13
 413 -87 413 -87 410 -97 c 128,-1,14
 407 -107 407 -107 407 -114 c 0,15,16
 407 -135 407 -135 420 -143 c 128,-1,17
 433 -151 433 -151 449 -151 c 0,18,19
 480 -151 480 -151 501 -125 c 1,20,-1
 541 -166 l 1,21,22
 531 -183 531 -183 508.5 -195 c 128,-1,23
 486 -207 486 -207 448 -207 c 0,24,25
 402 -207 402 -207 370.5 -187 c 128,-1,26
 339 -167 339 -167 339 -127 c 0,27,28
 339 -91 339 -91 368 -60.5 c 128,-1,29
 397 -30 397 -30 454 -3 c 1,30,-1
 453 0 l 1,31,-1
 90 0 l 1,32,-1
 90 698 l 1,0,-1
EndSplineSet
EndChar

StartChar: uni018F
Encoding: 399 399 419
Width: 600
GlyphClass: 1
Flags: W
LayerCount: 2
Fore
SplineSet
300 -12 m 0,0,1
 236 -12 236 -12 190 12.5 c 128,-1,2
 144 37 144 37 114 83 c 128,-1,3
 84 129 84 129 70 196 c 128,-1,4
 56 263 56 263 56 349 c 2,5,-1
 56 371 l 1,6,-1
 455 371 l 1,7,-1
 455 404 l 2,8,9
 455 456 455 456 446.5 499 c 128,-1,10
 438 542 438 542 418.5 573 c 128,-1,11
 399 604 399 604 367 620.5 c 128,-1,12
 335 637 335 637 289 637 c 0,13,14
 268 637 268 637 246 632 c 128,-1,15
 224 627 224 627 203.5 612.5 c 128,-1,16
 183 598 183 598 165 571 c 128,-1,17
 147 544 147 544 133 499 c 1,18,-1
 63 532 l 1,19,20
 86 619 86 619 145 664.5 c 128,-1,21
 204 710 204 710 295 710 c 0,22,23
 362 710 362 710 409.5 685 c 128,-1,24
 457 660 457 660 487 613.5 c 128,-1,25
 517 567 517 567 530.5 500.5 c 128,-1,26
 544 434 544 434 544 350 c 0,27,28
 544 178 544 178 485.5 83 c 128,-1,29
 427 -12 427 -12 300 -12 c 0,0,1
299 61 m 256,30,31
 341 61 341 61 370.5 77.5 c 128,-1,32
 400 94 400 94 418.5 124 c 128,-1,33
 437 154 437 154 446 196.5 c 128,-1,34
 455 239 455 239 455 292 c 2,35,-1
 455 302 l 1,36,-1
 143 302 l 1,37,-1
 143 292 l 2,38,39
 143 239 143 239 152 196.5 c 128,-1,40
 161 154 161 154 179.5 124 c 128,-1,41
 198 94 198 94 227.5 77.5 c 128,-1,42
 257 61 257 61 299 61 c 256,30,31
EndSplineSet
EndChar

StartChar: Hbar
Encoding: 294 294 424
Width: 600
GlyphClass: 1
Flags: W
LayerCount: 2
Fore
SplineSet
436 317 m 1,0,-1
 164 317 l 1,1,-1
 164 0 l 1,2,-1
 80 0 l 1,3,-1
 80 518 l 1,4,-1
 10 518 l 1,5,-1
 10 582 l 1,6,-1
 80 582 l 1,7,-1
 80 698 l 1,8,-1
 164 698 l 1,9,-1
 164 582 l 1,10,-1
 436 582 l 1,11,-1
 436 698 l 1,12,-1
 520 698 l 1,13,-1
 520 582 l 1,14,-1
 590 582 l 1,15,-1
 590 518 l 1,16,-1
 520 518 l 1,17,-1
 520 0 l 1,18,-1
 436 0 l 1,19,-1
 436 317 l 1,0,-1
436 390 m 1,20,-1
 436 518 l 1,21,-1
 164 518 l 1,22,-1
 164 390 l 1,23,-1
 436 390 l 1,20,-1
EndSplineSet
EndChar

StartChar: Iogonek
Encoding: 302 302 436
Width: 600
GlyphClass: 1
Flags: W
LayerCount: 2
Fore
SplineSet
84 67 m 1,0,-1
 258 67 l 1,1,-1
 258 631 l 1,2,-1
 84 631 l 1,3,-1
 84 698 l 1,4,-1
 516 698 l 1,5,-1
 516 631 l 1,6,-1
 342 631 l 1,7,-1
 342 67 l 1,8,-1
 516 67 l 1,9,-1
 516 0 l 1,10,11
 477 -24 477 -24 454.5 -42 c 128,-1,12
 432 -60 432 -60 420.5 -73.5 c 128,-1,13
 409 -87 409 -87 406 -97 c 128,-1,14
 403 -107 403 -107 403 -114 c 0,15,16
 403 -135 403 -135 416 -143 c 128,-1,17
 429 -151 429 -151 445 -151 c 0,18,19
 476 -151 476 -151 497 -125 c 1,20,-1
 537 -166 l 1,21,22
 527 -183 527 -183 504.5 -195 c 128,-1,23
 482 -207 482 -207 444 -207 c 0,24,25
 398 -207 398 -207 366.5 -187 c 128,-1,26
 335 -167 335 -167 335 -127 c 0,27,28
 335 -91 335 -91 364 -60.5 c 128,-1,29
 393 -30 393 -30 450 -3 c 1,30,-1
 449 0 l 1,31,-1
 84 0 l 1,32,-1
 84 67 l 1,0,-1
EndSplineSet
EndChar

StartChar: IJ
Encoding: 306 306 438
Width: 600
GlyphClass: 1
Flags: W
LayerCount: 2
Fore
SplineSet
510 698 m 1,0,-1
 510 191 l 2,1,2
 510 144 510 144 494 106.5 c 128,-1,3
 478 69 478 69 449.5 43 c 128,-1,4
 421 17 421 17 381 2.5 c 128,-1,5
 341 -12 341 -12 293 -12 c 0,6,7
 211 -12 211 -12 156 29 c 128,-1,8
 101 70 101 70 85 145 c 1,9,-1
 169 166 l 1,10,11
 173 146 173 146 181.5 127.5 c 128,-1,12
 190 109 190 109 204.5 94.5 c 128,-1,13
 219 80 219 80 241 71 c 128,-1,14
 263 62 263 62 296 62 c 0,15,16
 358 62 358 62 392 97 c 128,-1,17
 426 132 426 132 426 206 c 2,18,-1
 426 698 l 1,19,-1
 510 698 l 1,0,-1
90 698 m 1,20,-1
 174 698 l 1,21,-1
 174 290 l 1,22,-1
 90 290 l 1,23,-1
 90 698 l 1,20,-1
EndSplineSet
EndChar

StartChar: Lslash
Encoding: 321 321 447
Width: 600
GlyphClass: 1
Flags: W
LayerCount: 2
Fore
SplineSet
535 0 m 1,0,-1
 120 0 l 1,1,-1
 120 271 l 1,2,-1
 40 245 l 1,3,-1
 40 314 l 1,4,-1
 120 340 l 1,5,-1
 120 698 l 1,6,-1
 204 698 l 1,7,-1
 204 364 l 1,8,-1
 415 433 l 1,9,-1
 415 364 l 1,10,-1
 204 295 l 1,11,-1
 204 73 l 1,12,-1
 535 73 l 1,13,-1
 535 0 l 1,0,-1
EndSplineSet
EndChar

StartChar: Eng
Encoding: 330 330 452
Width: 600
GlyphClass: 1
Flags: W
LayerCount: 2
Fore
SplineSet
80 0 m 1,0,-1
 80 698 l 1,1,-1
 199 698 l 1,2,-1
 437 113 l 1,3,-1
 444 113 l 1,4,-1
 444 698 l 1,5,-1
 520 698 l 1,6,-1
 520 -82 l 2,7,8
 520 -134 520 -134 492.5 -167 c 128,-1,9
 465 -200 465 -200 406 -200 c 2,10,-1
 157 -200 l 1,11,-1
 157 -132 l 1,12,-1
 444 -132 l 1,13,-1
 444 0 l 1,14,-1
 401 0 l 1,15,-1
 163 591 l 1,16,-1
 156 591 l 1,17,-1
 156 0 l 1,18,-1
 80 0 l 1,0,-1
EndSplineSet
EndChar

StartChar: Oslash
Encoding: 216 216 463
Width: 600
GlyphClass: 2
Flags: W
AnchorPoint: "Anchor-2" 300 698 basechar 0
LayerCount: 2
Fore
SplineSet
300 -12 m 0,0,1
 209 -12 209 -12 154 36 c 1,2,-1
 107 -44 l 1,3,-1
 47 -8 l 1,4,-1
 107 94 l 1,5,6
 81 140 81 140 68.5 204 c 128,-1,7
 56 268 56 268 56 349 c 0,8,9
 56 434 56 434 70 501.5 c 128,-1,10
 84 569 84 569 114 615 c 128,-1,11
 144 661 144 661 190 685.5 c 128,-1,12
 236 710 236 710 300 710 c 0,13,14
 390 710 390 710 446 662 c 1,15,-1
 493 742 l 1,16,-1
 553 706 l 1,17,-1
 493 604 l 1,18,19
 519 558 519 558 531.5 494 c 128,-1,20
 544 430 544 430 544 349 c 0,21,22
 544 263 544 263 530 196 c 128,-1,23
 516 129 516 129 486 83 c 128,-1,24
 456 37 456 37 410 12.5 c 128,-1,25
 364 -12 364 -12 300 -12 c 0,0,1
145 292 m 2,26,27
 145 258 145 258 148 228.5 c 128,-1,28
 151 199 151 199 159 174 c 1,29,-1
 407 591 l 1,30,31
 388 613 388 613 361.5 625 c 128,-1,32
 335 637 335 637 300 637 c 0,33,34
 258 637 258 637 229 620.5 c 128,-1,35
 200 604 200 604 181 574 c 128,-1,36
 162 544 162 544 153.5 501 c 128,-1,37
 145 458 145 458 145 406 c 2,38,-1
 145 292 l 2,26,27
300 61 m 0,39,40
 342 61 342 61 371 77.5 c 128,-1,41
 400 94 400 94 419 124 c 128,-1,42
 438 154 438 154 446.5 196.5 c 128,-1,43
 455 239 455 239 455 292 c 2,44,-1
 455 406 l 2,45,46
 455 440 455 440 452 469.5 c 128,-1,47
 449 499 449 499 441 524 c 1,48,-1
 193 107 l 1,49,50
 212 85 212 85 238.5 73 c 128,-1,51
 265 61 265 61 300 61 c 0,39,40
EndSplineSet
EndChar

StartChar: Ohorn
Encoding: 416 416 466
Width: 600
GlyphClass: 2
Flags: W
AnchorPoint: "Anchor-2" 300 698 basechar 0
AnchorPoint: "Anchor-0" 300 0 basechar 0
LayerCount: 2
Fore
SplineSet
549 710 m 2,0,1
 549 684 549 684 536.5 665.5 c 128,-1,2
 524 647 524 647 486 647 c 2,3,-1
 458 647 l 1,4,5
 504 603 504 603 524 528.5 c 128,-1,6
 544 454 544 454 544 349 c 0,7,8
 544 263 544 263 530 196 c 128,-1,9
 516 129 516 129 486 83 c 128,-1,10
 456 37 456 37 410 12.5 c 128,-1,11
 364 -12 364 -12 300 -12 c 256,12,13
 236 -12 236 -12 190 12.5 c 128,-1,14
 144 37 144 37 114 83 c 128,-1,15
 84 129 84 129 70 196 c 128,-1,16
 56 263 56 263 56 349 c 0,17,18
 56 434 56 434 70 501.5 c 128,-1,19
 84 569 84 569 114 615 c 128,-1,20
 144 661 144 661 190 685.5 c 128,-1,21
 236 710 236 710 300 710 c 0,22,23
 344 710 344 710 380 698 c 1,24,-1
 478 698 l 1,25,-1
 478 810 l 1,26,-1
 549 810 l 1,27,-1
 549 710 l 2,0,1
300 61 m 256,28,29
 342 61 342 61 371 77.5 c 128,-1,30
 400 94 400 94 419 124 c 128,-1,31
 438 154 438 154 446.5 196.5 c 128,-1,32
 455 239 455 239 455 292 c 2,33,-1
 455 406 l 2,34,35
 455 458 455 458 446.5 501 c 128,-1,36
 438 544 438 544 419 574 c 128,-1,37
 400 604 400 604 371 620.5 c 128,-1,38
 342 637 342 637 300 637 c 256,39,40
 258 637 258 637 229 620.5 c 128,-1,41
 200 604 200 604 181 574 c 128,-1,42
 162 544 162 544 153.5 501 c 128,-1,43
 145 458 145 458 145 406 c 2,44,-1
 145 292 l 2,45,46
 145 239 145 239 153.5 196.5 c 128,-1,47
 162 154 162 154 181 124 c 128,-1,48
 200 94 200 94 229 77.5 c 128,-1,49
 258 61 258 61 300 61 c 256,28,29
EndSplineSet
EndChar

StartChar: OE
Encoding: 338 338 477
Width: 600
GlyphClass: 1
Flags: W
LayerCount: 2
Fore
SplineSet
289 0 m 2,0,1
 161 0 161 0 99 88 c 128,-1,2
 37 176 37 176 37 349 c 256,3,4
 37 522 37 522 99 610 c 128,-1,5
 161 698 161 698 289 698 c 2,6,-1
 560 698 l 1,7,-1
 560 629 l 1,8,-1
 392 629 l 1,9,-1
 392 388 l 1,10,-1
 548 388 l 1,11,-1
 548 319 l 1,12,-1
 392 319 l 1,13,-1
 392 69 l 1,14,-1
 560 69 l 1,15,-1
 560 0 l 1,16,-1
 289 0 l 2,0,1
312 69 m 1,17,-1
 312 629 l 1,18,-1
 293 629 l 2,19,20
 208 629 208 629 165 570 c 128,-1,21
 122 511 122 511 122 403 c 2,22,-1
 122 295 l 2,23,24
 122 187 122 187 165 128 c 128,-1,25
 208 69 208 69 293 69 c 2,26,-1
 312 69 l 1,17,-1
EndSplineSet
EndChar

StartChar: Scedilla
Encoding: 350 350 483
Width: 600
GlyphClass: 1
Flags: W
LayerCount: 2
Fore
SplineSet
309 -207 m 0,0,1
 268 -207 268 -207 244.5 -193.5 c 128,-1,2
 221 -180 221 -180 210 -166 c 1,3,-1
 248 -125 l 1,4,5
 257 -136 257 -136 272 -144.5 c 128,-1,6
 287 -153 287 -153 309 -153 c 0,7,8
 328 -153 328 -153 340.5 -145.5 c 128,-1,9
 353 -138 353 -138 353 -122 c 0,10,11
 353 -108 353 -108 340 -97.5 c 128,-1,12
 327 -87 327 -87 285 -81 c 2,13,-1
 257 -77 l 1,14,-1
 270 -11 l 1,15,16
 188 -6 188 -6 134.5 27 c 128,-1,17
 81 60 81 60 45 111 c 1,18,-1
 106 161 l 1,19,20
 147 110 147 110 192.5 85 c 128,-1,21
 238 60 238 60 301 60 c 0,22,23
 377 60 377 60 417 95 c 128,-1,24
 457 130 457 130 457 193 c 0,25,26
 457 244 457 244 428 272.5 c 128,-1,27
 399 301 399 301 327 313 c 2,28,-1
 249 326 l 2,29,30
 198 335 198 335 163.5 353 c 128,-1,31
 129 371 129 371 108 396.5 c 128,-1,32
 87 422 87 422 78 452.5 c 128,-1,33
 69 483 69 483 69 516 c 0,34,35
 69 612 69 612 132 661 c 128,-1,36
 195 710 195 710 302 710 c 0,37,38
 386 710 386 710 443.5 682 c 128,-1,39
 501 654 501 654 536 603 c 1,40,-1
 477 552 l 1,41,42
 448 590 448 590 407 614 c 128,-1,43
 366 638 366 638 301 638 c 0,44,45
 230 638 230 638 192 608 c 128,-1,46
 154 578 154 578 154 518 c 0,47,48
 154 471 154 471 182.5 441.5 c 128,-1,49
 211 412 211 412 285 399 c 2,50,-1
 360 386 l 2,51,52
 411 377 411 377 446 359 c 128,-1,53
 481 341 481 341 502.5 316 c 128,-1,54
 524 291 524 291 533 260 c 128,-1,55
 542 229 542 229 542 195 c 0,56,57
 542 102 542 102 484 48 c 128,-1,58
 426 -6 426 -6 320 -11 c 1,59,-1
 310 -61 l 1,60,-1
 313 -64 l 1,61,62
 332 -58 332 -58 352 -58 c 0,63,64
 381 -58 381 -58 400.5 -75 c 128,-1,65
 420 -92 420 -92 420 -124 c 0,66,67
 420 -145 420 -145 411 -161 c 128,-1,68
 402 -177 402 -177 386.5 -187 c 128,-1,69
 371 -197 371 -197 351 -202 c 128,-1,70
 331 -207 331 -207 309 -207 c 0,0,1
EndSplineSet
EndChar

StartChar: uni1E9E
Encoding: 7838 7838 486
Width: 600
GlyphClass: 1
Flags: W
LayerCount: 2
Fore
SplineSet
63 698 m 1,0,-1
 536 698 l 1,1,-1
 536 616 l 1,2,-1
 367 405 l 1,3,-1
 367 401 l 1,4,5
 467 399 467 399 523.5 346.5 c 128,-1,6
 580 294 580 294 580 195 c 0,7,8
 580 97 580 97 523.5 42.5 c 128,-1,9
 467 -12 467 -12 370 -12 c 0,10,11
 313 -12 313 -12 267 8.5 c 128,-1,12
 221 29 221 29 189 73 c 1,13,-1
 247 122 l 1,14,15
 270 91 270 91 302.5 74.5 c 128,-1,16
 335 58 335 58 373 58 c 0,17,18
 427 58 427 58 459 90 c 128,-1,19
 491 122 491 122 491 177 c 2,20,-1
 491 213 l 2,21,22
 491 268 491 268 459 300 c 128,-1,23
 427 332 427 332 372 332 c 2,24,-1
 278 332 l 1,25,-1
 278 409 l 1,26,-1
 451 625 l 1,27,-1
 147 625 l 1,28,-1
 147 0 l 1,29,-1
 63 0 l 1,30,-1
 63 698 l 1,0,-1
EndSplineSet
EndChar

StartChar: Tbar
Encoding: 358 358 487
Width: 600
GlyphClass: 1
Flags: W
LayerCount: 2
Fore
SplineSet
342 336 m 1,0,-1
 342 0 l 1,1,-1
 258 0 l 1,2,-1
 258 336 l 1,3,-1
 85 336 l 1,4,-1
 85 400 l 1,5,-1
 258 400 l 1,6,-1
 258 625 l 1,7,-1
 25 625 l 1,8,-1
 25 698 l 1,9,-1
 575 698 l 1,10,-1
 575 625 l 1,11,-1
 342 625 l 1,12,-1
 342 400 l 1,13,-1
 515 400 l 1,14,-1
 515 336 l 1,15,-1
 342 336 l 1,0,-1
EndSplineSet
EndChar

StartChar: uni0162
Encoding: 354 354 490
Width: 600
GlyphClass: 1
Flags: W
LayerCount: 2
Fore
SplineSet
312 -207 m 0,0,1
 271 -207 271 -207 247.5 -193.5 c 128,-1,2
 224 -180 224 -180 213 -166 c 1,3,-1
 251 -125 l 1,4,5
 260 -136 260 -136 275 -144.5 c 128,-1,6
 290 -153 290 -153 312 -153 c 0,7,8
 331 -153 331 -153 343.5 -145.5 c 128,-1,9
 356 -138 356 -138 356 -122 c 0,10,11
 356 -108 356 -108 343 -97.5 c 128,-1,12
 330 -87 330 -87 288 -81 c 2,13,-1
 260 -77 l 1,14,-1
 275 0 l 1,15,-1
 258 0 l 1,16,-1
 258 625 l 1,17,-1
 25 625 l 1,18,-1
 25 698 l 1,19,-1
 575 698 l 1,20,-1
 575 625 l 1,21,-1
 342 625 l 1,22,-1
 342 0 l 1,23,-1
 325 0 l 1,24,-1
 313 -61 l 1,25,-1
 316 -64 l 1,26,27
 335 -58 335 -58 355 -58 c 0,28,29
 384 -58 384 -58 403.5 -75 c 128,-1,30
 423 -92 423 -92 423 -124 c 0,31,32
 423 -145 423 -145 414 -161 c 128,-1,33
 405 -177 405 -177 389.5 -187 c 128,-1,34
 374 -197 374 -197 354 -202 c 128,-1,35
 334 -207 334 -207 312 -207 c 0,0,1
EndSplineSet
EndChar

StartChar: Thorn
Encoding: 222 222 491
Width: 600
GlyphClass: 1
Flags: W
LayerCount: 2
Fore
SplineSet
90 0 m 1,0,-1
 90 698 l 1,1,-1
 174 698 l 1,2,-1
 174 553 l 1,3,-1
 344 553 l 2,4,5
 441 553 441 553 492 499.5 c 128,-1,6
 543 446 543 446 543 354 c 256,7,8
 543 262 543 262 492 208.5 c 128,-1,9
 441 155 441 155 344 155 c 2,10,-1
 174 155 l 1,11,-1
 174 0 l 1,12,-1
 90 0 l 1,0,-1
174 228 m 1,13,-1
 344 228 l 2,14,15
 397 228 397 228 426.5 254 c 128,-1,16
 456 280 456 280 456 328 c 2,17,-1
 456 380 l 2,18,19
 456 428 456 428 426.5 454 c 128,-1,20
 397 480 397 480 344 480 c 2,21,-1
 174 480 l 1,22,-1
 174 228 l 1,13,-1
EndSplineSet
EndChar

StartChar: Uogonek
Encoding: 370 370 502
Width: 600
GlyphClass: 1
Flags: W
LayerCount: 2
Fore
SplineSet
164 698 m 1,0,-1
 164 279 l 2,1,2
 164 228 164 228 167 188 c 128,-1,3
 170 148 170 148 183 119.5 c 128,-1,4
 196 91 196 91 223.5 76 c 128,-1,5
 251 61 251 61 300 61 c 256,6,7
 349 61 349 61 376.5 76 c 128,-1,8
 404 91 404 91 417 119.5 c 128,-1,9
 430 148 430 148 433 188 c 128,-1,10
 436 228 436 228 436 279 c 2,11,-1
 436 698 l 1,12,-1
 520 698 l 1,13,-1
 520 299 l 2,14,15
 520 242 520 242 517 198 c 128,-1,16
 514 154 514 154 503 119 c 128,-1,17
 492 84 492 84 470.5 55.5 c 128,-1,18
 449 27 449 27 413 0 c 0,19,20
 396 -12 396 -12 376.5 -25.5 c 128,-1,21
 357 -39 357 -39 340 -53.5 c 128,-1,22
 323 -68 323 -68 311.5 -84 c 128,-1,23
 300 -100 300 -100 300 -116 c 0,24,25
 300 -134 300 -134 312.5 -142.5 c 128,-1,26
 325 -151 325 -151 342 -151 c 0,27,28
 373 -151 373 -151 394 -125 c 1,29,-1
 434 -166 l 1,30,31
 424 -183 424 -183 401.5 -195 c 128,-1,32
 379 -207 379 -207 341 -207 c 0,33,34
 295 -207 295 -207 263.5 -186.5 c 128,-1,35
 232 -166 232 -166 232 -128 c 0,36,37
 232 -93 232 -93 261 -65 c 128,-1,38
 290 -37 290 -37 347 -11 c 1,39,-1
 345 -7 l 1,40,41
 333 -10 333 -10 321 -11 c 128,-1,42
 309 -12 309 -12 295 -12 c 0,43,44
 226 -12 226 -12 183.5 8 c 128,-1,45
 141 28 141 28 118 67 c 128,-1,46
 95 106 95 106 87.5 164 c 128,-1,47
 80 222 80 222 80 299 c 2,48,-1
 80 698 l 1,49,-1
 164 698 l 1,0,-1
EndSplineSet
EndChar

StartChar: Uhorn
Encoding: 431 431 505
Width: 600
GlyphClass: 2
Flags: W
AnchorPoint: "Anchor-2" 300 698 basechar 0
AnchorPoint: "Anchor-0" 300 0 basechar 0
LayerCount: 2
Fore
SplineSet
164 698 m 1,0,-1
 164 279 l 2,1,2
 164 228 164 228 167 188 c 128,-1,3
 170 148 170 148 183 119.5 c 128,-1,4
 196 91 196 91 223.5 76 c 128,-1,5
 251 61 251 61 300 61 c 256,6,7
 349 61 349 61 376.5 76 c 128,-1,8
 404 91 404 91 417 119.5 c 128,-1,9
 430 148 430 148 433 188 c 128,-1,10
 436 228 436 228 436 279 c 2,11,-1
 436 698 l 1,12,-1
 529 698 l 1,13,-1
 529 810 l 1,14,-1
 600 810 l 1,15,-1
 600 708 l 2,16,17
 600 682 600 682 587.5 663.5 c 128,-1,18
 575 645 575 645 537 645 c 2,19,-1
 520 645 l 1,20,-1
 520 299 l 2,21,22
 520 221 520 221 512.5 163 c 128,-1,23
 505 105 505 105 481.5 66 c 128,-1,24
 458 27 458 27 414.5 7.5 c 128,-1,25
 371 -12 371 -12 300 -12 c 256,26,27
 229 -12 229 -12 185.5 7.5 c 128,-1,28
 142 27 142 27 118.5 66 c 128,-1,29
 95 105 95 105 87.5 163 c 128,-1,30
 80 221 80 221 80 299 c 2,31,-1
 80 698 l 1,32,-1
 164 698 l 1,0,-1
EndSplineSet
EndChar

